<mxfile host="65bd71144e">
    <diagram id="i7ONuc7Eb74o2l4yup3w" name="Page-1">
        <mxGraphModel dx="2338" dy="1675" grid="1" gridSize="10" guides="1" tooltips="1" connect="1" arrows="1" fold="1" page="1" pageScale="1" pageWidth="1100" pageHeight="850" math="0" shadow="0">
            <root>
                <mxCell id="0"/>
                <mxCell id="1" parent="0"/>
                <mxCell id="AKQwnDpZvUHBcNmQF-iE-1" value="20" style="shape=cube;whiteSpace=wrap;html=1;boundedLbl=1;backgroundOutline=1;darkOpacity=0.05;darkOpacity2=0.1;size=10;rotation=90;fillColor=#FF0000;strokeWidth=2;horizontal=0;fontSize=12;fontStyle=1" parent="1" vertex="1">
                    <mxGeometry x="170" y="281.25" width="30" height="25" as="geometry"/>
                </mxCell>
                <mxCell id="AKQwnDpZvUHBcNmQF-iE-2" value="21" style="shape=cube;whiteSpace=wrap;html=1;boundedLbl=1;backgroundOutline=1;darkOpacity=0.05;darkOpacity2=0.1;size=10;rotation=90;fillColor=#FF0000;strokeWidth=2;horizontal=0;fontSize=12;fontStyle=1" parent="1" vertex="1">
                    <mxGeometry x="185" y="281.25" width="30" height="25" as="geometry"/>
                </mxCell>
                <mxCell id="AKQwnDpZvUHBcNmQF-iE-3" value="22" style="shape=cube;whiteSpace=wrap;html=1;boundedLbl=1;backgroundOutline=1;darkOpacity=0.05;darkOpacity2=0.1;size=10;rotation=90;fillColor=#FF0000;strokeWidth=2;horizontal=0;fontSize=12;fontStyle=1" parent="1" vertex="1">
                    <mxGeometry x="200" y="281.25" width="30" height="25" as="geometry"/>
                </mxCell>
                <mxCell id="AKQwnDpZvUHBcNmQF-iE-4" value="23" style="shape=cube;whiteSpace=wrap;html=1;boundedLbl=1;backgroundOutline=1;darkOpacity=0.05;darkOpacity2=0.1;size=10;rotation=90;fillColor=#FF0000;strokeWidth=2;horizontal=0;fontSize=12;fontStyle=1" parent="1" vertex="1">
                    <mxGeometry x="215" y="281.25" width="30" height="25" as="geometry"/>
                </mxCell>
                <mxCell id="AKQwnDpZvUHBcNmQF-iE-5" value="" style="shape=cube;whiteSpace=wrap;html=1;boundedLbl=1;backgroundOutline=1;darkOpacity=0.05;darkOpacity2=0.1;size=10;rotation=90;fillColor=#0000FF;strokeWidth=2;fontStyle=1;fontSize=12;" parent="1" vertex="1">
                    <mxGeometry x="250" y="261" width="30" height="25" as="geometry"/>
                </mxCell>
                <mxCell id="AKQwnDpZvUHBcNmQF-iE-6" value="" style="shape=cube;whiteSpace=wrap;html=1;boundedLbl=1;backgroundOutline=1;darkOpacity=0.05;darkOpacity2=0.1;size=10;rotation=90;strokeWidth=2;fillColor=#0000FF;strokeColor=#33001A;fontSize=12;" parent="1" vertex="1">
                    <mxGeometry x="420" y="321.25" width="30" height="25" as="geometry"/>
                </mxCell>
                <mxCell id="AKQwnDpZvUHBcNmQF-iE-7" value="" style="shape=cube;whiteSpace=wrap;html=1;boundedLbl=1;backgroundOutline=1;darkOpacity=0.05;darkOpacity2=0.1;size=10;rotation=90;fillColor=#0000FF;strokeWidth=2;strokeColor=#33001A;fontSize=12;" parent="1" vertex="1">
                    <mxGeometry x="435" y="341.25" width="30" height="25" as="geometry"/>
                </mxCell>
                <mxCell id="AKQwnDpZvUHBcNmQF-iE-8" value="" style="shape=cube;whiteSpace=wrap;html=1;boundedLbl=1;backgroundOutline=1;darkOpacity=0.05;darkOpacity2=0.1;size=10;rotation=90;strokeWidth=2;fillColor=#00FF00;fontSize=12;" parent="1" vertex="1">
                    <mxGeometry x="410" y="331.25" width="30" height="25" as="geometry"/>
                </mxCell>
                <mxCell id="AKQwnDpZvUHBcNmQF-iE-9" value="" style="shape=cube;whiteSpace=wrap;html=1;boundedLbl=1;backgroundOutline=1;darkOpacity=0.05;darkOpacity2=0.1;size=10;rotation=90;fillColor=#0000FF;strokeWidth=2;strokeColor=#33001A;fontSize=12;" parent="1" vertex="1">
                    <mxGeometry x="435" y="321.25" width="30" height="25" as="geometry"/>
                </mxCell>
                <mxCell id="AKQwnDpZvUHBcNmQF-iE-10" value="" style="shape=cube;whiteSpace=wrap;html=1;boundedLbl=1;backgroundOutline=1;darkOpacity=0.05;darkOpacity2=0.1;size=10;rotation=90;fillColor=#00FF00;strokeWidth=2;fontSize=12;" parent="1" vertex="1">
                    <mxGeometry x="425" y="351.25" width="30" height="25" as="geometry"/>
                </mxCell>
                <mxCell id="AKQwnDpZvUHBcNmQF-iE-11" value="" style="shape=cube;whiteSpace=wrap;html=1;boundedLbl=1;backgroundOutline=1;darkOpacity=0.05;darkOpacity2=0.1;size=10;rotation=90;fillColor=#00FF00;strokeWidth=2;fontSize=12;" parent="1" vertex="1">
                    <mxGeometry x="425" y="331.25" width="30" height="25" as="geometry"/>
                </mxCell>
                <mxCell id="AKQwnDpZvUHBcNmQF-iE-12" value="14" style="shape=cube;whiteSpace=wrap;html=1;boundedLbl=1;backgroundOutline=1;darkOpacity=0.05;darkOpacity2=0.1;size=10;rotation=90;strokeWidth=2;fillColor=#FF0000;fontStyle=1;horizontal=0;fontSize=12;" parent="1" vertex="1">
                    <mxGeometry x="400" y="361.25" width="30" height="25" as="geometry"/>
                </mxCell>
                <mxCell id="AKQwnDpZvUHBcNmQF-iE-13" value="12" style="shape=cube;whiteSpace=wrap;html=1;boundedLbl=1;backgroundOutline=1;darkOpacity=0.05;darkOpacity2=0.1;size=10;rotation=90;strokeWidth=2;fillColor=#FF0000;fontStyle=1;horizontal=0;fontSize=12;" parent="1" vertex="1">
                    <mxGeometry x="400" y="341.25" width="30" height="25" as="geometry"/>
                </mxCell>
                <mxCell id="AKQwnDpZvUHBcNmQF-iE-14" value="15" style="shape=cube;whiteSpace=wrap;html=1;boundedLbl=1;backgroundOutline=1;darkOpacity=0.05;darkOpacity2=0.1;size=10;rotation=90;strokeWidth=2;fillColor=#FF0000;fontStyle=1;horizontal=0;fontSize=12;" parent="1" vertex="1">
                    <mxGeometry x="415" y="361.25" width="30" height="25" as="geometry"/>
                </mxCell>
                <mxCell id="AKQwnDpZvUHBcNmQF-iE-15" value="13" style="shape=cube;whiteSpace=wrap;html=1;boundedLbl=1;backgroundOutline=1;darkOpacity=0.05;darkOpacity2=0.1;size=10;rotation=90;strokeWidth=2;fillColor=#FF0000;fontStyle=1;horizontal=0;fontSize=12;" parent="1" vertex="1">
                    <mxGeometry x="415" y="341.25" width="30" height="25" as="geometry"/>
                </mxCell>
                <mxCell id="AKQwnDpZvUHBcNmQF-iE-16" value="" style="shape=cube;whiteSpace=wrap;html=1;boundedLbl=1;backgroundOutline=1;darkOpacity=0.05;darkOpacity2=0.1;size=10;rotation=90;strokeWidth=2;fontSize=12;" parent="1" vertex="1">
                    <mxGeometry x="190" y="180.62" width="90" height="85" as="geometry"/>
                </mxCell>
                <mxCell id="AKQwnDpZvUHBcNmQF-iE-17" value="" style="shape=cube;whiteSpace=wrap;html=1;boundedLbl=1;backgroundOutline=1;darkOpacity=0.05;darkOpacity2=0.1;size=10;rotation=90;fillColor=#0000FF;strokeWidth=2;fontStyle=1;fontSize=12;" parent="1" vertex="1">
                    <mxGeometry x="250" y="240.62" width="30" height="25" as="geometry"/>
                </mxCell>
                <mxCell id="AKQwnDpZvUHBcNmQF-iE-18" value="" style="shape=cube;whiteSpace=wrap;html=1;boundedLbl=1;backgroundOutline=1;darkOpacity=0.05;darkOpacity2=0.1;size=10;rotation=90;fillColor=#0000FF;strokeWidth=2;fontStyle=1;fontSize=12;" parent="1" vertex="1">
                    <mxGeometry x="250" y="220.62" width="30" height="25" as="geometry"/>
                </mxCell>
                <mxCell id="AKQwnDpZvUHBcNmQF-iE-19" value="" style="shape=cube;whiteSpace=wrap;html=1;boundedLbl=1;backgroundOutline=1;darkOpacity=0.05;darkOpacity2=0.1;size=10;rotation=90;strokeWidth=2;fillColor=#0000FF;fontStyle=1;fontSize=12;" parent="1" vertex="1">
                    <mxGeometry x="250" y="200.62" width="30" height="25" as="geometry"/>
                </mxCell>
                <mxCell id="AKQwnDpZvUHBcNmQF-iE-20" value="" style="shape=cube;whiteSpace=wrap;html=1;boundedLbl=1;backgroundOutline=1;darkOpacity=0.05;darkOpacity2=0.1;size=10;rotation=90;strokeWidth=2;fillColor=#0000FF;fontSize=12;" parent="1" vertex="1">
                    <mxGeometry x="190" y="180.62" width="30" height="25" as="geometry"/>
                </mxCell>
                <mxCell id="AKQwnDpZvUHBcNmQF-iE-21" value="" style="shape=cube;whiteSpace=wrap;html=1;boundedLbl=1;backgroundOutline=1;darkOpacity=0.05;darkOpacity2=0.1;size=10;rotation=90;fillColor=#0000FF;strokeWidth=2;fontSize=12;" parent="1" vertex="1">
                    <mxGeometry x="205" y="180.62" width="30" height="25" as="geometry"/>
                </mxCell>
                <mxCell id="AKQwnDpZvUHBcNmQF-iE-22" value="" style="shape=cube;whiteSpace=wrap;html=1;boundedLbl=1;backgroundOutline=1;darkOpacity=0.05;darkOpacity2=0.1;size=10;rotation=90;fillColor=#0000FF;strokeWidth=2;fontSize=12;" parent="1" vertex="1">
                    <mxGeometry x="220" y="180.62" width="30" height="25" as="geometry"/>
                </mxCell>
                <mxCell id="AKQwnDpZvUHBcNmQF-iE-23" value="" style="shape=cube;whiteSpace=wrap;html=1;boundedLbl=1;backgroundOutline=1;darkOpacity=0.05;darkOpacity2=0.1;size=10;rotation=90;strokeWidth=2;fillColor=#0000FF;fontSize=12;" parent="1" vertex="1">
                    <mxGeometry x="235" y="180.62" width="30" height="25" as="geometry"/>
                </mxCell>
                <mxCell id="AKQwnDpZvUHBcNmQF-iE-24" value="" style="shape=cube;whiteSpace=wrap;html=1;boundedLbl=1;backgroundOutline=1;darkOpacity=0.05;darkOpacity2=0.1;size=10;rotation=90;fillColor=#0000FF;strokeWidth=2;fontSize=12;" parent="1" vertex="1">
                    <mxGeometry x="250" y="180.62" width="30" height="25" as="geometry"/>
                </mxCell>
                <mxCell id="AKQwnDpZvUHBcNmQF-iE-25" value="" style="endArrow=none;html=1;rounded=0;entryX=0;entryY=0;entryDx=10;entryDy=25;entryPerimeter=0;exitX=0.555;exitY=0.995;exitDx=0;exitDy=0;exitPerimeter=0;strokeWidth=2;fontStyle=1;fontSize=12;" parent="1" source="AKQwnDpZvUHBcNmQF-iE-16" target="AKQwnDpZvUHBcNmQF-iE-18" edge="1">
                    <mxGeometry width="50" height="50" relative="1" as="geometry">
                        <mxPoint x="260" y="218.62" as="sourcePoint"/>
                        <mxPoint x="310" y="268.62" as="targetPoint"/>
                    </mxGeometry>
                </mxCell>
                <mxCell id="AKQwnDpZvUHBcNmQF-iE-26" value="" style="endArrow=none;html=1;rounded=0;entryX=0;entryY=0;entryDx=10;entryDy=25;entryPerimeter=0;exitX=0.555;exitY=0.995;exitDx=0;exitDy=0;exitPerimeter=0;strokeWidth=2;fontStyle=1;fontSize=12;" parent="1" edge="1">
                    <mxGeometry width="50" height="50" relative="1" as="geometry">
                        <mxPoint x="193" y="248.6199999999999" as="sourcePoint"/>
                        <mxPoint x="253" y="248.6199999999999" as="targetPoint"/>
                    </mxGeometry>
                </mxCell>
                <mxCell id="AKQwnDpZvUHBcNmQF-iE-27" value="" style="endArrow=none;html=1;rounded=0;entryX=0.999;entryY=0.472;entryDx=0;entryDy=0;entryPerimeter=0;exitX=0.555;exitY=0.995;exitDx=0;exitDy=0;exitPerimeter=0;strokeWidth=2;fontStyle=1;fontSize=12;" parent="1" target="AKQwnDpZvUHBcNmQF-iE-16" edge="1">
                    <mxGeometry width="50" height="50" relative="1" as="geometry">
                        <mxPoint x="236.99999999999977" y="208.6199999999999" as="sourcePoint"/>
                        <mxPoint x="297" y="208.62" as="targetPoint"/>
                    </mxGeometry>
                </mxCell>
                <mxCell id="AKQwnDpZvUHBcNmQF-iE-28" value="" style="endArrow=none;html=1;rounded=0;entryX=0.999;entryY=0.472;entryDx=0;entryDy=0;entryPerimeter=0;exitX=0.555;exitY=0.995;exitDx=0;exitDy=0;exitPerimeter=0;strokeWidth=2;fontStyle=1;fontSize=12;" parent="1" edge="1">
                    <mxGeometry width="50" height="50" relative="1" as="geometry">
                        <mxPoint x="221.99999999999977" y="208.6199999999999" as="sourcePoint"/>
                        <mxPoint x="221.99999999999977" y="267.6199999999999" as="targetPoint"/>
                    </mxGeometry>
                </mxCell>
                <mxCell id="AKQwnDpZvUHBcNmQF-iE-29" value="" style="endArrow=none;html=1;rounded=0;entryX=0.999;entryY=0.472;entryDx=0;entryDy=0;entryPerimeter=0;exitX=0.555;exitY=0.995;exitDx=0;exitDy=0;exitPerimeter=0;strokeWidth=2;fontStyle=1;fontSize=12;" parent="1" edge="1">
                    <mxGeometry width="50" height="50" relative="1" as="geometry">
                        <mxPoint x="206.99999999999977" y="208.6199999999999" as="sourcePoint"/>
                        <mxPoint x="206.99999999999977" y="267.6199999999999" as="targetPoint"/>
                    </mxGeometry>
                </mxCell>
                <mxCell id="AKQwnDpZvUHBcNmQF-iE-30" value="" style="shape=cube;whiteSpace=wrap;html=1;boundedLbl=1;backgroundOutline=1;darkOpacity=0.05;darkOpacity2=0.1;size=10;rotation=90;strokeWidth=2;fontStyle=1;fontSize=12;" parent="1" vertex="1">
                    <mxGeometry x="180" y="190.62" width="90" height="85" as="geometry"/>
                </mxCell>
                <mxCell id="AKQwnDpZvUHBcNmQF-iE-31" value="" style="shape=cube;whiteSpace=wrap;html=1;boundedLbl=1;backgroundOutline=1;darkOpacity=0.05;darkOpacity2=0.1;size=10;rotation=90;strokeWidth=2;fillColor=#00FF00;fontStyle=1;fontSize=12;" parent="1" vertex="1">
                    <mxGeometry x="180" y="190.62" width="30" height="25" as="geometry"/>
                </mxCell>
                <mxCell id="AKQwnDpZvUHBcNmQF-iE-32" value="" style="shape=cube;whiteSpace=wrap;html=1;boundedLbl=1;backgroundOutline=1;darkOpacity=0.05;darkOpacity2=0.1;size=10;rotation=90;strokeWidth=2;fillColor=#00FF00;fontStyle=1;fontSize=12;" parent="1" vertex="1">
                    <mxGeometry x="195" y="190.62" width="30" height="25" as="geometry"/>
                </mxCell>
                <mxCell id="AKQwnDpZvUHBcNmQF-iE-33" value="" style="shape=cube;whiteSpace=wrap;html=1;boundedLbl=1;backgroundOutline=1;darkOpacity=0.05;darkOpacity2=0.1;size=10;rotation=90;strokeWidth=2;fillColor=#00FF00;fontStyle=1;fontSize=12;" parent="1" vertex="1">
                    <mxGeometry x="210" y="190.62" width="30" height="25" as="geometry"/>
                </mxCell>
                <mxCell id="AKQwnDpZvUHBcNmQF-iE-34" value="" style="shape=cube;whiteSpace=wrap;html=1;boundedLbl=1;backgroundOutline=1;darkOpacity=0.05;darkOpacity2=0.1;size=10;rotation=90;strokeWidth=2;fillColor=#00FF00;fontStyle=1;fontSize=12;" parent="1" vertex="1">
                    <mxGeometry x="225" y="190.62" width="30" height="25" as="geometry"/>
                </mxCell>
                <mxCell id="AKQwnDpZvUHBcNmQF-iE-35" value="" style="endArrow=none;html=1;rounded=0;entryX=0;entryY=0;entryDx=10;entryDy=25;entryPerimeter=0;exitX=0.555;exitY=0.995;exitDx=0;exitDy=0;exitPerimeter=0;strokeWidth=2;fontStyle=1;fontSize=12;" parent="1" source="AKQwnDpZvUHBcNmQF-iE-30" target="AKQwnDpZvUHBcNmQF-iE-527" edge="1">
                    <mxGeometry width="50" height="50" relative="1" as="geometry">
                        <mxPoint x="250" y="228.62" as="sourcePoint"/>
                        <mxPoint x="300" y="278.62" as="targetPoint"/>
                    </mxGeometry>
                </mxCell>
                <mxCell id="AKQwnDpZvUHBcNmQF-iE-36" value="" style="endArrow=none;html=1;rounded=0;entryX=0;entryY=0;entryDx=10;entryDy=25;entryPerimeter=0;exitX=0.555;exitY=0.995;exitDx=0;exitDy=0;exitPerimeter=0;strokeWidth=2;fontStyle=1;fontSize=12;" parent="1" edge="1">
                    <mxGeometry width="50" height="50" relative="1" as="geometry">
                        <mxPoint x="183" y="258.6199999999999" as="sourcePoint"/>
                        <mxPoint x="243" y="258.6199999999999" as="targetPoint"/>
                    </mxGeometry>
                </mxCell>
                <mxCell id="AKQwnDpZvUHBcNmQF-iE-37" value="" style="endArrow=none;html=1;rounded=0;entryX=0.999;entryY=0.472;entryDx=0;entryDy=0;entryPerimeter=0;exitX=0.555;exitY=0.995;exitDx=0;exitDy=0;exitPerimeter=0;strokeWidth=2;fontStyle=1;fontSize=12;" parent="1" target="AKQwnDpZvUHBcNmQF-iE-30" edge="1">
                    <mxGeometry width="50" height="50" relative="1" as="geometry">
                        <mxPoint x="226.99999999999977" y="218.6199999999999" as="sourcePoint"/>
                        <mxPoint x="287" y="218.62" as="targetPoint"/>
                    </mxGeometry>
                </mxCell>
                <mxCell id="AKQwnDpZvUHBcNmQF-iE-38" value="" style="endArrow=none;html=1;rounded=0;entryX=0.999;entryY=0.472;entryDx=0;entryDy=0;entryPerimeter=0;exitX=0.555;exitY=0.995;exitDx=0;exitDy=0;exitPerimeter=0;strokeWidth=2;fontStyle=1;fontSize=12;" parent="1" edge="1">
                    <mxGeometry width="50" height="50" relative="1" as="geometry">
                        <mxPoint x="211.99999999999977" y="218.6199999999999" as="sourcePoint"/>
                        <mxPoint x="211.99999999999977" y="277.6199999999999" as="targetPoint"/>
                    </mxGeometry>
                </mxCell>
                <mxCell id="AKQwnDpZvUHBcNmQF-iE-39" value="" style="endArrow=none;html=1;rounded=0;entryX=0.999;entryY=0.472;entryDx=0;entryDy=0;entryPerimeter=0;exitX=0.555;exitY=0.995;exitDx=0;exitDy=0;exitPerimeter=0;strokeWidth=2;fontStyle=1;fontSize=12;" parent="1" edge="1">
                    <mxGeometry width="50" height="50" relative="1" as="geometry">
                        <mxPoint x="196.99999999999977" y="218.6199999999999" as="sourcePoint"/>
                        <mxPoint x="196.99999999999977" y="277.6199999999999" as="targetPoint"/>
                    </mxGeometry>
                </mxCell>
                <mxCell id="AKQwnDpZvUHBcNmQF-iE-40" value="" style="shape=cube;whiteSpace=wrap;html=1;boundedLbl=1;backgroundOutline=1;darkOpacity=0.05;darkOpacity2=0.1;size=10;rotation=90;strokeWidth=2;fontStyle=1;fontSize=12;" parent="1" vertex="1">
                    <mxGeometry x="170" y="200.62" width="90" height="85" as="geometry"/>
                </mxCell>
                <mxCell id="AKQwnDpZvUHBcNmQF-iE-41" value="15" style="shape=cube;whiteSpace=wrap;html=1;boundedLbl=1;backgroundOutline=1;darkOpacity=0.05;darkOpacity2=0.1;size=10;rotation=90;fillColor=#FF0000;strokeWidth=2;horizontal=0;fontSize=12;fontStyle=1" parent="1" vertex="1">
                    <mxGeometry x="170" y="260.62" width="30" height="25" as="geometry"/>
                </mxCell>
                <mxCell id="AKQwnDpZvUHBcNmQF-iE-42" value="16" style="shape=cube;whiteSpace=wrap;html=1;boundedLbl=1;backgroundOutline=1;darkOpacity=0.05;darkOpacity2=0.1;size=10;rotation=90;horizontal=0;strokeWidth=2;fontSize=12;fillColor=#FF0000;fontStyle=1" parent="1" vertex="1">
                    <mxGeometry x="185" y="260.62" width="30" height="25" as="geometry"/>
                </mxCell>
                <mxCell id="AKQwnDpZvUHBcNmQF-iE-43" value="17" style="shape=cube;whiteSpace=wrap;html=1;boundedLbl=1;backgroundOutline=1;darkOpacity=0.05;darkOpacity2=0.1;size=10;rotation=90;horizontal=0;strokeWidth=2;fontSize=12;fillColor=#FF0000;fontStyle=1" parent="1" vertex="1">
                    <mxGeometry x="200" y="260.62" width="30" height="25" as="geometry"/>
                </mxCell>
                <mxCell id="AKQwnDpZvUHBcNmQF-iE-44" value="18" style="shape=cube;whiteSpace=wrap;html=1;boundedLbl=1;backgroundOutline=1;darkOpacity=0.05;darkOpacity2=0.1;size=10;rotation=90;horizontal=0;strokeWidth=2;fontSize=12;fillColor=#FF0000;fontStyle=1" parent="1" vertex="1">
                    <mxGeometry x="215" y="260.62" width="30" height="25" as="geometry"/>
                </mxCell>
                <mxCell id="AKQwnDpZvUHBcNmQF-iE-45" value="10&lt;br style=&quot;font-size: 12px;&quot;&gt;" style="shape=cube;whiteSpace=wrap;html=1;boundedLbl=1;backgroundOutline=1;darkOpacity=0.05;darkOpacity2=0.1;size=10;rotation=90;horizontal=0;strokeWidth=2;fontSize=12;fillColor=#FF0000;fontStyle=1" parent="1" vertex="1">
                    <mxGeometry x="170" y="240.62" width="30" height="25" as="geometry"/>
                </mxCell>
                <mxCell id="AKQwnDpZvUHBcNmQF-iE-46" value="11" style="shape=cube;whiteSpace=wrap;html=1;boundedLbl=1;backgroundOutline=1;darkOpacity=0.05;darkOpacity2=0.1;size=10;rotation=90;fillColor=#FF0000;strokeWidth=2;horizontal=0;fontStyle=1;fontSize=12;" parent="1" vertex="1">
                    <mxGeometry x="185" y="240.62" width="30" height="25" as="geometry"/>
                </mxCell>
                <mxCell id="AKQwnDpZvUHBcNmQF-iE-47" value="12" style="shape=cube;whiteSpace=wrap;html=1;boundedLbl=1;backgroundOutline=1;darkOpacity=0.05;darkOpacity2=0.1;size=10;rotation=90;horizontal=0;strokeWidth=2;fontSize=12;fillColor=#FF0000;fontStyle=1" parent="1" vertex="1">
                    <mxGeometry x="200" y="239.62" width="30" height="27" as="geometry"/>
                </mxCell>
                <mxCell id="AKQwnDpZvUHBcNmQF-iE-48" value="13" style="shape=cube;whiteSpace=wrap;html=1;boundedLbl=1;backgroundOutline=1;darkOpacity=0.05;darkOpacity2=0.1;size=10;rotation=90;horizontal=0;strokeWidth=2;fontSize=12;fillColor=#FF0000;fontStyle=1" parent="1" vertex="1">
                    <mxGeometry x="215" y="240.62" width="30" height="25" as="geometry"/>
                </mxCell>
                <mxCell id="AKQwnDpZvUHBcNmQF-iE-49" value="5" style="shape=cube;whiteSpace=wrap;html=1;boundedLbl=1;backgroundOutline=1;darkOpacity=0.05;darkOpacity2=0.1;size=10;rotation=90;horizontal=0;strokeWidth=2;fontSize=12;fillColor=#FF0000;fontStyle=1" parent="1" vertex="1">
                    <mxGeometry x="170" y="220.62" width="30" height="25" as="geometry"/>
                </mxCell>
                <mxCell id="AKQwnDpZvUHBcNmQF-iE-50" value="6" style="shape=cube;whiteSpace=wrap;html=1;boundedLbl=1;backgroundOutline=1;darkOpacity=0.05;darkOpacity2=0.1;size=10;rotation=90;horizontal=0;strokeWidth=2;fontSize=12;fillColor=#FF0000;fontStyle=1" parent="1" vertex="1">
                    <mxGeometry x="185" y="220.62" width="30" height="25" as="geometry"/>
                </mxCell>
                <mxCell id="AKQwnDpZvUHBcNmQF-iE-51" value="7" style="shape=cube;whiteSpace=wrap;html=1;boundedLbl=1;backgroundOutline=1;darkOpacity=0.05;darkOpacity2=0.1;size=10;rotation=90;horizontal=0;strokeWidth=2;fontSize=12;fillColor=#FF0000;fontStyle=1" parent="1" vertex="1">
                    <mxGeometry x="200" y="220.62" width="30" height="25" as="geometry"/>
                </mxCell>
                <mxCell id="AKQwnDpZvUHBcNmQF-iE-52" value="8" style="shape=cube;whiteSpace=wrap;html=1;boundedLbl=1;backgroundOutline=1;darkOpacity=0.05;darkOpacity2=0.1;size=10;rotation=90;horizontal=0;strokeWidth=2;fontSize=12;fillColor=#FF0000;fontStyle=1" parent="1" vertex="1">
                    <mxGeometry x="215" y="220.62" width="30" height="25" as="geometry"/>
                </mxCell>
                <mxCell id="AKQwnDpZvUHBcNmQF-iE-53" value="0" style="shape=cube;whiteSpace=wrap;html=1;boundedLbl=1;backgroundOutline=1;darkOpacity=0.05;darkOpacity2=0.1;size=10;rotation=90;fillColor=#FF0000;strokeWidth=2;horizontal=0;fontSize=12;fontStyle=1" parent="1" vertex="1">
                    <mxGeometry x="170" y="200.62" width="30" height="25" as="geometry"/>
                </mxCell>
                <mxCell id="AKQwnDpZvUHBcNmQF-iE-54" value="1" style="shape=cube;whiteSpace=wrap;html=1;boundedLbl=1;backgroundOutline=1;darkOpacity=0.05;darkOpacity2=0.1;size=10;rotation=90;horizontal=0;strokeWidth=2;fontSize=12;fillColor=#FF0000;fontStyle=1" parent="1" vertex="1">
                    <mxGeometry x="185" y="200.62" width="30" height="25" as="geometry"/>
                </mxCell>
                <mxCell id="AKQwnDpZvUHBcNmQF-iE-55" value="2" style="shape=cube;whiteSpace=wrap;html=1;boundedLbl=1;backgroundOutline=1;darkOpacity=0.05;darkOpacity2=0.1;size=10;rotation=90;fillColor=#FF0000;strokeWidth=2;horizontal=0;fontSize=12;fontStyle=1" parent="1" vertex="1">
                    <mxGeometry x="200" y="200.62" width="30" height="25" as="geometry"/>
                </mxCell>
                <mxCell id="AKQwnDpZvUHBcNmQF-iE-56" value="3" style="shape=cube;whiteSpace=wrap;html=1;boundedLbl=1;backgroundOutline=1;darkOpacity=0.05;darkOpacity2=0.1;size=10;rotation=90;horizontal=0;strokeWidth=2;fontSize=12;fillColor=#FF0000;fontStyle=1" parent="1" vertex="1">
                    <mxGeometry x="215" y="200.62" width="30" height="25" as="geometry"/>
                </mxCell>
                <mxCell id="AKQwnDpZvUHBcNmQF-iE-57" value="0" style="rounded=0;whiteSpace=wrap;html=1;fontSize=12;fontColor=#000000;strokeColor=#000000;strokeWidth=2;fillColor=#FF0000;gradientColor=none;fontStyle=1" parent="1" vertex="1">
                    <mxGeometry x="157.99999999999997" y="613.75" width="20" height="20" as="geometry"/>
                </mxCell>
                <mxCell id="AKQwnDpZvUHBcNmQF-iE-58" value="1" style="rounded=0;whiteSpace=wrap;html=1;fontSize=12;fontColor=#000000;strokeColor=#000000;strokeWidth=2;fillColor=#FF0000;gradientColor=none;fontStyle=1" parent="1" vertex="1">
                    <mxGeometry x="177.99999999999997" y="613.75" width="20" height="20" as="geometry"/>
                </mxCell>
                <mxCell id="AKQwnDpZvUHBcNmQF-iE-59" value="2" style="rounded=0;whiteSpace=wrap;html=1;fontSize=12;fontColor=#000000;strokeColor=#000000;strokeWidth=2;fillColor=#FF0000;gradientColor=none;fontStyle=1" parent="1" vertex="1">
                    <mxGeometry x="177.99999999999997" y="713.75" width="20" height="20" as="geometry"/>
                </mxCell>
                <mxCell id="AKQwnDpZvUHBcNmQF-iE-62" value="*" style="ellipse;whiteSpace=wrap;html=1;aspect=fixed;strokeColor=#000000;fillColor=#FFFFFF;verticalAlign=top;fontColor=#333333;strokeWidth=2;fontStyle=1;fontSize=12;" parent="1" vertex="1">
                    <mxGeometry x="325.5" y="231.87" width="20" height="20" as="geometry"/>
                </mxCell>
                <mxCell id="AKQwnDpZvUHBcNmQF-iE-63" value="" style="shape=cube;whiteSpace=wrap;html=1;boundedLbl=1;backgroundOutline=1;darkOpacity=0.05;darkOpacity2=0.1;size=10;rotation=90;strokeWidth=2;fillColor=#0000FF;strokeColor=#33001A;fontSize=12;" parent="1" vertex="1">
                    <mxGeometry x="420" y="256.25" width="30" height="25" as="geometry"/>
                </mxCell>
                <mxCell id="AKQwnDpZvUHBcNmQF-iE-64" value="" style="shape=cube;whiteSpace=wrap;html=1;boundedLbl=1;backgroundOutline=1;darkOpacity=0.05;darkOpacity2=0.1;size=10;rotation=90;fillColor=#0000FF;strokeWidth=2;strokeColor=#33001A;fontSize=12;" parent="1" vertex="1">
                    <mxGeometry x="435" y="276.25" width="30" height="25" as="geometry"/>
                </mxCell>
                <mxCell id="AKQwnDpZvUHBcNmQF-iE-65" value="" style="shape=cube;whiteSpace=wrap;html=1;boundedLbl=1;backgroundOutline=1;darkOpacity=0.05;darkOpacity2=0.1;size=10;rotation=90;strokeWidth=2;fillColor=#00FF00;fontSize=12;" parent="1" vertex="1">
                    <mxGeometry x="410" y="266.25" width="30" height="25" as="geometry"/>
                </mxCell>
                <mxCell id="AKQwnDpZvUHBcNmQF-iE-66" value="" style="shape=cube;whiteSpace=wrap;html=1;boundedLbl=1;backgroundOutline=1;darkOpacity=0.05;darkOpacity2=0.1;size=10;rotation=90;fillColor=#0000FF;strokeWidth=2;strokeColor=#33001A;fontSize=12;" parent="1" vertex="1">
                    <mxGeometry x="435" y="256.25" width="30" height="25" as="geometry"/>
                </mxCell>
                <mxCell id="AKQwnDpZvUHBcNmQF-iE-67" value="" style="shape=cube;whiteSpace=wrap;html=1;boundedLbl=1;backgroundOutline=1;darkOpacity=0.05;darkOpacity2=0.1;size=10;rotation=90;fillColor=#00FF00;strokeWidth=2;fontSize=12;" parent="1" vertex="1">
                    <mxGeometry x="425" y="286.25" width="30" height="25" as="geometry"/>
                </mxCell>
                <mxCell id="AKQwnDpZvUHBcNmQF-iE-68" value="" style="shape=cube;whiteSpace=wrap;html=1;boundedLbl=1;backgroundOutline=1;darkOpacity=0.05;darkOpacity2=0.1;size=10;rotation=90;fillColor=#00FF00;strokeWidth=2;fontSize=12;" parent="1" vertex="1">
                    <mxGeometry x="425" y="266.25" width="30" height="25" as="geometry"/>
                </mxCell>
                <mxCell id="AKQwnDpZvUHBcNmQF-iE-69" value="10" style="shape=cube;whiteSpace=wrap;html=1;boundedLbl=1;backgroundOutline=1;darkOpacity=0.05;darkOpacity2=0.1;size=10;rotation=90;strokeWidth=2;fillColor=#FF0000;fontStyle=1;horizontal=0;fontSize=12;" parent="1" vertex="1">
                    <mxGeometry x="400" y="296.25" width="30" height="25" as="geometry"/>
                </mxCell>
                <mxCell id="AKQwnDpZvUHBcNmQF-iE-70" value="8" style="shape=cube;whiteSpace=wrap;html=1;boundedLbl=1;backgroundOutline=1;darkOpacity=0.05;darkOpacity2=0.1;size=10;rotation=90;strokeWidth=2;fillColor=#FF0000;fontStyle=1;horizontal=0;fontSize=12;" parent="1" vertex="1">
                    <mxGeometry x="400" y="276.25" width="30" height="25" as="geometry"/>
                </mxCell>
                <mxCell id="AKQwnDpZvUHBcNmQF-iE-71" value="11" style="shape=cube;whiteSpace=wrap;html=1;boundedLbl=1;backgroundOutline=1;darkOpacity=0.05;darkOpacity2=0.1;size=10;rotation=90;strokeWidth=2;fillColor=#FF0000;fontStyle=1;horizontal=0;fontSize=12;" parent="1" vertex="1">
                    <mxGeometry x="415" y="296.25" width="30" height="25" as="geometry"/>
                </mxCell>
                <mxCell id="AKQwnDpZvUHBcNmQF-iE-72" value="9" style="shape=cube;whiteSpace=wrap;html=1;boundedLbl=1;backgroundOutline=1;darkOpacity=0.05;darkOpacity2=0.1;size=10;rotation=90;strokeWidth=2;fillColor=#FF0000;fontStyle=1;horizontal=0;fontSize=12;" parent="1" vertex="1">
                    <mxGeometry x="415" y="276.25" width="30" height="25" as="geometry"/>
                </mxCell>
                <mxCell id="AKQwnDpZvUHBcNmQF-iE-73" value="F" style="text;html=1;strokeColor=none;fillColor=none;align=center;verticalAlign=middle;whiteSpace=wrap;rounded=0;fontStyle=1;fontSize=12;" parent="1" vertex="1">
                    <mxGeometry x="475" y="230" width="60" height="30" as="geometry"/>
                </mxCell>
                <mxCell id="AKQwnDpZvUHBcNmQF-iE-74" value="Conv2D" style="text;html=1;strokeColor=none;fillColor=none;align=center;verticalAlign=middle;whiteSpace=wrap;rounded=0;fontStyle=1;fontSize=12;" parent="1" vertex="1">
                    <mxGeometry x="305" y="254.37" width="60" height="30" as="geometry"/>
                </mxCell>
                <mxCell id="AKQwnDpZvUHBcNmQF-iE-75" value="" style="shape=curlyBracket;whiteSpace=wrap;html=1;rounded=1;flipH=1;strokeColor=#000000;strokeWidth=2;fillColor=#FFFFFF;rotation=-180;fontSize=12;" parent="1" vertex="1">
                    <mxGeometry x="140" y="211.25" width="20" height="75" as="geometry"/>
                </mxCell>
                <mxCell id="AKQwnDpZvUHBcNmQF-iE-76" value="n" style="text;html=1;strokeColor=none;fillColor=none;align=center;verticalAlign=middle;whiteSpace=wrap;rounded=0;fontStyle=1;fontSize=12;" parent="1" vertex="1">
                    <mxGeometry x="100" y="233.75" width="60" height="30" as="geometry"/>
                </mxCell>
                <mxCell id="AKQwnDpZvUHBcNmQF-iE-77" style="edgeStyle=none;rounded=1;orthogonalLoop=1;jettySize=auto;html=1;strokeWidth=2;fontSize=12;" parent="1" edge="1">
                    <mxGeometry relative="1" as="geometry">
                        <mxPoint x="221" y="520" as="targetPoint"/>
                        <mxPoint x="221.5" y="370" as="sourcePoint"/>
                        <Array as="points"/>
                    </mxGeometry>
                </mxCell>
                <mxCell id="AKQwnDpZvUHBcNmQF-iE-78" style="edgeStyle=none;rounded=1;orthogonalLoop=1;jettySize=auto;html=1;strokeWidth=2;fontSize=12;" parent="1" edge="1">
                    <mxGeometry relative="1" as="geometry">
                        <mxPoint x="421" y="520" as="targetPoint"/>
                        <mxPoint x="420.5" y="401" as="sourcePoint"/>
                        <Array as="points"/>
                    </mxGeometry>
                </mxCell>
                <mxCell id="AKQwnDpZvUHBcNmQF-iE-79" value="1" style="rounded=0;whiteSpace=wrap;html=1;fontSize=12;fontColor=#000000;strokeColor=#000000;strokeWidth=2;fillColor=#FF0000;gradientColor=none;fontStyle=1" parent="1" vertex="1">
                    <mxGeometry x="157.99999999999997" y="713.75" width="20" height="20" as="geometry"/>
                </mxCell>
                <mxCell id="AKQwnDpZvUHBcNmQF-iE-82" value="0" style="rounded=0;whiteSpace=wrap;html=1;fontSize=12;fontColor=#000000;strokeColor=#000000;strokeWidth=2;fillColor=#00FF00;gradientColor=none;fontStyle=1" parent="1" vertex="1">
                    <mxGeometry x="197.99999999999997" y="613.75" width="20" height="20" as="geometry"/>
                </mxCell>
                <mxCell id="AKQwnDpZvUHBcNmQF-iE-83" value="1" style="rounded=0;whiteSpace=wrap;html=1;fontSize=12;fontColor=#000000;strokeColor=#000000;strokeWidth=2;fillColor=#00FF00;gradientColor=none;fontStyle=1" parent="1" vertex="1">
                    <mxGeometry x="217.99999999999997" y="613.75" width="20" height="20" as="geometry"/>
                </mxCell>
                <mxCell id="AKQwnDpZvUHBcNmQF-iE-84" value="2" style="rounded=0;whiteSpace=wrap;html=1;fontSize=12;fontColor=#000000;strokeColor=#000000;strokeWidth=2;fillColor=#00FF00;gradientColor=none;fontStyle=1" parent="1" vertex="1">
                    <mxGeometry x="217.99999999999997" y="713.75" width="20" height="20" as="geometry"/>
                </mxCell>
                <mxCell id="AKQwnDpZvUHBcNmQF-iE-85" value="1" style="rounded=0;whiteSpace=wrap;html=1;fontSize=12;fontColor=#000000;strokeColor=#000000;strokeWidth=2;fillColor=#00FF00;gradientColor=none;fontStyle=1" parent="1" vertex="1">
                    <mxGeometry x="197.99999999999997" y="713.75" width="20" height="20" as="geometry"/>
                </mxCell>
                <mxCell id="AKQwnDpZvUHBcNmQF-iE-86" value="0" style="rounded=0;whiteSpace=wrap;html=1;fontSize=12;fontColor=#000000;strokeColor=#000000;strokeWidth=2;fillColor=#0000FF;gradientColor=none;fontStyle=1" parent="1" vertex="1">
                    <mxGeometry x="237.99999999999997" y="613.75" width="20" height="20" as="geometry"/>
                </mxCell>
                <mxCell id="AKQwnDpZvUHBcNmQF-iE-87" value="1" style="rounded=0;whiteSpace=wrap;html=1;fontSize=12;fontColor=#000000;strokeColor=#000000;strokeWidth=2;fillColor=#0000FF;gradientColor=none;fontStyle=1" parent="1" vertex="1">
                    <mxGeometry x="258" y="613.75" width="20" height="20" as="geometry"/>
                </mxCell>
                <mxCell id="AKQwnDpZvUHBcNmQF-iE-88" value="2" style="rounded=0;whiteSpace=wrap;html=1;fontSize=12;fontColor=#000000;strokeColor=#000000;strokeWidth=2;fillColor=#0000FF;gradientColor=none;fontStyle=1" parent="1" vertex="1">
                    <mxGeometry x="258" y="713.75" width="20" height="20" as="geometry"/>
                </mxCell>
                <mxCell id="AKQwnDpZvUHBcNmQF-iE-89" value="1" style="rounded=0;whiteSpace=wrap;html=1;fontSize=12;fontColor=#000000;strokeColor=#000000;strokeWidth=2;fillColor=#0000FF;gradientColor=none;fontStyle=1" parent="1" vertex="1">
                    <mxGeometry x="237.99999999999997" y="713.75" width="20" height="20" as="geometry"/>
                </mxCell>
                <mxCell id="AKQwnDpZvUHBcNmQF-iE-90" value="5" style="rounded=0;whiteSpace=wrap;html=1;fontSize=12;fontColor=#000000;strokeColor=#000000;strokeWidth=2;fillColor=#FF0000;gradientColor=none;fontStyle=1" parent="1" vertex="1">
                    <mxGeometry x="157.99999999999997" y="633.75" width="20" height="20" as="geometry"/>
                </mxCell>
                <mxCell id="AKQwnDpZvUHBcNmQF-iE-91" value="6" style="rounded=0;whiteSpace=wrap;html=1;fontSize=12;fontColor=#000000;strokeColor=#000000;strokeWidth=2;fillColor=#FF0000;gradientColor=none;fontStyle=1" parent="1" vertex="1">
                    <mxGeometry x="177.99999999999997" y="633.75" width="20" height="20" as="geometry"/>
                </mxCell>
                <mxCell id="AKQwnDpZvUHBcNmQF-iE-92" value="7" style="rounded=0;whiteSpace=wrap;html=1;fontSize=12;fontColor=#000000;strokeColor=#000000;strokeWidth=2;fillColor=#FF0000;gradientColor=none;fontStyle=1" parent="1" vertex="1">
                    <mxGeometry x="177.99999999999997" y="733.75" width="20" height="20" as="geometry"/>
                </mxCell>
                <mxCell id="AKQwnDpZvUHBcNmQF-iE-93" value="6" style="rounded=0;whiteSpace=wrap;html=1;fontSize=12;fontColor=#000000;strokeColor=#000000;strokeWidth=2;fillColor=#FF0000;gradientColor=none;fontStyle=1" parent="1" vertex="1">
                    <mxGeometry x="157.99999999999997" y="733.75" width="20" height="20" as="geometry"/>
                </mxCell>
                <mxCell id="AKQwnDpZvUHBcNmQF-iE-94" value="5" style="rounded=0;whiteSpace=wrap;html=1;fontSize=12;fontColor=#000000;strokeColor=#000000;strokeWidth=2;fillColor=#00FF00;gradientColor=none;fontStyle=1" parent="1" vertex="1">
                    <mxGeometry x="197.99999999999997" y="633.75" width="20" height="20" as="geometry"/>
                </mxCell>
                <mxCell id="AKQwnDpZvUHBcNmQF-iE-95" value="6" style="rounded=0;whiteSpace=wrap;html=1;fontSize=12;fontColor=#000000;strokeColor=#000000;strokeWidth=2;fillColor=#00FF00;gradientColor=none;fontStyle=1" parent="1" vertex="1">
                    <mxGeometry x="217.99999999999997" y="633.75" width="20" height="20" as="geometry"/>
                </mxCell>
                <mxCell id="AKQwnDpZvUHBcNmQF-iE-96" value="7" style="rounded=0;whiteSpace=wrap;html=1;fontSize=12;fontColor=#000000;strokeColor=#000000;strokeWidth=2;fillColor=#00FF00;gradientColor=none;fontStyle=1" parent="1" vertex="1">
                    <mxGeometry x="217.99999999999997" y="733.75" width="20" height="20" as="geometry"/>
                </mxCell>
                <mxCell id="AKQwnDpZvUHBcNmQF-iE-97" value="6" style="rounded=0;whiteSpace=wrap;html=1;fontSize=12;fontColor=#000000;strokeColor=#000000;strokeWidth=2;fillColor=#00FF00;gradientColor=none;fontStyle=1" parent="1" vertex="1">
                    <mxGeometry x="197.99999999999997" y="733.75" width="20" height="20" as="geometry"/>
                </mxCell>
                <mxCell id="AKQwnDpZvUHBcNmQF-iE-98" value="5" style="rounded=0;whiteSpace=wrap;html=1;fontSize=12;fontColor=#000000;strokeColor=#000000;strokeWidth=2;fillColor=#0000FF;gradientColor=none;fontStyle=1" parent="1" vertex="1">
                    <mxGeometry x="237.99999999999997" y="633.75" width="20" height="20" as="geometry"/>
                </mxCell>
                <mxCell id="AKQwnDpZvUHBcNmQF-iE-99" value="6" style="rounded=0;whiteSpace=wrap;html=1;fontSize=12;fontColor=#000000;strokeColor=#000000;strokeWidth=2;fillColor=#0000FF;gradientColor=none;fontStyle=1" parent="1" vertex="1">
                    <mxGeometry x="258" y="633.75" width="20" height="20" as="geometry"/>
                </mxCell>
                <mxCell id="AKQwnDpZvUHBcNmQF-iE-100" value="7" style="rounded=0;whiteSpace=wrap;html=1;fontSize=12;fontColor=#000000;strokeColor=#000000;strokeWidth=2;fillColor=#0000FF;gradientColor=none;fontStyle=1" parent="1" vertex="1">
                    <mxGeometry x="258" y="733.75" width="20" height="20" as="geometry"/>
                </mxCell>
                <mxCell id="AKQwnDpZvUHBcNmQF-iE-101" value="6" style="rounded=0;whiteSpace=wrap;html=1;fontSize=12;fontColor=#000000;strokeColor=#000000;strokeWidth=2;fillColor=#0000FF;gradientColor=none;fontStyle=1" parent="1" vertex="1">
                    <mxGeometry x="237.99999999999997" y="733.75" width="20" height="20" as="geometry"/>
                </mxCell>
                <mxCell id="AKQwnDpZvUHBcNmQF-iE-102" value="0" style="rounded=0;whiteSpace=wrap;html=1;fontSize=12;fontColor=#000000;strokeColor=#000000;strokeWidth=2;fillColor=#FF0000;gradientColor=none;fontStyle=1;rotation=90;horizontal=0;" parent="1" vertex="1">
                    <mxGeometry x="433" y="614.69" width="20" height="20" as="geometry"/>
                </mxCell>
                <mxCell id="AKQwnDpZvUHBcNmQF-iE-103" value="1" style="rounded=0;whiteSpace=wrap;html=1;fontSize=12;fontColor=#000000;strokeColor=#000000;strokeWidth=2;fillColor=#FF0000;gradientColor=none;fontStyle=1;rotation=90;horizontal=0;" parent="1" vertex="1">
                    <mxGeometry x="433" y="634.69" width="20" height="20" as="geometry"/>
                </mxCell>
                <mxCell id="AKQwnDpZvUHBcNmQF-iE-104" value="2" style="rounded=0;whiteSpace=wrap;html=1;fontSize=12;fontColor=#000000;strokeColor=#000000;strokeWidth=2;fillColor=#FF0000;gradientColor=none;fontStyle=1;rotation=90;horizontal=0;" parent="1" vertex="1">
                    <mxGeometry x="453" y="614.69" width="20" height="20" as="geometry"/>
                </mxCell>
                <mxCell id="AKQwnDpZvUHBcNmQF-iE-105" value="3" style="rounded=0;whiteSpace=wrap;html=1;fontSize=12;fontColor=#000000;strokeColor=#000000;strokeWidth=2;fillColor=#FF0000;gradientColor=none;fontStyle=1;rotation=90;horizontal=0;" parent="1" vertex="1">
                    <mxGeometry x="453" y="634.69" width="20" height="20" as="geometry"/>
                </mxCell>
                <mxCell id="AKQwnDpZvUHBcNmQF-iE-106" value="0" style="rounded=0;whiteSpace=wrap;html=1;fontSize=12;fontColor=#000000;strokeColor=#000000;strokeWidth=2;fillColor=#00FF00;gradientColor=none;fontStyle=1;rotation=90;horizontal=0;" parent="1" vertex="1">
                    <mxGeometry x="433" y="654.69" width="20" height="20" as="geometry"/>
                </mxCell>
                <mxCell id="AKQwnDpZvUHBcNmQF-iE-107" value="1" style="rounded=0;whiteSpace=wrap;html=1;fontSize=12;fontColor=#000000;strokeColor=#000000;strokeWidth=2;fillColor=#00FF00;gradientColor=none;fontStyle=1;rotation=90;horizontal=0;" parent="1" vertex="1">
                    <mxGeometry x="433" y="674.69" width="20" height="20" as="geometry"/>
                </mxCell>
                <mxCell id="AKQwnDpZvUHBcNmQF-iE-108" value="2" style="rounded=0;whiteSpace=wrap;html=1;fontSize=12;fontColor=#000000;strokeColor=#000000;strokeWidth=2;fillColor=#00FF00;gradientColor=none;fontStyle=1;rotation=90;horizontal=0;" parent="1" vertex="1">
                    <mxGeometry x="453" y="654.69" width="20" height="20" as="geometry"/>
                </mxCell>
                <mxCell id="AKQwnDpZvUHBcNmQF-iE-109" value="3" style="rounded=0;whiteSpace=wrap;html=1;fontSize=12;fontColor=#000000;strokeColor=#000000;strokeWidth=2;fillColor=#00FF00;gradientColor=none;fontStyle=1;rotation=90;horizontal=0;" parent="1" vertex="1">
                    <mxGeometry x="453" y="674.69" width="20" height="20" as="geometry"/>
                </mxCell>
                <mxCell id="AKQwnDpZvUHBcNmQF-iE-110" value="0" style="rounded=0;whiteSpace=wrap;html=1;fontSize=12;fontColor=#000000;strokeColor=#000000;strokeWidth=2;fillColor=#0000FF;gradientColor=none;fontStyle=1;rotation=90;horizontal=0;" parent="1" vertex="1">
                    <mxGeometry x="433" y="694.69" width="20" height="20" as="geometry"/>
                </mxCell>
                <mxCell id="AKQwnDpZvUHBcNmQF-iE-111" value="1" style="rounded=0;whiteSpace=wrap;html=1;fontSize=12;fontColor=#000000;strokeColor=#000000;strokeWidth=2;fillColor=#0000FF;gradientColor=none;fontStyle=1;rotation=90;horizontal=0;" parent="1" vertex="1">
                    <mxGeometry x="433" y="714.69" width="20" height="20" as="geometry"/>
                </mxCell>
                <mxCell id="AKQwnDpZvUHBcNmQF-iE-112" value="2" style="rounded=0;whiteSpace=wrap;html=1;fontSize=12;fontColor=#000000;strokeColor=#000000;strokeWidth=2;fillColor=#0000FF;gradientColor=none;fontStyle=1;rotation=90;horizontal=0;" parent="1" vertex="1">
                    <mxGeometry x="453" y="694.69" width="20" height="20" as="geometry"/>
                </mxCell>
                <mxCell id="AKQwnDpZvUHBcNmQF-iE-113" value="3" style="rounded=0;whiteSpace=wrap;html=1;fontSize=12;fontColor=#000000;strokeColor=#000000;strokeWidth=2;fillColor=#0000FF;gradientColor=none;fontStyle=1;rotation=90;horizontal=0;" parent="1" vertex="1">
                    <mxGeometry x="453" y="714.69" width="20" height="20" as="geometry"/>
                </mxCell>
                <mxCell id="AKQwnDpZvUHBcNmQF-iE-114" value="4" style="rounded=0;whiteSpace=wrap;html=1;fontSize=12;fontColor=#000000;strokeColor=#000000;strokeWidth=2;fillColor=#FF0000;gradientColor=none;fontStyle=1;rotation=90;horizontal=0;" parent="1" vertex="1">
                    <mxGeometry x="473" y="614.69" width="20" height="20" as="geometry"/>
                </mxCell>
                <mxCell id="AKQwnDpZvUHBcNmQF-iE-115" value="5" style="rounded=0;whiteSpace=wrap;html=1;fontSize=12;fontColor=#000000;strokeColor=#000000;strokeWidth=2;fillColor=#FF0000;gradientColor=none;fontStyle=1;rotation=90;horizontal=0;" parent="1" vertex="1">
                    <mxGeometry x="473" y="634.69" width="20" height="20" as="geometry"/>
                </mxCell>
                <mxCell id="AKQwnDpZvUHBcNmQF-iE-116" value="6" style="rounded=0;whiteSpace=wrap;html=1;fontSize=12;fontColor=#000000;strokeColor=#000000;strokeWidth=2;fillColor=#FF0000;gradientColor=none;fontStyle=1;rotation=90;horizontal=0;" parent="1" vertex="1">
                    <mxGeometry x="493" y="614.69" width="20" height="20" as="geometry"/>
                </mxCell>
                <mxCell id="AKQwnDpZvUHBcNmQF-iE-117" value="7" style="rounded=0;whiteSpace=wrap;html=1;fontSize=12;fontColor=#000000;strokeColor=#000000;strokeWidth=2;fillColor=#FF0000;gradientColor=none;fontStyle=1;rotation=90;horizontal=0;" parent="1" vertex="1">
                    <mxGeometry x="493" y="634.69" width="20" height="20" as="geometry"/>
                </mxCell>
                <mxCell id="AKQwnDpZvUHBcNmQF-iE-119" value="F1" style="text;html=1;strokeColor=none;fillColor=none;align=center;verticalAlign=middle;whiteSpace=wrap;rounded=0;fontStyle=1;fontSize=12;" parent="1" vertex="1">
                    <mxGeometry x="483.5" y="747.7500000000002" width="25.5" height="30" as="geometry"/>
                </mxCell>
                <mxCell id="AKQwnDpZvUHBcNmQF-iE-120" value="F2" style="text;html=1;strokeColor=none;fillColor=none;align=center;verticalAlign=middle;whiteSpace=wrap;rounded=0;fontStyle=1;fontSize=12;" parent="1" vertex="1">
                    <mxGeometry x="527" y="747.7500000000002" width="15.5" height="30" as="geometry"/>
                </mxCell>
                <mxCell id="AKQwnDpZvUHBcNmQF-iE-121" value="F3" style="text;html=1;strokeColor=none;fillColor=none;align=center;verticalAlign=middle;whiteSpace=wrap;rounded=0;fontStyle=1;fontSize=12;" parent="1" vertex="1">
                    <mxGeometry x="569.75" y="747.7500000000002" width="12.75" height="30" as="geometry"/>
                </mxCell>
                <mxCell id="AKQwnDpZvUHBcNmQF-iE-124" value="C0" style="text;html=1;strokeColor=none;fillColor=none;align=center;verticalAlign=middle;whiteSpace=wrap;rounded=0;fontStyle=1;fontSize=12;" parent="1" vertex="1">
                    <mxGeometry x="252.25" y="296.25" width="25.5" height="30" as="geometry"/>
                </mxCell>
                <mxCell id="AKQwnDpZvUHBcNmQF-iE-125" value="C1" style="text;html=1;strokeColor=none;fillColor=none;align=center;verticalAlign=middle;whiteSpace=wrap;rounded=0;fontStyle=1;fontSize=12;" parent="1" vertex="1">
                    <mxGeometry x="265" y="281.25" width="25.5" height="30" as="geometry"/>
                </mxCell>
                <mxCell id="AKQwnDpZvUHBcNmQF-iE-126" value="C2" style="text;html=1;strokeColor=none;fillColor=none;align=center;verticalAlign=middle;whiteSpace=wrap;rounded=0;fontStyle=1;fontSize=12;" parent="1" vertex="1">
                    <mxGeometry x="277.75" y="265.62" width="25.5" height="30" as="geometry"/>
                </mxCell>
                <mxCell id="AKQwnDpZvUHBcNmQF-iE-127" value="F0" style="text;html=1;strokeColor=none;fillColor=none;align=center;verticalAlign=middle;whiteSpace=wrap;rounded=0;fontStyle=1;fontSize=12;" parent="1" vertex="1">
                    <mxGeometry x="446.25" y="752.7500000000002" width="19" height="20" as="geometry"/>
                </mxCell>
                <mxCell id="AKQwnDpZvUHBcNmQF-iE-128" value="x" style="ellipse;whiteSpace=wrap;html=1;aspect=fixed;strokeColor=#000000;fillColor=#FFFFFF;verticalAlign=middle;fontColor=#333333;strokeWidth=2;fontStyle=1;fontSize=12;" parent="1" vertex="1">
                    <mxGeometry x="323" y="650.6299999999999" width="20" height="20" as="geometry"/>
                </mxCell>
                <mxCell id="AKQwnDpZvUHBcNmQF-iE-129" value="GEMM" style="text;html=1;strokeColor=none;fillColor=none;align=center;verticalAlign=middle;whiteSpace=wrap;rounded=0;fontStyle=1;strokeWidth=2;fontSize=12;" parent="1" vertex="1">
                    <mxGeometry x="303.5" y="670.6300000000001" width="60" height="30" as="geometry"/>
                </mxCell>
                <mxCell id="AKQwnDpZvUHBcNmQF-iE-130" value="4" style="rounded=0;whiteSpace=wrap;html=1;fontSize=12;fontColor=#000000;strokeColor=#000000;strokeWidth=2;fillColor=#00FF00;gradientColor=none;fontStyle=1;rotation=90;horizontal=0;" parent="1" vertex="1">
                    <mxGeometry x="473" y="654.69" width="20" height="20" as="geometry"/>
                </mxCell>
                <mxCell id="AKQwnDpZvUHBcNmQF-iE-131" value="5" style="rounded=0;whiteSpace=wrap;html=1;fontSize=12;fontColor=#000000;strokeColor=#000000;strokeWidth=2;fillColor=#00FF00;gradientColor=none;fontStyle=1;rotation=90;horizontal=0;" parent="1" vertex="1">
                    <mxGeometry x="473" y="674.69" width="20" height="20" as="geometry"/>
                </mxCell>
                <mxCell id="AKQwnDpZvUHBcNmQF-iE-132" value="6" style="rounded=0;whiteSpace=wrap;html=1;fontSize=12;fontColor=#000000;strokeColor=#000000;strokeWidth=2;fillColor=#00FF00;gradientColor=none;fontStyle=1;rotation=90;horizontal=0;" parent="1" vertex="1">
                    <mxGeometry x="493" y="654.69" width="20" height="20" as="geometry"/>
                </mxCell>
                <mxCell id="AKQwnDpZvUHBcNmQF-iE-133" value="7" style="rounded=0;whiteSpace=wrap;html=1;fontSize=12;fontColor=#000000;strokeColor=#000000;strokeWidth=2;fillColor=#00FF00;gradientColor=none;fontStyle=1;rotation=90;horizontal=0;" parent="1" vertex="1">
                    <mxGeometry x="493" y="674.69" width="20" height="20" as="geometry"/>
                </mxCell>
                <mxCell id="AKQwnDpZvUHBcNmQF-iE-134" value="4" style="rounded=0;whiteSpace=wrap;html=1;fontSize=12;fontColor=#000000;strokeColor=#000000;strokeWidth=2;fillColor=#0000FF;gradientColor=none;fontStyle=1;rotation=90;horizontal=0;" parent="1" vertex="1">
                    <mxGeometry x="473" y="694.69" width="20" height="20" as="geometry"/>
                </mxCell>
                <mxCell id="AKQwnDpZvUHBcNmQF-iE-135" value="5" style="rounded=0;whiteSpace=wrap;html=1;fontSize=12;fontColor=#000000;strokeColor=#000000;strokeWidth=2;fillColor=#0000FF;gradientColor=none;fontStyle=1;rotation=90;horizontal=0;" parent="1" vertex="1">
                    <mxGeometry x="473" y="714.69" width="20" height="20" as="geometry"/>
                </mxCell>
                <mxCell id="AKQwnDpZvUHBcNmQF-iE-136" value="6" style="rounded=0;whiteSpace=wrap;html=1;fontSize=12;fontColor=#000000;strokeColor=#000000;strokeWidth=2;fillColor=#0000FF;gradientColor=none;fontStyle=1;rotation=90;horizontal=0;" parent="1" vertex="1">
                    <mxGeometry x="493" y="694.69" width="20" height="20" as="geometry"/>
                </mxCell>
                <mxCell id="AKQwnDpZvUHBcNmQF-iE-137" value="7" style="rounded=0;whiteSpace=wrap;html=1;fontSize=12;fontColor=#000000;strokeColor=#000000;strokeWidth=2;fillColor=#0000FF;gradientColor=none;fontStyle=1;rotation=90;horizontal=0;" parent="1" vertex="1">
                    <mxGeometry x="493" y="714.69" width="20" height="20" as="geometry"/>
                </mxCell>
                <mxCell id="AKQwnDpZvUHBcNmQF-iE-138" value="8" style="rounded=0;whiteSpace=wrap;html=1;fontSize=12;fontColor=#000000;strokeColor=#000000;strokeWidth=2;fillColor=#FF0000;gradientColor=none;fontStyle=1;rotation=90;horizontal=0;" parent="1" vertex="1">
                    <mxGeometry x="513" y="614.69" width="20" height="20" as="geometry"/>
                </mxCell>
                <mxCell id="AKQwnDpZvUHBcNmQF-iE-139" value="9" style="rounded=0;whiteSpace=wrap;html=1;fontSize=12;fontColor=#000000;strokeColor=#000000;strokeWidth=2;fillColor=#FF0000;gradientColor=none;fontStyle=1;rotation=90;horizontal=0;" parent="1" vertex="1">
                    <mxGeometry x="513" y="634.69" width="20" height="20" as="geometry"/>
                </mxCell>
                <mxCell id="AKQwnDpZvUHBcNmQF-iE-140" value="10" style="rounded=0;whiteSpace=wrap;html=1;fontSize=12;fontColor=#000000;strokeColor=#000000;strokeWidth=2;fillColor=#FF0000;gradientColor=none;fontStyle=1;rotation=90;horizontal=0;" parent="1" vertex="1">
                    <mxGeometry x="533" y="614.69" width="20" height="20" as="geometry"/>
                </mxCell>
                <mxCell id="AKQwnDpZvUHBcNmQF-iE-141" value="11" style="rounded=0;whiteSpace=wrap;html=1;fontSize=12;fontColor=#000000;strokeColor=#000000;strokeWidth=2;fillColor=#FF0000;gradientColor=none;fontStyle=1;rotation=90;horizontal=0;" parent="1" vertex="1">
                    <mxGeometry x="533" y="634.69" width="20" height="20" as="geometry"/>
                </mxCell>
                <mxCell id="AKQwnDpZvUHBcNmQF-iE-142" value="12" style="rounded=0;whiteSpace=wrap;html=1;fontSize=12;fontColor=#000000;strokeColor=#000000;strokeWidth=2;fillColor=#FF0000;gradientColor=none;fontStyle=1;rotation=90;horizontal=0;" parent="1" vertex="1">
                    <mxGeometry x="553" y="614.69" width="20" height="20" as="geometry"/>
                </mxCell>
                <mxCell id="AKQwnDpZvUHBcNmQF-iE-143" value="13" style="rounded=0;whiteSpace=wrap;html=1;fontSize=12;fontColor=#000000;strokeColor=#000000;strokeWidth=2;fillColor=#FF0000;gradientColor=none;fontStyle=1;rotation=90;horizontal=0;" parent="1" vertex="1">
                    <mxGeometry x="553" y="634.69" width="20" height="20" as="geometry"/>
                </mxCell>
                <mxCell id="AKQwnDpZvUHBcNmQF-iE-145" value="14" style="rounded=0;whiteSpace=wrap;html=1;fontSize=12;fontColor=#000000;strokeColor=#000000;strokeWidth=2;fillColor=#FF0000;gradientColor=none;fontStyle=1;rotation=90;horizontal=0;" parent="1" vertex="1">
                    <mxGeometry x="573" y="614.69" width="20" height="20" as="geometry"/>
                </mxCell>
                <mxCell id="AKQwnDpZvUHBcNmQF-iE-146" value="15" style="rounded=0;whiteSpace=wrap;html=1;fontSize=12;fontColor=#000000;strokeColor=#000000;strokeWidth=2;fillColor=#FF0000;gradientColor=none;fontStyle=1;rotation=90;horizontal=0;" parent="1" vertex="1">
                    <mxGeometry x="573" y="634.69" width="20" height="20" as="geometry"/>
                </mxCell>
                <mxCell id="AKQwnDpZvUHBcNmQF-iE-147" value="8" style="rounded=0;whiteSpace=wrap;html=1;fontSize=12;fontColor=#000000;strokeColor=#000000;strokeWidth=2;fillColor=#00FF00;gradientColor=none;fontStyle=1;rotation=90;horizontal=0;" parent="1" vertex="1">
                    <mxGeometry x="513" y="654.69" width="20" height="20" as="geometry"/>
                </mxCell>
                <mxCell id="AKQwnDpZvUHBcNmQF-iE-148" value="9" style="rounded=0;whiteSpace=wrap;html=1;fontSize=12;fontColor=#000000;strokeColor=#000000;strokeWidth=2;fillColor=#00FF00;gradientColor=none;fontStyle=1;rotation=90;horizontal=0;" parent="1" vertex="1">
                    <mxGeometry x="513" y="674.69" width="20" height="20" as="geometry"/>
                </mxCell>
                <mxCell id="AKQwnDpZvUHBcNmQF-iE-149" value="10" style="rounded=0;whiteSpace=wrap;html=1;fontSize=12;fontColor=#000000;strokeColor=#000000;strokeWidth=2;fillColor=#00FF00;gradientColor=none;fontStyle=1;rotation=90;horizontal=0;" parent="1" vertex="1">
                    <mxGeometry x="533" y="654.69" width="20" height="20" as="geometry"/>
                </mxCell>
                <mxCell id="AKQwnDpZvUHBcNmQF-iE-150" value="11" style="rounded=0;whiteSpace=wrap;html=1;fontSize=12;fontColor=#000000;strokeColor=#000000;strokeWidth=2;fillColor=#00FF00;gradientColor=none;fontStyle=1;rotation=90;horizontal=0;" parent="1" vertex="1">
                    <mxGeometry x="533" y="674.69" width="20" height="20" as="geometry"/>
                </mxCell>
                <mxCell id="AKQwnDpZvUHBcNmQF-iE-151" value="12" style="rounded=0;whiteSpace=wrap;html=1;fontSize=12;fontColor=#000000;strokeColor=#000000;strokeWidth=2;fillColor=#00FF00;gradientColor=none;fontStyle=1;rotation=90;horizontal=0;" parent="1" vertex="1">
                    <mxGeometry x="553" y="654.69" width="20" height="20" as="geometry"/>
                </mxCell>
                <mxCell id="AKQwnDpZvUHBcNmQF-iE-152" value="13" style="rounded=0;whiteSpace=wrap;html=1;fontSize=12;fontColor=#000000;strokeColor=#000000;strokeWidth=2;fillColor=#00FF00;gradientColor=none;fontStyle=1;rotation=90;horizontal=0;" parent="1" vertex="1">
                    <mxGeometry x="553" y="674.69" width="20" height="20" as="geometry"/>
                </mxCell>
                <mxCell id="AKQwnDpZvUHBcNmQF-iE-153" value="14" style="rounded=0;whiteSpace=wrap;html=1;fontSize=12;fontColor=#000000;strokeColor=#000000;strokeWidth=2;fillColor=#00FF00;gradientColor=none;fontStyle=1;rotation=90;horizontal=0;" parent="1" vertex="1">
                    <mxGeometry x="573" y="654.69" width="20" height="20" as="geometry"/>
                </mxCell>
                <mxCell id="AKQwnDpZvUHBcNmQF-iE-154" value="15" style="rounded=0;whiteSpace=wrap;html=1;fontSize=12;fontColor=#000000;strokeColor=#000000;strokeWidth=2;fillColor=#00FF00;gradientColor=none;fontStyle=1;rotation=90;horizontal=0;" parent="1" vertex="1">
                    <mxGeometry x="573" y="674.69" width="20" height="20" as="geometry"/>
                </mxCell>
                <mxCell id="AKQwnDpZvUHBcNmQF-iE-155" value="8" style="rounded=0;whiteSpace=wrap;html=1;fontSize=12;fontColor=#000000;strokeColor=#000000;strokeWidth=2;fillColor=#0000FF;gradientColor=none;fontStyle=1;rotation=90;horizontal=0;" parent="1" vertex="1">
                    <mxGeometry x="513" y="694.69" width="20" height="20" as="geometry"/>
                </mxCell>
                <mxCell id="AKQwnDpZvUHBcNmQF-iE-156" value="9" style="rounded=0;whiteSpace=wrap;html=1;fontSize=12;fontColor=#000000;strokeColor=#000000;strokeWidth=2;fillColor=#0000FF;gradientColor=none;fontStyle=1;rotation=90;horizontal=0;" parent="1" vertex="1">
                    <mxGeometry x="513" y="714.69" width="20" height="20" as="geometry"/>
                </mxCell>
                <mxCell id="AKQwnDpZvUHBcNmQF-iE-157" value="10" style="rounded=0;whiteSpace=wrap;html=1;fontSize=12;fontColor=#000000;strokeColor=#000000;strokeWidth=2;fillColor=#0000FF;gradientColor=none;fontStyle=1;rotation=90;horizontal=0;" parent="1" vertex="1">
                    <mxGeometry x="533" y="694.69" width="20" height="20" as="geometry"/>
                </mxCell>
                <mxCell id="AKQwnDpZvUHBcNmQF-iE-158" value="11" style="rounded=0;whiteSpace=wrap;html=1;fontSize=12;fontColor=#000000;strokeColor=#000000;strokeWidth=2;fillColor=#0000FF;gradientColor=none;fontStyle=1;rotation=90;horizontal=0;" parent="1" vertex="1">
                    <mxGeometry x="533" y="714.69" width="20" height="20" as="geometry"/>
                </mxCell>
                <mxCell id="AKQwnDpZvUHBcNmQF-iE-159" value="12" style="rounded=0;whiteSpace=wrap;html=1;fontSize=12;fontColor=#000000;strokeColor=#000000;strokeWidth=2;fillColor=#0000FF;gradientColor=none;fontStyle=1;rotation=90;horizontal=0;" parent="1" vertex="1">
                    <mxGeometry x="553" y="694.69" width="20" height="20" as="geometry"/>
                </mxCell>
                <mxCell id="AKQwnDpZvUHBcNmQF-iE-160" value="13" style="rounded=0;whiteSpace=wrap;html=1;fontSize=12;fontColor=#000000;strokeColor=#000000;strokeWidth=2;fillColor=#0000FF;gradientColor=none;fontStyle=1;rotation=90;horizontal=0;" parent="1" vertex="1">
                    <mxGeometry x="553" y="714.69" width="20" height="20" as="geometry"/>
                </mxCell>
                <mxCell id="AKQwnDpZvUHBcNmQF-iE-161" value="14" style="rounded=0;whiteSpace=wrap;html=1;fontSize=12;fontColor=#000000;strokeColor=#000000;strokeWidth=2;fillColor=#0000FF;gradientColor=none;fontStyle=1;rotation=90;horizontal=0;" parent="1" vertex="1">
                    <mxGeometry x="573" y="694.69" width="20" height="20" as="geometry"/>
                </mxCell>
                <mxCell id="AKQwnDpZvUHBcNmQF-iE-162" value="15" style="rounded=0;whiteSpace=wrap;html=1;fontSize=12;fontColor=#000000;strokeColor=#000000;strokeWidth=2;fillColor=#0000FF;gradientColor=none;fontStyle=1;rotation=90;horizontal=0;" parent="1" vertex="1">
                    <mxGeometry x="573" y="714.69" width="20" height="20" as="geometry"/>
                </mxCell>
                <mxCell id="AKQwnDpZvUHBcNmQF-iE-163" value="Balanced Lowering" style="text;html=1;strokeColor=none;fillColor=none;align=center;verticalAlign=middle;whiteSpace=wrap;rounded=0;fontStyle=1;fontSize=12;" parent="1" vertex="1">
                    <mxGeometry x="145" y="430.62" width="60" height="30" as="geometry"/>
                </mxCell>
                <mxCell id="AKQwnDpZvUHBcNmQF-iE-164" value="Balanced Lowering" style="text;html=1;strokeColor=none;fillColor=none;align=center;verticalAlign=middle;whiteSpace=wrap;rounded=0;fontStyle=1;fontSize=12;" parent="1" vertex="1">
                    <mxGeometry x="350" y="430.62" width="60" height="30" as="geometry"/>
                </mxCell>
                <mxCell id="AKQwnDpZvUHBcNmQF-iE-165" style="edgeStyle=none;rounded=0;orthogonalLoop=1;jettySize=auto;html=1;exitX=0;exitY=0;exitDx=0;exitDy=0;strokeWidth=2;fontSize=12;" parent="1" source="AKQwnDpZvUHBcNmQF-iE-166" edge="1">
                    <mxGeometry relative="1" as="geometry">
                        <mxPoint x="758.5" y="529.69" as="targetPoint"/>
                    </mxGeometry>
                </mxCell>
                <mxCell id="AKQwnDpZvUHBcNmQF-iE-166" value="4" style="rounded=0;whiteSpace=wrap;html=1;fontSize=12;strokeWidth=2;fontStyle=1;rotation=90;horizontal=0;noLabel=1;fillColor=#7EA6E0;" parent="1" vertex="1">
                    <mxGeometry x="772.5" y="601.8800000000001" width="20" height="20" as="geometry"/>
                </mxCell>
                <mxCell id="AKQwnDpZvUHBcNmQF-iE-167" value="5" style="rounded=0;whiteSpace=wrap;html=1;fontSize=12;strokeWidth=2;fontStyle=1;rotation=90;horizontal=0;noLabel=1;fillColor=#7EA6E0;" parent="1" vertex="1">
                    <mxGeometry x="772.5" y="621.8800000000001" width="20" height="20" as="geometry"/>
                </mxCell>
                <mxCell id="AKQwnDpZvUHBcNmQF-iE-168" value="6" style="rounded=0;whiteSpace=wrap;html=1;fontSize=12;fontColor=none;strokeColor=#000000;strokeWidth=2;fillColor=#7EA6E0;gradientColor=none;fontStyle=1;rotation=90;horizontal=0;noLabel=1;" parent="1" vertex="1">
                    <mxGeometry x="772.5" y="641.8800000000001" width="20" height="20" as="geometry"/>
                </mxCell>
                <mxCell id="AKQwnDpZvUHBcNmQF-iE-169" value="7" style="rounded=0;whiteSpace=wrap;html=1;fontSize=12;fontColor=none;strokeColor=#000000;strokeWidth=2;fillColor=#7EA6E0;gradientColor=none;fontStyle=1;rotation=90;horizontal=0;noLabel=1;" parent="1" vertex="1">
                    <mxGeometry x="772.5" y="661.8800000000001" width="20" height="20" as="geometry"/>
                </mxCell>
                <mxCell id="AKQwnDpZvUHBcNmQF-iE-170" value="4" style="rounded=0;whiteSpace=wrap;html=1;fontSize=12;fontColor=none;strokeColor=#000000;strokeWidth=2;fillColor=none;gradientColor=none;fontStyle=1;rotation=90;horizontal=0;noLabel=1;" parent="1" vertex="1">
                    <mxGeometry x="772.5" y="681.8800000000001" width="20" height="20" as="geometry"/>
                </mxCell>
                <mxCell id="AKQwnDpZvUHBcNmQF-iE-171" value="5" style="rounded=0;whiteSpace=wrap;html=1;fontSize=12;fontColor=none;strokeColor=#000000;strokeWidth=2;fillColor=#7EA6E0;gradientColor=none;fontStyle=1;rotation=90;horizontal=0;noLabel=1;" parent="1" vertex="1">
                    <mxGeometry x="772.5" y="701.8800000000001" width="20" height="20" as="geometry"/>
                </mxCell>
                <mxCell id="AKQwnDpZvUHBcNmQF-iE-172" value="6" style="rounded=0;whiteSpace=wrap;html=1;fontSize=12;fontColor=none;strokeColor=#000000;strokeWidth=2;fillColor=#7EA6E0;gradientColor=none;fontStyle=1;rotation=90;horizontal=0;noLabel=1;" parent="1" vertex="1">
                    <mxGeometry x="772.5" y="721.8800000000001" width="20" height="20" as="geometry"/>
                </mxCell>
                <mxCell id="AKQwnDpZvUHBcNmQF-iE-173" value="7" style="rounded=0;whiteSpace=wrap;html=1;fontSize=12;fontColor=none;strokeColor=#000000;strokeWidth=2;fillColor=#7EA6E0;gradientColor=none;fontStyle=1;rotation=90;horizontal=0;noLabel=1;" parent="1" vertex="1">
                    <mxGeometry x="772.5" y="741.8800000000001" width="20" height="20" as="geometry"/>
                </mxCell>
                <mxCell id="AKQwnDpZvUHBcNmQF-iE-174" value="9" style="rounded=0;whiteSpace=wrap;html=1;fontSize=12;strokeWidth=2;fontStyle=1;rotation=90;horizontal=0;noLabel=1;fillColor=#FF3399;" parent="1" vertex="1">
                    <mxGeometry x="832.5" y="621.8800000000001" width="20" height="20" as="geometry"/>
                </mxCell>
                <mxCell id="AKQwnDpZvUHBcNmQF-iE-175" value="10" style="rounded=0;whiteSpace=wrap;html=1;fontSize=12;strokeWidth=2;fontStyle=1;rotation=90;horizontal=0;noLabel=1;fillColor=#FF3399;" parent="1" vertex="1">
                    <mxGeometry x="832.5" y="641.8800000000001" width="20" height="20" as="geometry"/>
                </mxCell>
                <mxCell id="AKQwnDpZvUHBcNmQF-iE-176" value="11" style="rounded=0;whiteSpace=wrap;html=1;fontSize=12;strokeWidth=2;fontStyle=1;rotation=90;horizontal=0;noLabel=1;fillColor=#FF3399;" parent="1" vertex="1">
                    <mxGeometry x="832.5" y="661.8800000000001" width="20" height="20" as="geometry"/>
                </mxCell>
                <mxCell id="AKQwnDpZvUHBcNmQF-iE-177" value="12" style="rounded=0;whiteSpace=wrap;html=1;fontSize=12;strokeWidth=2;fontStyle=1;rotation=90;horizontal=0;noLabel=1;fillColor=#D5E8D4;" parent="1" vertex="1">
                    <mxGeometry x="852.5" y="602.5" width="20" height="20" as="geometry"/>
                </mxCell>
                <mxCell id="AKQwnDpZvUHBcNmQF-iE-178" value="13" style="rounded=0;whiteSpace=wrap;html=1;fontSize=12;strokeWidth=2;fontStyle=1;rotation=90;horizontal=0;noLabel=1;fillColor=#D5E8D4;" parent="1" vertex="1">
                    <mxGeometry x="852.5" y="621.8800000000001" width="20" height="20" as="geometry"/>
                </mxCell>
                <mxCell id="AKQwnDpZvUHBcNmQF-iE-179" value="14" style="rounded=0;whiteSpace=wrap;html=1;fontSize=12;strokeWidth=2;fontStyle=1;rotation=90;horizontal=0;noLabel=1;fillColor=#D5E8D4;" parent="1" vertex="1">
                    <mxGeometry x="852.5" y="641.8800000000001" width="20" height="20" as="geometry"/>
                </mxCell>
                <mxCell id="AKQwnDpZvUHBcNmQF-iE-180" value="15" style="rounded=0;whiteSpace=wrap;html=1;fontSize=12;strokeWidth=2;fontStyle=1;rotation=90;horizontal=0;noLabel=1;fillColor=#D5E8D4;" parent="1" vertex="1">
                    <mxGeometry x="852.5" y="661.8800000000001" width="20" height="20" as="geometry"/>
                </mxCell>
                <mxCell id="AKQwnDpZvUHBcNmQF-iE-181" value="8" style="rounded=0;whiteSpace=wrap;html=1;fontSize=12;strokeWidth=2;fontStyle=1;rotation=90;horizontal=0;noLabel=1;fillColor=#FF3399;" parent="1" vertex="1">
                    <mxGeometry x="832.5" y="681.8800000000001" width="20" height="20" as="geometry"/>
                </mxCell>
                <mxCell id="AKQwnDpZvUHBcNmQF-iE-182" value="10" style="rounded=0;whiteSpace=wrap;html=1;fontSize=12;fontColor=none;strokeColor=#000000;strokeWidth=2;fillColor=#FF3399;gradientColor=none;fontStyle=1;rotation=90;horizontal=0;noLabel=1;" parent="1" vertex="1">
                    <mxGeometry x="832.5" y="721.8800000000001" width="20" height="20" as="geometry"/>
                </mxCell>
                <mxCell id="AKQwnDpZvUHBcNmQF-iE-183" value="11" style="rounded=0;whiteSpace=wrap;html=1;fontSize=12;fontColor=none;strokeColor=#000000;strokeWidth=2;fillColor=#FF3399;gradientColor=none;fontStyle=1;rotation=90;horizontal=0;noLabel=1;" parent="1" vertex="1">
                    <mxGeometry x="832.5" y="741.8800000000001" width="20" height="20" as="geometry"/>
                </mxCell>
                <mxCell id="AKQwnDpZvUHBcNmQF-iE-184" value="12" style="rounded=0;whiteSpace=wrap;html=1;fontSize=12;strokeWidth=2;fontStyle=1;rotation=90;horizontal=0;noLabel=1;fillColor=none;" parent="1" vertex="1">
                    <mxGeometry x="852.5" y="681.8800000000001" width="20" height="20" as="geometry"/>
                </mxCell>
                <mxCell id="AKQwnDpZvUHBcNmQF-iE-185" value="13" style="rounded=0;whiteSpace=wrap;html=1;fontSize=12;strokeWidth=2;fontStyle=1;rotation=90;horizontal=0;noLabel=1;fillColor=#D5E8D4;" parent="1" vertex="1">
                    <mxGeometry x="852.5" y="701.8800000000001" width="20" height="20" as="geometry"/>
                </mxCell>
                <mxCell id="AKQwnDpZvUHBcNmQF-iE-186" value="14" style="rounded=0;whiteSpace=wrap;html=1;fontSize=12;fontColor=none;strokeColor=#000000;strokeWidth=2;fillColor=#D5E8D4;gradientColor=none;fontStyle=1;rotation=90;horizontal=0;noLabel=1;" parent="1" vertex="1">
                    <mxGeometry x="852.5" y="721.8800000000001" width="20" height="20" as="geometry"/>
                </mxCell>
                <mxCell id="AKQwnDpZvUHBcNmQF-iE-187" value="15" style="rounded=0;whiteSpace=wrap;html=1;fontSize=12;fontColor=none;strokeColor=#000000;strokeWidth=2;fillColor=#D5E8D4;gradientColor=none;fontStyle=1;rotation=90;horizontal=0;noLabel=1;" parent="1" vertex="1">
                    <mxGeometry x="852.5" y="741.8800000000001" width="20" height="20" as="geometry"/>
                </mxCell>
                <mxCell id="AKQwnDpZvUHBcNmQF-iE-188" value="5" style="rounded=0;whiteSpace=wrap;html=1;fontSize=12;strokeWidth=2;fontStyle=1;rotation=90;horizontal=0;noLabel=1;fillColor=#7EA6E0;" parent="1" vertex="1">
                    <mxGeometry x="792.5" y="621.8800000000001" width="20" height="20" as="geometry"/>
                </mxCell>
                <mxCell id="AKQwnDpZvUHBcNmQF-iE-189" value="6" style="rounded=0;whiteSpace=wrap;html=1;fontSize=12;strokeWidth=2;fontStyle=1;rotation=90;horizontal=0;noLabel=1;fillColor=#7EA6E0;" parent="1" vertex="1">
                    <mxGeometry x="792.5" y="641.8800000000001" width="20" height="20" as="geometry"/>
                </mxCell>
                <mxCell id="AKQwnDpZvUHBcNmQF-iE-190" value="7" style="rounded=0;whiteSpace=wrap;html=1;fontSize=12;fontColor=none;strokeColor=#000000;strokeWidth=2;fillColor=#7EA6E0;gradientColor=none;fontStyle=1;rotation=90;horizontal=0;noLabel=1;" parent="1" vertex="1">
                    <mxGeometry x="792.5" y="661.8800000000001" width="20" height="20" as="geometry"/>
                </mxCell>
                <mxCell id="AKQwnDpZvUHBcNmQF-iE-191" value="4" style="rounded=0;whiteSpace=wrap;html=1;fontSize=12;fontColor=none;strokeColor=#000000;strokeWidth=2;fillColor=#7EA6E0;gradientColor=none;fontStyle=1;rotation=90;horizontal=0;noLabel=1;" parent="1" vertex="1">
                    <mxGeometry x="792.5" y="681.8800000000001" width="20" height="20" as="geometry"/>
                </mxCell>
                <mxCell id="AKQwnDpZvUHBcNmQF-iE-192" value="6" style="rounded=0;whiteSpace=wrap;html=1;fontSize=12;fontColor=none;strokeColor=#000000;strokeWidth=2;fillColor=#7EA6E0;gradientColor=none;fontStyle=1;rotation=90;horizontal=0;noLabel=1;" parent="1" vertex="1">
                    <mxGeometry x="792.5" y="721.8800000000001" width="20" height="20" as="geometry"/>
                </mxCell>
                <mxCell id="AKQwnDpZvUHBcNmQF-iE-193" value="7" style="rounded=0;whiteSpace=wrap;html=1;fontSize=12;fontColor=none;strokeColor=#000000;strokeWidth=2;fillColor=#7EA6E0;gradientColor=none;fontStyle=1;rotation=90;horizontal=0;noLabel=1;" parent="1" vertex="1">
                    <mxGeometry x="792.5" y="741.8800000000001" width="20" height="20" as="geometry"/>
                </mxCell>
                <mxCell id="AKQwnDpZvUHBcNmQF-iE-194" style="edgeStyle=none;rounded=0;orthogonalLoop=1;jettySize=auto;html=1;exitX=0;exitY=1;exitDx=0;exitDy=0;strokeWidth=2;fontSize=12;" parent="1" source="AKQwnDpZvUHBcNmQF-iE-195" edge="1">
                    <mxGeometry relative="1" as="geometry">
                        <mxPoint x="868.5" y="529.69" as="targetPoint"/>
                    </mxGeometry>
                </mxCell>
                <mxCell id="AKQwnDpZvUHBcNmQF-iE-195" value="8" style="rounded=0;whiteSpace=wrap;html=1;fontSize=12;strokeWidth=2;fontStyle=1;rotation=90;horizontal=0;noLabel=1;fillColor=#FF3399;direction=south;" parent="1" vertex="1">
                    <mxGeometry x="812.5" y="601.8800000000001" width="20" height="20" as="geometry"/>
                </mxCell>
                <mxCell id="AKQwnDpZvUHBcNmQF-iE-196" value="9" style="rounded=0;whiteSpace=wrap;html=1;fontSize=12;strokeWidth=2;fontStyle=1;rotation=90;horizontal=0;noLabel=1;fillColor=#FF3399;" parent="1" vertex="1">
                    <mxGeometry x="812.5" y="621.8800000000001" width="20" height="20" as="geometry"/>
                </mxCell>
                <mxCell id="AKQwnDpZvUHBcNmQF-iE-197" value="10" style="rounded=0;whiteSpace=wrap;html=1;fontSize=12;strokeWidth=2;fontStyle=1;rotation=90;horizontal=0;noLabel=1;fillColor=#FF3399;" parent="1" vertex="1">
                    <mxGeometry x="812.5" y="641.8800000000001" width="20" height="20" as="geometry"/>
                </mxCell>
                <mxCell id="AKQwnDpZvUHBcNmQF-iE-198" value="11" style="rounded=0;whiteSpace=wrap;html=1;fontSize=12;strokeWidth=2;fontStyle=1;rotation=90;horizontal=0;noLabel=1;fillColor=#FF3399;" parent="1" vertex="1">
                    <mxGeometry x="812.5" y="661.8800000000001" width="20" height="20" as="geometry"/>
                </mxCell>
                <mxCell id="AKQwnDpZvUHBcNmQF-iE-199" value="8" style="rounded=0;whiteSpace=wrap;html=1;fontSize=12;fontColor=none;strokeColor=#000000;strokeWidth=2;fillColor=none;gradientColor=none;fontStyle=1;rotation=90;horizontal=0;noLabel=1;" parent="1" vertex="1">
                    <mxGeometry x="812.5" y="681.8800000000001" width="20" height="20" as="geometry"/>
                </mxCell>
                <mxCell id="AKQwnDpZvUHBcNmQF-iE-200" value="9" style="rounded=0;whiteSpace=wrap;html=1;fontSize=12;fontColor=none;strokeColor=#000000;strokeWidth=2;fillColor=#FF3399;gradientColor=none;fontStyle=1;rotation=90;horizontal=0;noLabel=1;" parent="1" vertex="1">
                    <mxGeometry x="812.5" y="701.8800000000001" width="20" height="20" as="geometry"/>
                </mxCell>
                <mxCell id="AKQwnDpZvUHBcNmQF-iE-201" value="10" style="rounded=0;whiteSpace=wrap;html=1;fontSize=12;fontColor=none;strokeColor=#000000;strokeWidth=2;fillColor=#FF3399;gradientColor=none;fontStyle=1;rotation=90;horizontal=0;noLabel=1;" parent="1" vertex="1">
                    <mxGeometry x="812.5" y="721.8800000000001" width="20" height="20" as="geometry"/>
                </mxCell>
                <mxCell id="AKQwnDpZvUHBcNmQF-iE-202" value="11" style="rounded=0;whiteSpace=wrap;html=1;fontSize=12;fontColor=none;strokeColor=#000000;strokeWidth=2;fillColor=#FF3399;gradientColor=none;fontStyle=1;rotation=90;horizontal=0;noLabel=1;" parent="1" vertex="1">
                    <mxGeometry x="812.5" y="741.8800000000001" width="20" height="20" as="geometry"/>
                </mxCell>
                <mxCell id="AKQwnDpZvUHBcNmQF-iE-203" style="edgeStyle=none;rounded=0;orthogonalLoop=1;jettySize=auto;html=1;exitX=0;exitY=1;exitDx=0;exitDy=0;strokeWidth=2;fontSize=12;" parent="1" edge="1">
                    <mxGeometry relative="1" as="geometry">
                        <mxPoint x="978.5" y="529.69" as="targetPoint"/>
                        <mxPoint x="872.5" y="601.8800000000001" as="sourcePoint"/>
                    </mxGeometry>
                </mxCell>
                <mxCell id="AKQwnDpZvUHBcNmQF-iE-204" value="13" style="rounded=0;whiteSpace=wrap;html=1;fontSize=12;strokeWidth=2;fontStyle=1;rotation=90;horizontal=0;noLabel=1;fillColor=#D5E8D4;" parent="1" vertex="1">
                    <mxGeometry x="872.5" y="621.8800000000001" width="20" height="20" as="geometry"/>
                </mxCell>
                <mxCell id="AKQwnDpZvUHBcNmQF-iE-205" value="14" style="rounded=0;whiteSpace=wrap;html=1;fontSize=12;strokeWidth=2;fontStyle=1;rotation=90;horizontal=0;noLabel=1;fillColor=#D5E8D4;" parent="1" vertex="1">
                    <mxGeometry x="872.5" y="641.8800000000001" width="20" height="20" as="geometry"/>
                </mxCell>
                <mxCell id="AKQwnDpZvUHBcNmQF-iE-206" value="15" style="rounded=0;whiteSpace=wrap;html=1;fontSize=12;strokeWidth=2;fontStyle=1;rotation=90;horizontal=0;noLabel=1;fillColor=#D5E8D4;" parent="1" vertex="1">
                    <mxGeometry x="872.5" y="661.8800000000001" width="20" height="20" as="geometry"/>
                </mxCell>
                <mxCell id="AKQwnDpZvUHBcNmQF-iE-207" value="12" style="rounded=0;whiteSpace=wrap;html=1;fontSize=12;strokeWidth=2;fontStyle=1;rotation=90;horizontal=0;noLabel=1;fillColor=#D5E8D4;" parent="1" vertex="1">
                    <mxGeometry x="872.5" y="681.8800000000001" width="20" height="20" as="geometry"/>
                </mxCell>
                <mxCell id="AKQwnDpZvUHBcNmQF-iE-208" value="13" style="rounded=0;whiteSpace=wrap;html=1;fontSize=12;strokeWidth=2;fontStyle=1;rotation=90;horizontal=0;noLabel=1;fillColor=none;" parent="1" vertex="1">
                    <mxGeometry x="872.5" y="701.8800000000001" width="20" height="20" as="geometry"/>
                </mxCell>
                <mxCell id="AKQwnDpZvUHBcNmQF-iE-209" value="14" style="rounded=0;whiteSpace=wrap;html=1;fontSize=12;strokeWidth=2;fontStyle=1;rotation=90;horizontal=0;noLabel=1;fillColor=#D5E8D4;" parent="1" vertex="1">
                    <mxGeometry x="872.5" y="721.8800000000001" width="20" height="20" as="geometry"/>
                </mxCell>
                <mxCell id="AKQwnDpZvUHBcNmQF-iE-210" value="15" style="rounded=0;whiteSpace=wrap;html=1;fontSize=12;fontColor=none;strokeColor=#000000;strokeWidth=2;fillColor=#D5E8D4;gradientColor=none;fontStyle=1;rotation=90;horizontal=0;noLabel=1;" parent="1" vertex="1">
                    <mxGeometry x="872.5" y="741.8800000000001" width="20" height="20" as="geometry"/>
                </mxCell>
                <mxCell id="AKQwnDpZvUHBcNmQF-iE-211" value="" style="shape=curlyBracket;whiteSpace=wrap;html=1;rounded=1;flipH=1;fontColor=none;strokeColor=#000000;strokeWidth=2;fillColor=#D5E8D4;rotation=90;fontSize=12;" parent="1" vertex="1">
                    <mxGeometry x="567" y="727.81" width="12.5" height="34.07" as="geometry"/>
                </mxCell>
                <mxCell id="AKQwnDpZvUHBcNmQF-iE-240" value="10" style="rounded=0;whiteSpace=wrap;html=1;fontSize=12;fontColor=#000000;strokeColor=#000000;strokeWidth=2;fillColor=#FF0000;gradientColor=none;fontStyle=1" parent="1" vertex="1">
                    <mxGeometry x="157.99999999999997" y="653.75" width="20" height="20" as="geometry"/>
                </mxCell>
                <mxCell id="AKQwnDpZvUHBcNmQF-iE-241" value="11" style="rounded=0;whiteSpace=wrap;html=1;fontSize=12;fontColor=#000000;strokeColor=#000000;strokeWidth=2;fillColor=#FF0000;gradientColor=none;fontStyle=1" parent="1" vertex="1">
                    <mxGeometry x="177.99999999999997" y="653.75" width="20" height="20" as="geometry"/>
                </mxCell>
                <mxCell id="AKQwnDpZvUHBcNmQF-iE-242" value="10" style="rounded=0;whiteSpace=wrap;html=1;fontSize=12;fontColor=#000000;strokeColor=#000000;strokeWidth=2;fillColor=#00FF00;gradientColor=none;fontStyle=1" parent="1" vertex="1">
                    <mxGeometry x="197.99999999999997" y="653.75" width="20" height="20" as="geometry"/>
                </mxCell>
                <mxCell id="AKQwnDpZvUHBcNmQF-iE-243" value="11" style="rounded=0;whiteSpace=wrap;html=1;fontSize=12;fontColor=#000000;strokeColor=#000000;strokeWidth=2;fillColor=#00FF00;gradientColor=none;fontStyle=1" parent="1" vertex="1">
                    <mxGeometry x="217.99999999999997" y="653.75" width="20" height="20" as="geometry"/>
                </mxCell>
                <mxCell id="AKQwnDpZvUHBcNmQF-iE-244" value="10" style="rounded=0;whiteSpace=wrap;html=1;fontSize=12;fontColor=#000000;strokeColor=#000000;strokeWidth=2;fillColor=#0000FF;gradientColor=none;fontStyle=1" parent="1" vertex="1">
                    <mxGeometry x="237.99999999999997" y="653.75" width="20" height="20" as="geometry"/>
                </mxCell>
                <mxCell id="AKQwnDpZvUHBcNmQF-iE-245" value="11" style="rounded=0;whiteSpace=wrap;html=1;fontSize=12;fontColor=#000000;strokeColor=#000000;strokeWidth=2;fillColor=#0000FF;gradientColor=none;fontStyle=1" parent="1" vertex="1">
                    <mxGeometry x="258" y="653.75" width="20" height="20" as="geometry"/>
                </mxCell>
                <mxCell id="AKQwnDpZvUHBcNmQF-iE-246" value="15" style="rounded=0;whiteSpace=wrap;html=1;fontSize=12;fontColor=#000000;strokeColor=#000000;strokeWidth=2;fillColor=#FF0000;gradientColor=none;fontStyle=1" parent="1" vertex="1">
                    <mxGeometry x="157.99999999999997" y="673.75" width="20" height="20" as="geometry"/>
                </mxCell>
                <mxCell id="AKQwnDpZvUHBcNmQF-iE-247" value="16" style="rounded=0;whiteSpace=wrap;html=1;fontSize=12;fontColor=#000000;strokeColor=#000000;strokeWidth=2;fillColor=#FF0000;gradientColor=none;fontStyle=1" parent="1" vertex="1">
                    <mxGeometry x="177.99999999999997" y="673.75" width="20" height="20" as="geometry"/>
                </mxCell>
                <mxCell id="AKQwnDpZvUHBcNmQF-iE-248" value="15" style="rounded=0;whiteSpace=wrap;html=1;fontSize=12;fontColor=#000000;strokeColor=#000000;strokeWidth=2;fillColor=#00FF00;gradientColor=none;fontStyle=1" parent="1" vertex="1">
                    <mxGeometry x="197.99999999999997" y="673.75" width="20" height="20" as="geometry"/>
                </mxCell>
                <mxCell id="AKQwnDpZvUHBcNmQF-iE-249" value="16" style="rounded=0;whiteSpace=wrap;html=1;fontSize=12;fontColor=#000000;strokeColor=#000000;strokeWidth=2;fillColor=#00FF00;gradientColor=none;fontStyle=1" parent="1" vertex="1">
                    <mxGeometry x="217.99999999999997" y="673.75" width="20" height="20" as="geometry"/>
                </mxCell>
                <mxCell id="AKQwnDpZvUHBcNmQF-iE-250" value="15" style="rounded=0;whiteSpace=wrap;html=1;fontSize=12;fontColor=#000000;strokeColor=#000000;strokeWidth=2;fillColor=#0000FF;gradientColor=none;fontStyle=1" parent="1" vertex="1">
                    <mxGeometry x="237.99999999999997" y="673.75" width="20" height="20" as="geometry"/>
                </mxCell>
                <mxCell id="AKQwnDpZvUHBcNmQF-iE-251" value="16" style="rounded=0;whiteSpace=wrap;html=1;fontSize=12;fontColor=#000000;strokeColor=#000000;strokeWidth=2;fillColor=#0000FF;gradientColor=none;fontStyle=1" parent="1" vertex="1">
                    <mxGeometry x="258" y="673.75" width="20" height="20" as="geometry"/>
                </mxCell>
                <mxCell id="AKQwnDpZvUHBcNmQF-iE-264" value="" style="shape=cube;whiteSpace=wrap;html=1;boundedLbl=1;backgroundOutline=1;darkOpacity=0.05;darkOpacity2=0.1;size=10;rotation=90;strokeWidth=2;fillColor=#0000FF;strokeColor=#33001A;fontSize=12;" parent="1" vertex="1">
                    <mxGeometry x="422.25" y="93.75" width="30" height="25" as="geometry"/>
                </mxCell>
                <mxCell id="AKQwnDpZvUHBcNmQF-iE-265" value="" style="shape=cube;whiteSpace=wrap;html=1;boundedLbl=1;backgroundOutline=1;darkOpacity=0.05;darkOpacity2=0.1;size=10;rotation=90;fillColor=#0000FF;strokeWidth=2;strokeColor=#33001A;fontSize=12;" parent="1" vertex="1">
                    <mxGeometry x="437.25" y="113.75" width="30" height="25" as="geometry"/>
                </mxCell>
                <mxCell id="AKQwnDpZvUHBcNmQF-iE-266" value="" style="shape=cube;whiteSpace=wrap;html=1;boundedLbl=1;backgroundOutline=1;darkOpacity=0.05;darkOpacity2=0.1;size=10;rotation=90;strokeWidth=2;fillColor=#00FF00;fontSize=12;" parent="1" vertex="1">
                    <mxGeometry x="412.25" y="103.75" width="30" height="25" as="geometry"/>
                </mxCell>
                <mxCell id="AKQwnDpZvUHBcNmQF-iE-267" value="" style="shape=cube;whiteSpace=wrap;html=1;boundedLbl=1;backgroundOutline=1;darkOpacity=0.05;darkOpacity2=0.1;size=10;rotation=90;fillColor=#0000FF;strokeWidth=2;strokeColor=#33001A;fontSize=12;" parent="1" vertex="1">
                    <mxGeometry x="437.25" y="93.75" width="30" height="25" as="geometry"/>
                </mxCell>
                <mxCell id="AKQwnDpZvUHBcNmQF-iE-268" value="" style="shape=cube;whiteSpace=wrap;html=1;boundedLbl=1;backgroundOutline=1;darkOpacity=0.05;darkOpacity2=0.1;size=10;rotation=90;fillColor=#00FF00;strokeWidth=2;fontSize=12;" parent="1" vertex="1">
                    <mxGeometry x="427.25" y="123.75" width="30" height="25" as="geometry"/>
                </mxCell>
                <mxCell id="AKQwnDpZvUHBcNmQF-iE-269" value="" style="shape=cube;whiteSpace=wrap;html=1;boundedLbl=1;backgroundOutline=1;darkOpacity=0.05;darkOpacity2=0.1;size=10;rotation=90;fillColor=#00FF00;strokeWidth=2;fontSize=12;" parent="1" vertex="1">
                    <mxGeometry x="427.25" y="103.75" width="30" height="25" as="geometry"/>
                </mxCell>
                <mxCell id="AKQwnDpZvUHBcNmQF-iE-270" value="2" style="shape=cube;whiteSpace=wrap;html=1;boundedLbl=1;backgroundOutline=1;darkOpacity=0.05;darkOpacity2=0.1;size=10;rotation=90;strokeWidth=2;fillColor=#FF0000;fontStyle=1;horizontal=0;fontSize=12;" parent="1" vertex="1">
                    <mxGeometry x="402.25" y="133.75" width="30" height="25" as="geometry"/>
                </mxCell>
                <mxCell id="AKQwnDpZvUHBcNmQF-iE-271" value="0" style="shape=cube;whiteSpace=wrap;html=1;boundedLbl=1;backgroundOutline=1;darkOpacity=0.05;darkOpacity2=0.1;size=10;rotation=90;strokeWidth=2;fillColor=#FF0000;fontStyle=1;horizontal=0;fontSize=12;" parent="1" vertex="1">
                    <mxGeometry x="402.25" y="113.75" width="30" height="25" as="geometry"/>
                </mxCell>
                <mxCell id="AKQwnDpZvUHBcNmQF-iE-272" value="3" style="shape=cube;whiteSpace=wrap;html=1;boundedLbl=1;backgroundOutline=1;darkOpacity=0.05;darkOpacity2=0.1;size=10;rotation=90;strokeWidth=2;fillColor=#FF0000;fontStyle=1;horizontal=0;fontSize=12;" parent="1" vertex="1">
                    <mxGeometry x="417.25" y="133.75" width="30" height="25" as="geometry"/>
                </mxCell>
                <mxCell id="AKQwnDpZvUHBcNmQF-iE-273" value="1" style="shape=cube;whiteSpace=wrap;html=1;boundedLbl=1;backgroundOutline=1;darkOpacity=0.05;darkOpacity2=0.1;size=10;rotation=90;strokeWidth=2;fillColor=#FF0000;fontStyle=1;horizontal=0;fontSize=12;" parent="1" vertex="1">
                    <mxGeometry x="417.25" y="113.75" width="30" height="25" as="geometry"/>
                </mxCell>
                <mxCell id="AKQwnDpZvUHBcNmQF-iE-274" value="" style="shape=cube;whiteSpace=wrap;html=1;boundedLbl=1;backgroundOutline=1;darkOpacity=0.05;darkOpacity2=0.1;size=10;rotation=90;strokeWidth=2;fillColor=#0000FF;strokeColor=#33001A;fontSize=12;" parent="1" vertex="1">
                    <mxGeometry x="420" y="188.75" width="30" height="25" as="geometry"/>
                </mxCell>
                <mxCell id="AKQwnDpZvUHBcNmQF-iE-275" value="" style="shape=cube;whiteSpace=wrap;html=1;boundedLbl=1;backgroundOutline=1;darkOpacity=0.05;darkOpacity2=0.1;size=10;rotation=90;fillColor=#0000FF;strokeWidth=2;strokeColor=#33001A;fontSize=12;" parent="1" vertex="1">
                    <mxGeometry x="435" y="208.75" width="30" height="25" as="geometry"/>
                </mxCell>
                <mxCell id="AKQwnDpZvUHBcNmQF-iE-276" value="" style="shape=cube;whiteSpace=wrap;html=1;boundedLbl=1;backgroundOutline=1;darkOpacity=0.05;darkOpacity2=0.1;size=10;rotation=90;strokeWidth=2;fillColor=#00FF00;fontSize=12;" parent="1" vertex="1">
                    <mxGeometry x="410" y="198.75" width="30" height="25" as="geometry"/>
                </mxCell>
                <mxCell id="AKQwnDpZvUHBcNmQF-iE-277" value="" style="shape=cube;whiteSpace=wrap;html=1;boundedLbl=1;backgroundOutline=1;darkOpacity=0.05;darkOpacity2=0.1;size=10;rotation=90;fillColor=#0000FF;strokeWidth=2;strokeColor=#33001A;fontSize=12;" parent="1" vertex="1">
                    <mxGeometry x="435" y="188.75" width="30" height="25" as="geometry"/>
                </mxCell>
                <mxCell id="AKQwnDpZvUHBcNmQF-iE-278" value="" style="shape=cube;whiteSpace=wrap;html=1;boundedLbl=1;backgroundOutline=1;darkOpacity=0.05;darkOpacity2=0.1;size=10;rotation=90;fillColor=#00FF00;strokeWidth=2;fontSize=12;" parent="1" vertex="1">
                    <mxGeometry x="425" y="218.75" width="30" height="25" as="geometry"/>
                </mxCell>
                <mxCell id="AKQwnDpZvUHBcNmQF-iE-279" value="" style="shape=cube;whiteSpace=wrap;html=1;boundedLbl=1;backgroundOutline=1;darkOpacity=0.05;darkOpacity2=0.1;size=10;rotation=90;fillColor=#00FF00;strokeWidth=2;fontSize=12;" parent="1" vertex="1">
                    <mxGeometry x="425" y="198.75" width="30" height="25" as="geometry"/>
                </mxCell>
                <mxCell id="AKQwnDpZvUHBcNmQF-iE-280" value="6" style="shape=cube;whiteSpace=wrap;html=1;boundedLbl=1;backgroundOutline=1;darkOpacity=0.05;darkOpacity2=0.1;size=10;rotation=90;strokeWidth=2;fillColor=#FF0000;fontStyle=1;horizontal=0;fontSize=12;" parent="1" vertex="1">
                    <mxGeometry x="400" y="228.75" width="30" height="25" as="geometry"/>
                </mxCell>
                <mxCell id="AKQwnDpZvUHBcNmQF-iE-281" value="4" style="shape=cube;whiteSpace=wrap;html=1;boundedLbl=1;backgroundOutline=1;darkOpacity=0.05;darkOpacity2=0.1;size=10;rotation=90;strokeWidth=2;fillColor=#FF0000;fontStyle=1;horizontal=0;fontSize=12;" parent="1" vertex="1">
                    <mxGeometry x="400" y="208.75" width="30" height="25" as="geometry"/>
                </mxCell>
                <mxCell id="AKQwnDpZvUHBcNmQF-iE-282" value="7" style="shape=cube;whiteSpace=wrap;html=1;boundedLbl=1;backgroundOutline=1;darkOpacity=0.05;darkOpacity2=0.1;size=10;rotation=90;strokeWidth=2;fillColor=#FF0000;fontStyle=1;horizontal=0;fontSize=12;" parent="1" vertex="1">
                    <mxGeometry x="415" y="228.75" width="30" height="25" as="geometry"/>
                </mxCell>
                <mxCell id="AKQwnDpZvUHBcNmQF-iE-283" value="5" style="shape=cube;whiteSpace=wrap;html=1;boundedLbl=1;backgroundOutline=1;darkOpacity=0.05;darkOpacity2=0.1;size=10;rotation=90;strokeWidth=2;fillColor=#FF0000;fontStyle=1;horizontal=0;fontSize=12;" parent="1" vertex="1">
                    <mxGeometry x="415" y="208.75" width="30" height="25" as="geometry"/>
                </mxCell>
                <mxCell id="AKQwnDpZvUHBcNmQF-iE-284" value="" style="shape=curlyBracket;whiteSpace=wrap;html=1;rounded=1;flipH=1;strokeColor=#000000;strokeWidth=2;fillColor=#FFFFFF;fontSize=12;" parent="1" vertex="1">
                    <mxGeometry x="472.5" y="90" width="20" height="290" as="geometry"/>
                </mxCell>
                <mxCell id="AKQwnDpZvUHBcNmQF-iE-289" style="edgeStyle=none;rounded=0;orthogonalLoop=1;jettySize=auto;html=1;strokeWidth=2;fontSize=12;" parent="1" source="AKQwnDpZvUHBcNmQF-iE-290" edge="1">
                    <mxGeometry relative="1" as="geometry">
                        <mxPoint x="658.5" y="529.69" as="targetPoint"/>
                    </mxGeometry>
                </mxCell>
                <mxCell id="AKQwnDpZvUHBcNmQF-iE-290" value="0" style="rounded=0;whiteSpace=wrap;html=1;fontSize=12;fontColor=none;strokeColor=#000000;strokeWidth=2;fillColor=#FFFF66;gradientColor=none;fontStyle=1;rotation=90;horizontal=0;noLabel=1;" parent="1" vertex="1">
                    <mxGeometry x="732.5" y="601.8800000000001" width="20" height="20" as="geometry"/>
                </mxCell>
                <mxCell id="AKQwnDpZvUHBcNmQF-iE-291" value="1" style="rounded=0;whiteSpace=wrap;html=1;fontSize=12;fontColor=none;strokeColor=#000000;strokeWidth=2;fillColor=#FFFF66;gradientColor=none;fontStyle=1;rotation=90;horizontal=0;noLabel=1;" parent="1" vertex="1">
                    <mxGeometry x="732.5" y="621.8800000000001" width="20" height="20" as="geometry"/>
                </mxCell>
                <mxCell id="AKQwnDpZvUHBcNmQF-iE-292" value="2" style="rounded=0;whiteSpace=wrap;html=1;fontSize=12;fontColor=none;strokeColor=#000000;strokeWidth=2;fillColor=#FFFF66;gradientColor=none;fontStyle=1;rotation=90;horizontal=0;noLabel=1;" parent="1" vertex="1">
                    <mxGeometry x="732.5" y="641.8800000000001" width="20" height="20" as="geometry"/>
                </mxCell>
                <mxCell id="AKQwnDpZvUHBcNmQF-iE-293" value="3" style="rounded=0;whiteSpace=wrap;html=1;fontSize=12;fontColor=none;strokeColor=#000000;strokeWidth=2;fillColor=#FFFF66;gradientColor=none;fontStyle=1;rotation=90;horizontal=0;noLabel=1;" parent="1" vertex="1">
                    <mxGeometry x="732.5" y="661.8800000000001" width="20" height="20" as="geometry"/>
                </mxCell>
                <mxCell id="AKQwnDpZvUHBcNmQF-iE-294" value="0" style="rounded=0;whiteSpace=wrap;html=1;fontSize=12;fontColor=none;strokeColor=#000000;strokeWidth=2;fillColor=none;gradientColor=none;fontStyle=1;rotation=90;horizontal=0;noLabel=1;" parent="1" vertex="1">
                    <mxGeometry x="732.5" y="681.8800000000001" width="20" height="20" as="geometry"/>
                </mxCell>
                <mxCell id="AKQwnDpZvUHBcNmQF-iE-295" value="1" style="rounded=0;whiteSpace=wrap;html=1;fontSize=12;fontColor=none;strokeColor=#000000;strokeWidth=2;fillColor=#FFFF66;gradientColor=none;fontStyle=1;rotation=90;horizontal=0;noLabel=1;" parent="1" vertex="1">
                    <mxGeometry x="732.5" y="701.8800000000001" width="20" height="20" as="geometry"/>
                </mxCell>
                <mxCell id="AKQwnDpZvUHBcNmQF-iE-296" value="2" style="rounded=0;whiteSpace=wrap;html=1;fontSize=12;fontColor=none;strokeColor=#000000;strokeWidth=2;fillColor=#FFFF66;gradientColor=none;fontStyle=1;rotation=90;horizontal=0;noLabel=1;" parent="1" vertex="1">
                    <mxGeometry x="732.5" y="721.8800000000001" width="20" height="20" as="geometry"/>
                </mxCell>
                <mxCell id="AKQwnDpZvUHBcNmQF-iE-297" value="3" style="rounded=0;whiteSpace=wrap;html=1;fontSize=12;fontColor=none;strokeColor=#000000;strokeWidth=2;fillColor=#FFFF66;gradientColor=none;fontStyle=1;rotation=90;horizontal=0;noLabel=1;" parent="1" vertex="1">
                    <mxGeometry x="732.5" y="741.8800000000001" width="20" height="20" as="geometry"/>
                </mxCell>
                <mxCell id="AKQwnDpZvUHBcNmQF-iE-298" value="1" style="rounded=0;whiteSpace=wrap;html=1;fontSize=12;fontColor=none;strokeColor=#000000;strokeWidth=2;fillColor=#FFFF66;gradientColor=none;fontStyle=1;rotation=90;horizontal=0;noLabel=1;" parent="1" vertex="1">
                    <mxGeometry x="752.5" y="621.8800000000001" width="20" height="20" as="geometry"/>
                </mxCell>
                <mxCell id="AKQwnDpZvUHBcNmQF-iE-299" value="2" style="rounded=0;whiteSpace=wrap;html=1;fontSize=12;fontColor=none;strokeColor=#000000;strokeWidth=2;fillColor=#FFFF66;gradientColor=none;fontStyle=1;rotation=90;horizontal=0;noLabel=1;" parent="1" vertex="1">
                    <mxGeometry x="752.5" y="641.8800000000001" width="20" height="20" as="geometry"/>
                </mxCell>
                <mxCell id="AKQwnDpZvUHBcNmQF-iE-300" value="3" style="rounded=0;whiteSpace=wrap;html=1;fontSize=12;fontColor=none;strokeColor=#000000;strokeWidth=2;fillColor=#FFFF66;gradientColor=none;fontStyle=1;rotation=90;horizontal=0;noLabel=1;" parent="1" vertex="1">
                    <mxGeometry x="752.5" y="661.8800000000001" width="20" height="20" as="geometry"/>
                </mxCell>
                <mxCell id="AKQwnDpZvUHBcNmQF-iE-301" value="2" style="rounded=0;whiteSpace=wrap;html=1;fontSize=12;fontColor=none;strokeColor=#000000;strokeWidth=2;fillColor=#FFFF66;gradientColor=none;fontStyle=1;rotation=90;horizontal=0;noLabel=1;" parent="1" vertex="1">
                    <mxGeometry x="752.5" y="721.8800000000001" width="20" height="20" as="geometry"/>
                </mxCell>
                <mxCell id="AKQwnDpZvUHBcNmQF-iE-302" value="3" style="rounded=0;whiteSpace=wrap;html=1;fontSize=12;fontColor=none;strokeColor=#000000;strokeWidth=2;fillColor=#FFFF66;gradientColor=none;fontStyle=1;rotation=90;horizontal=0;noLabel=1;" parent="1" vertex="1">
                    <mxGeometry x="752.5" y="741.8800000000001" width="20" height="20" as="geometry"/>
                </mxCell>
                <mxCell id="AKQwnDpZvUHBcNmQF-iE-313" value="Balanced Lifting" style="text;html=1;strokeColor=none;fillColor=none;align=center;verticalAlign=middle;whiteSpace=wrap;rounded=0;fontStyle=1;fontSize=12;" parent="1" vertex="1">
                    <mxGeometry x="944.03" y="563.13" width="60" height="30" as="geometry"/>
                </mxCell>
                <mxCell id="AKQwnDpZvUHBcNmQF-iE-315" style="edgeStyle=none;rounded=0;orthogonalLoop=1;jettySize=auto;html=1;strokeWidth=2;fontSize=12;" parent="1" edge="1">
                    <mxGeometry relative="1" as="geometry">
                        <mxPoint x="740.5" y="280" as="targetPoint"/>
                        <mxPoint x="640" y="350" as="sourcePoint"/>
                    </mxGeometry>
                </mxCell>
                <mxCell id="AKQwnDpZvUHBcNmQF-iE-316" style="edgeStyle=none;rounded=0;orthogonalLoop=1;jettySize=auto;html=1;strokeWidth=2;fontSize=12;" parent="1" edge="1">
                    <mxGeometry relative="1" as="geometry">
                        <mxPoint x="794.5" y="280.25" as="targetPoint"/>
                        <mxPoint x="750" y="340" as="sourcePoint"/>
                    </mxGeometry>
                </mxCell>
                <mxCell id="AKQwnDpZvUHBcNmQF-iE-317" style="edgeStyle=none;rounded=0;orthogonalLoop=1;jettySize=auto;html=1;strokeWidth=2;fontSize=12;" parent="1" edge="1">
                    <mxGeometry relative="1" as="geometry">
                        <mxPoint x="840.5" y="281" as="targetPoint"/>
                        <mxPoint x="850" y="340" as="sourcePoint"/>
                    </mxGeometry>
                </mxCell>
                <mxCell id="AKQwnDpZvUHBcNmQF-iE-318" value="" style="endArrow=none;html=1;strokeWidth=2;exitX=0;exitY=0;exitDx=0;exitDy=0;entryX=0;entryY=1;entryDx=0;entryDy=0;fontSize=12;" parent="1" source="AKQwnDpZvUHBcNmQF-iE-290" target="AKQwnDpZvUHBcNmQF-iE-166" edge="1">
                    <mxGeometry width="50" height="50" relative="1" as="geometry">
                        <mxPoint x="808.5" y="589.69" as="sourcePoint"/>
                        <mxPoint x="858.5" y="539.69" as="targetPoint"/>
                    </mxGeometry>
                </mxCell>
                <mxCell id="AKQwnDpZvUHBcNmQF-iE-319" value="" style="endArrow=none;html=1;strokeWidth=2;exitX=0;exitY=0;exitDx=0;exitDy=0;entryX=0;entryY=1;entryDx=0;entryDy=0;fontSize=12;" parent="1" edge="1">
                    <mxGeometry width="50" height="50" relative="1" as="geometry">
                        <mxPoint x="792.5" y="601.8800000000001" as="sourcePoint"/>
                        <mxPoint x="812.5" y="601.8800000000001" as="targetPoint"/>
                    </mxGeometry>
                </mxCell>
                <mxCell id="AKQwnDpZvUHBcNmQF-iE-320" value="" style="endArrow=none;html=1;strokeWidth=2;exitX=0;exitY=0;exitDx=0;exitDy=0;entryX=0;entryY=1;entryDx=0;entryDy=0;fontSize=12;" parent="1" edge="1">
                    <mxGeometry width="50" height="50" relative="1" as="geometry">
                        <mxPoint x="832.5" y="602.5" as="sourcePoint"/>
                        <mxPoint x="852.5" y="602.5" as="targetPoint"/>
                    </mxGeometry>
                </mxCell>
                <mxCell id="AKQwnDpZvUHBcNmQF-iE-321" value="12" style="rounded=0;whiteSpace=wrap;html=1;fontSize=12;strokeWidth=2;fontStyle=1;rotation=90;horizontal=0;noLabel=1;fillColor=#FFFFFF;" parent="1" vertex="1">
                    <mxGeometry x="872.5" y="602.5" width="20" height="20" as="geometry"/>
                </mxCell>
                <mxCell id="AKQwnDpZvUHBcNmQF-iE-322" value="0" style="rounded=0;whiteSpace=wrap;html=1;fontSize=12;fontColor=none;strokeColor=#000000;strokeWidth=2;fillColor=#FFFF66;gradientColor=none;fontStyle=1;rotation=90;horizontal=0;noLabel=1;" parent="1" vertex="1">
                    <mxGeometry x="600.5" y="350" width="16.470588235294116" height="16.1525803231811" as="geometry"/>
                </mxCell>
                <mxCell id="AKQwnDpZvUHBcNmQF-iE-323" value="1" style="rounded=0;whiteSpace=wrap;html=1;fontSize=12;fontColor=none;strokeColor=#000000;strokeWidth=2;fillColor=#FFFF66;gradientColor=none;fontStyle=1;rotation=90;horizontal=0;noLabel=1;" parent="1" vertex="1">
                    <mxGeometry x="600.5" y="366.1525803231811" width="16.470588235294116" height="16.1525803231811" as="geometry"/>
                </mxCell>
                <mxCell id="AKQwnDpZvUHBcNmQF-iE-324" value="2" style="rounded=0;whiteSpace=wrap;html=1;fontSize=12;fontColor=none;strokeColor=#000000;strokeWidth=2;fillColor=#FFFF66;gradientColor=none;fontStyle=1;rotation=90;horizontal=0;noLabel=1;" parent="1" vertex="1">
                    <mxGeometry x="600.5" y="382.3051606463622" width="16.470588235294116" height="16.1525803231811" as="geometry"/>
                </mxCell>
                <mxCell id="AKQwnDpZvUHBcNmQF-iE-325" value="3" style="rounded=0;whiteSpace=wrap;html=1;fontSize=12;fontColor=none;strokeColor=#000000;strokeWidth=2;fillColor=#FFFF66;gradientColor=none;fontStyle=1;rotation=90;horizontal=0;noLabel=1;" parent="1" vertex="1">
                    <mxGeometry x="600.5" y="398.4577409695433" width="16.470588235294116" height="16.1525803231811" as="geometry"/>
                </mxCell>
                <mxCell id="AKQwnDpZvUHBcNmQF-iE-326" value="0" style="rounded=0;whiteSpace=wrap;html=1;fontSize=12;fontColor=none;strokeColor=#000000;strokeWidth=2;fillColor=none;gradientColor=none;fontStyle=1;rotation=90;horizontal=0;noLabel=1;" parent="1" vertex="1">
                    <mxGeometry x="600.5" y="414.6103212927244" width="16.470588235294116" height="16.1525803231811" as="geometry"/>
                </mxCell>
                <mxCell id="AKQwnDpZvUHBcNmQF-iE-327" value="1" style="rounded=0;whiteSpace=wrap;html=1;fontSize=12;fontColor=none;strokeColor=#000000;strokeWidth=2;fillColor=#FFFF66;gradientColor=none;fontStyle=1;rotation=90;horizontal=0;noLabel=1;" parent="1" vertex="1">
                    <mxGeometry x="600.5" y="430.7629016159055" width="16.470588235294116" height="16.1525803231811" as="geometry"/>
                </mxCell>
                <mxCell id="AKQwnDpZvUHBcNmQF-iE-328" value="2" style="rounded=0;whiteSpace=wrap;html=1;fontSize=12;fontColor=none;strokeColor=#000000;strokeWidth=2;fillColor=#FFFF66;gradientColor=none;fontStyle=1;rotation=90;horizontal=0;noLabel=1;" parent="1" vertex="1">
                    <mxGeometry x="600.5" y="446.9154819390866" width="16.470588235294116" height="16.1525803231811" as="geometry"/>
                </mxCell>
                <mxCell id="AKQwnDpZvUHBcNmQF-iE-329" value="3" style="rounded=0;whiteSpace=wrap;html=1;fontSize=12;fontColor=none;strokeColor=#000000;strokeWidth=2;fillColor=#FFFF66;gradientColor=none;fontStyle=1;rotation=90;horizontal=0;noLabel=1;" parent="1" vertex="1">
                    <mxGeometry x="600.5" y="463.0680622622677" width="16.470588235294116" height="16.1525803231811" as="geometry"/>
                </mxCell>
                <mxCell id="AKQwnDpZvUHBcNmQF-iE-330" value="1" style="rounded=0;whiteSpace=wrap;html=1;fontSize=12;fontColor=none;strokeColor=#000000;strokeWidth=2;fillColor=#FFFF66;gradientColor=none;fontStyle=1;rotation=90;horizontal=0;noLabel=1;" parent="1" vertex="1">
                    <mxGeometry x="616.9705882352941" y="366.1525803231811" width="16.470588235294116" height="16.1525803231811" as="geometry"/>
                </mxCell>
                <mxCell id="AKQwnDpZvUHBcNmQF-iE-331" value="2" style="rounded=0;whiteSpace=wrap;html=1;fontSize=12;fontColor=none;strokeColor=#000000;strokeWidth=2;fillColor=#FFFF66;gradientColor=none;fontStyle=1;rotation=90;horizontal=0;noLabel=1;" parent="1" vertex="1">
                    <mxGeometry x="616.9705882352941" y="382.3051606463622" width="16.470588235294116" height="16.1525803231811" as="geometry"/>
                </mxCell>
                <mxCell id="AKQwnDpZvUHBcNmQF-iE-332" value="3" style="rounded=0;whiteSpace=wrap;html=1;fontSize=12;fontColor=none;strokeColor=#000000;strokeWidth=2;fillColor=#FFFF66;gradientColor=none;fontStyle=1;rotation=90;horizontal=0;noLabel=1;" parent="1" vertex="1">
                    <mxGeometry x="616.9705882352941" y="398.4577409695433" width="16.470588235294116" height="16.1525803231811" as="geometry"/>
                </mxCell>
                <mxCell id="AKQwnDpZvUHBcNmQF-iE-333" value="0" style="rounded=0;whiteSpace=wrap;html=1;fontSize=12;fontColor=none;strokeColor=#000000;strokeWidth=2;fillColor=#FFFF66;gradientColor=none;fontStyle=1;rotation=90;horizontal=0;noLabel=1;" parent="1" vertex="1">
                    <mxGeometry x="616.9705882352941" y="414.6103212927244" width="16.470588235294116" height="16.1525803231811" as="geometry"/>
                </mxCell>
                <mxCell id="AKQwnDpZvUHBcNmQF-iE-334" value="1" style="rounded=0;whiteSpace=wrap;html=1;fontSize=12;fontColor=none;strokeColor=#000000;strokeWidth=2;fillColor=none;gradientColor=none;fontStyle=1;rotation=90;horizontal=0;noLabel=1;" parent="1" vertex="1">
                    <mxGeometry x="616.9705882352941" y="430.7629016159055" width="16.470588235294116" height="16.1525803231811" as="geometry"/>
                </mxCell>
                <mxCell id="AKQwnDpZvUHBcNmQF-iE-335" value="2" style="rounded=0;whiteSpace=wrap;html=1;fontSize=12;fontColor=none;strokeColor=#000000;strokeWidth=2;fillColor=#FFFF66;gradientColor=none;fontStyle=1;rotation=90;horizontal=0;noLabel=1;" parent="1" vertex="1">
                    <mxGeometry x="616.9705882352941" y="446.9154819390866" width="16.470588235294116" height="16.1525803231811" as="geometry"/>
                </mxCell>
                <mxCell id="AKQwnDpZvUHBcNmQF-iE-336" value="3" style="rounded=0;whiteSpace=wrap;html=1;fontSize=12;fontColor=none;strokeColor=#000000;strokeWidth=2;fillColor=#FFFF66;gradientColor=none;fontStyle=1;rotation=90;horizontal=0;noLabel=1;" parent="1" vertex="1">
                    <mxGeometry x="616.9705882352941" y="463.0680622622677" width="16.470588235294116" height="16.1525803231811" as="geometry"/>
                </mxCell>
                <mxCell id="AKQwnDpZvUHBcNmQF-iE-347" value="+" style="ellipse;whiteSpace=wrap;html=1;aspect=fixed;strokeColor=#000000;fillColor=#FFFFFF;verticalAlign=middle;fontColor=#333333;strokeWidth=2;fontStyle=1;fontSize=12;" parent="1" vertex="1">
                    <mxGeometry x="649.9117647058824" y="393.5150513906499" width="9.737066911255587" height="9.737066911255587" as="geometry"/>
                </mxCell>
                <mxCell id="AKQwnDpZvUHBcNmQF-iE-348" style="rounded=0;orthogonalLoop=1;jettySize=auto;html=1;exitX=0;exitY=0;exitDx=0;exitDy=0;entryX=0;entryY=0;entryDx=0;entryDy=0;strokeWidth=2;fontSize=12;" parent="1" source="AKQwnDpZvUHBcNmQF-iE-331" target="AKQwnDpZvUHBcNmQF-iE-347" edge="1">
                    <mxGeometry relative="1" as="geometry"/>
                </mxCell>
                <mxCell id="AKQwnDpZvUHBcNmQF-iE-349" value="+" style="ellipse;whiteSpace=wrap;html=1;aspect=fixed;strokeColor=#000000;fillColor=#FFFFFF;verticalAlign=middle;fontColor=#333333;strokeWidth=2;fontStyle=1;fontSize=12;" parent="1" vertex="1">
                    <mxGeometry x="649.9117647058824" y="409.5626399417303" width="9.737066911255587" height="9.737066911255587" as="geometry"/>
                </mxCell>
                <mxCell id="AKQwnDpZvUHBcNmQF-iE-350" style="edgeStyle=none;rounded=0;orthogonalLoop=1;jettySize=auto;html=1;exitX=1;exitY=0;exitDx=0;exitDy=0;entryX=0;entryY=0;entryDx=0;entryDy=0;strokeWidth=2;fontSize=12;" parent="1" source="AKQwnDpZvUHBcNmQF-iE-331" target="AKQwnDpZvUHBcNmQF-iE-349" edge="1">
                    <mxGeometry relative="1" as="geometry"/>
                </mxCell>
                <mxCell id="AKQwnDpZvUHBcNmQF-iE-351" value="+" style="ellipse;whiteSpace=wrap;html=1;aspect=fixed;strokeColor=#000000;fillColor=#FFFFFF;verticalAlign=middle;fontColor=#333333;strokeWidth=2;fontStyle=1;fontSize=12;" parent="1" vertex="1">
                    <mxGeometry x="649.9117647058824" y="425.8202120370121" width="9.737066911255587" height="9.737066911255587" as="geometry"/>
                </mxCell>
                <mxCell id="AKQwnDpZvUHBcNmQF-iE-352" style="edgeStyle=none;rounded=0;orthogonalLoop=1;jettySize=auto;html=1;exitX=0;exitY=0;exitDx=0;exitDy=0;strokeWidth=2;fontSize=12;" parent="1" source="AKQwnDpZvUHBcNmQF-iE-333" target="AKQwnDpZvUHBcNmQF-iE-351" edge="1">
                    <mxGeometry relative="1" as="geometry"/>
                </mxCell>
                <mxCell id="AKQwnDpZvUHBcNmQF-iE-353" value="+" style="ellipse;whiteSpace=wrap;html=1;aspect=fixed;strokeColor=#000000;fillColor=#FFFFFF;verticalAlign=middle;fontColor=#333333;strokeWidth=2;fontStyle=1;fontSize=12;" parent="1" vertex="1">
                    <mxGeometry x="649.9117647058824" y="441.9727923601932" width="9.737066911255587" height="9.737066911255587" as="geometry"/>
                </mxCell>
                <mxCell id="AKQwnDpZvUHBcNmQF-iE-354" style="edgeStyle=none;rounded=0;orthogonalLoop=1;jettySize=auto;html=1;exitX=0;exitY=0;exitDx=0;exitDy=0;entryX=0;entryY=0;entryDx=0;entryDy=0;strokeWidth=2;fontSize=12;" parent="1" source="AKQwnDpZvUHBcNmQF-iE-334" target="AKQwnDpZvUHBcNmQF-iE-353" edge="1">
                    <mxGeometry relative="1" as="geometry"/>
                </mxCell>
                <mxCell id="AKQwnDpZvUHBcNmQF-iE-355" value="" style="endArrow=none;dashed=1;html=1;dashPattern=1 3;strokeWidth=2;rounded=1;fontSize=12;" parent="1" edge="1">
                    <mxGeometry width="50" height="50" relative="1" as="geometry">
                        <mxPoint x="655" y="510" as="sourcePoint"/>
                        <mxPoint x="654.5" y="460" as="targetPoint"/>
                    </mxGeometry>
                </mxCell>
                <mxCell id="AKQwnDpZvUHBcNmQF-iE-356" value="0" style="rounded=0;whiteSpace=wrap;html=1;fontSize=12;fontColor=none;strokeColor=#000000;strokeWidth=2;fillColor=#FFFF66;gradientColor=none;fontStyle=1;rotation=90;horizontal=0;noLabel=1;" parent="1" vertex="1">
                    <mxGeometry x="677.9117647058824" y="390.3814508079527" width="16.470588235294116" height="16.1525803231811" as="geometry"/>
                </mxCell>
                <mxCell id="AKQwnDpZvUHBcNmQF-iE-357" style="edgeStyle=none;rounded=0;orthogonalLoop=1;jettySize=auto;html=1;entryX=0.5;entryY=1;entryDx=0;entryDy=0;strokeWidth=2;fontSize=12;" parent="1" source="AKQwnDpZvUHBcNmQF-iE-347" target="AKQwnDpZvUHBcNmQF-iE-356" edge="1">
                    <mxGeometry relative="1" as="geometry"/>
                </mxCell>
                <mxCell id="AKQwnDpZvUHBcNmQF-iE-358" value="1" style="rounded=0;whiteSpace=wrap;html=1;fontSize=12;fontColor=none;strokeColor=#000000;strokeWidth=2;fillColor=#FFFF66;gradientColor=none;fontStyle=1;rotation=90;horizontal=0;noLabel=1;" parent="1" vertex="1">
                    <mxGeometry x="677.9117647058824" y="406.5340311311338" width="16.470588235294116" height="16.1525803231811" as="geometry"/>
                </mxCell>
                <mxCell id="AKQwnDpZvUHBcNmQF-iE-359" style="edgeStyle=none;rounded=0;orthogonalLoop=1;jettySize=auto;html=1;entryX=0.5;entryY=1;entryDx=0;entryDy=0;strokeWidth=2;fontSize=12;" parent="1" source="AKQwnDpZvUHBcNmQF-iE-349" target="AKQwnDpZvUHBcNmQF-iE-358" edge="1">
                    <mxGeometry relative="1" as="geometry"/>
                </mxCell>
                <mxCell id="AKQwnDpZvUHBcNmQF-iE-360" value="2" style="rounded=0;whiteSpace=wrap;html=1;fontSize=12;fontColor=none;strokeColor=#000000;strokeWidth=2;fillColor=#FFFF66;gradientColor=none;fontStyle=1;rotation=90;horizontal=0;noLabel=1;" parent="1" vertex="1">
                    <mxGeometry x="677.9117647058824" y="422.6866114543149" width="16.470588235294116" height="16.1525803231811" as="geometry"/>
                </mxCell>
                <mxCell id="AKQwnDpZvUHBcNmQF-iE-361" style="edgeStyle=none;rounded=0;orthogonalLoop=1;jettySize=auto;html=1;entryX=0.5;entryY=1;entryDx=0;entryDy=0;strokeWidth=2;fontSize=12;" parent="1" source="AKQwnDpZvUHBcNmQF-iE-351" target="AKQwnDpZvUHBcNmQF-iE-360" edge="1">
                    <mxGeometry relative="1" as="geometry"/>
                </mxCell>
                <mxCell id="AKQwnDpZvUHBcNmQF-iE-362" value="3" style="rounded=0;whiteSpace=wrap;html=1;fontSize=12;fontColor=none;strokeColor=#000000;strokeWidth=2;fillColor=#FFFF66;gradientColor=none;fontStyle=1;rotation=90;horizontal=0;noLabel=1;" parent="1" vertex="1">
                    <mxGeometry x="677.9117647058824" y="438.839191777496" width="16.470588235294116" height="16.1525803231811" as="geometry"/>
                </mxCell>
                <mxCell id="AKQwnDpZvUHBcNmQF-iE-363" style="edgeStyle=none;rounded=0;orthogonalLoop=1;jettySize=auto;html=1;entryX=0.5;entryY=1;entryDx=0;entryDy=0;strokeWidth=2;fontSize=12;" parent="1" source="AKQwnDpZvUHBcNmQF-iE-353" target="AKQwnDpZvUHBcNmQF-iE-362" edge="1">
                    <mxGeometry relative="1" as="geometry"/>
                </mxCell>
                <mxCell id="AKQwnDpZvUHBcNmQF-iE-364" value="0" style="rounded=0;whiteSpace=wrap;html=1;fontSize=12;fontColor=none;strokeColor=#000000;strokeWidth=2;fillColor=#FFFF66;gradientColor=none;fontStyle=1;rotation=90;horizontal=0;noLabel=1;" parent="1" vertex="1">
                    <mxGeometry x="677.9117647058824" y="454.9917721006771" width="16.470588235294116" height="16.1525803231811" as="geometry"/>
                </mxCell>
                <mxCell id="AKQwnDpZvUHBcNmQF-iE-370" value="" style="endArrow=none;dashed=1;html=1;dashPattern=1 3;strokeWidth=2;rounded=1;fontSize=12;" parent="1" edge="1">
                    <mxGeometry width="50" height="50" relative="1" as="geometry">
                        <mxPoint x="616" y="510" as="sourcePoint"/>
                        <mxPoint x="616.4888235294119" y="479.2191043729264" as="targetPoint"/>
                    </mxGeometry>
                </mxCell>
                <mxCell id="AKQwnDpZvUHBcNmQF-iE-372" value="0" style="rounded=0;whiteSpace=wrap;html=1;fontSize=12;fontColor=none;strokeColor=#000000;strokeWidth=2;fillColor=#7EA6E0;gradientColor=none;fontStyle=1;rotation=90;horizontal=0;noLabel=1;" parent="1" vertex="1">
                    <mxGeometry x="710.8529411764705" y="350.80762901615907" width="16.470588235294116" height="16.1525803231811" as="geometry"/>
                </mxCell>
                <mxCell id="AKQwnDpZvUHBcNmQF-iE-373" value="1" style="rounded=0;whiteSpace=wrap;html=1;fontSize=12;fontColor=none;strokeColor=#000000;strokeWidth=2;fillColor=#7EA6E0;gradientColor=none;fontStyle=1;rotation=90;horizontal=0;noLabel=1;" parent="1" vertex="1">
                    <mxGeometry x="710.8529411764705" y="366.96020933934017" width="16.470588235294116" height="16.1525803231811" as="geometry"/>
                </mxCell>
                <mxCell id="AKQwnDpZvUHBcNmQF-iE-374" value="2" style="rounded=0;whiteSpace=wrap;html=1;fontSize=12;fontColor=none;strokeColor=#000000;strokeWidth=2;fillColor=#7EA6E0;gradientColor=none;fontStyle=1;rotation=90;horizontal=0;noLabel=1;" parent="1" vertex="1">
                    <mxGeometry x="710.8529411764705" y="383.11278966252127" width="16.470588235294116" height="16.1525803231811" as="geometry"/>
                </mxCell>
                <mxCell id="AKQwnDpZvUHBcNmQF-iE-375" value="3" style="rounded=0;whiteSpace=wrap;html=1;fontSize=12;fontColor=none;strokeColor=#000000;strokeWidth=2;fillColor=#7EA6E0;gradientColor=none;fontStyle=1;rotation=90;horizontal=0;noLabel=1;" parent="1" vertex="1">
                    <mxGeometry x="710.8529411764705" y="399.26536998570236" width="16.470588235294116" height="16.1525803231811" as="geometry"/>
                </mxCell>
                <mxCell id="AKQwnDpZvUHBcNmQF-iE-376" value="0" style="rounded=0;whiteSpace=wrap;html=1;fontSize=12;fontColor=none;strokeColor=#000000;strokeWidth=2;fillColor=none;gradientColor=none;fontStyle=1;rotation=90;horizontal=0;noLabel=1;" parent="1" vertex="1">
                    <mxGeometry x="710.8529411764705" y="415.41795030888346" width="16.470588235294116" height="16.1525803231811" as="geometry"/>
                </mxCell>
                <mxCell id="AKQwnDpZvUHBcNmQF-iE-377" value="1" style="rounded=0;whiteSpace=wrap;html=1;fontSize=12;fontColor=none;strokeColor=#000000;strokeWidth=2;fillColor=#7EA6E0;gradientColor=none;fontStyle=1;rotation=90;horizontal=0;noLabel=1;" parent="1" vertex="1">
                    <mxGeometry x="710.8529411764705" y="431.57053063206456" width="16.470588235294116" height="16.1525803231811" as="geometry"/>
                </mxCell>
                <mxCell id="AKQwnDpZvUHBcNmQF-iE-378" value="2" style="rounded=0;whiteSpace=wrap;html=1;fontSize=12;fontColor=none;strokeColor=#000000;strokeWidth=2;fillColor=#7EA6E0;gradientColor=none;fontStyle=1;rotation=90;horizontal=0;noLabel=1;" parent="1" vertex="1">
                    <mxGeometry x="710.8529411764705" y="447.7231109552456" width="16.470588235294116" height="16.1525803231811" as="geometry"/>
                </mxCell>
                <mxCell id="AKQwnDpZvUHBcNmQF-iE-379" value="3" style="rounded=0;whiteSpace=wrap;html=1;fontSize=12;fontColor=none;strokeColor=#000000;strokeWidth=2;fillColor=#7EA6E0;gradientColor=none;fontStyle=1;rotation=90;horizontal=0;noLabel=1;" parent="1" vertex="1">
                    <mxGeometry x="710.8529411764705" y="463.87569127842676" width="16.470588235294116" height="16.1525803231811" as="geometry"/>
                </mxCell>
                <mxCell id="AKQwnDpZvUHBcNmQF-iE-380" value="1" style="rounded=0;whiteSpace=wrap;html=1;fontSize=12;fontColor=none;strokeColor=#000000;strokeWidth=2;fillColor=#7EA6E0;gradientColor=none;fontStyle=1;rotation=90;horizontal=0;noLabel=1;" parent="1" vertex="1">
                    <mxGeometry x="727.3235294117646" y="366.96020933934017" width="16.470588235294116" height="16.1525803231811" as="geometry"/>
                </mxCell>
                <mxCell id="AKQwnDpZvUHBcNmQF-iE-381" value="2" style="rounded=0;whiteSpace=wrap;html=1;fontSize=12;fontColor=none;strokeColor=#000000;strokeWidth=2;fillColor=#7EA6E0;gradientColor=none;fontStyle=1;rotation=90;horizontal=0;noLabel=1;" parent="1" vertex="1">
                    <mxGeometry x="727.3235294117646" y="383.11278966252127" width="16.470588235294116" height="16.1525803231811" as="geometry"/>
                </mxCell>
                <mxCell id="AKQwnDpZvUHBcNmQF-iE-382" value="3" style="rounded=0;whiteSpace=wrap;html=1;fontSize=12;fontColor=none;strokeColor=#000000;strokeWidth=2;fillColor=#7EA6E0;gradientColor=none;fontStyle=1;rotation=90;horizontal=0;noLabel=1;" parent="1" vertex="1">
                    <mxGeometry x="727.3235294117646" y="399.26536998570236" width="16.470588235294116" height="16.1525803231811" as="geometry"/>
                </mxCell>
                <mxCell id="AKQwnDpZvUHBcNmQF-iE-383" value="0" style="rounded=0;whiteSpace=wrap;html=1;fontSize=12;fontColor=none;strokeColor=#000000;strokeWidth=2;fillColor=#7EA6E0;gradientColor=none;fontStyle=1;rotation=90;horizontal=0;noLabel=1;" parent="1" vertex="1">
                    <mxGeometry x="727.3235294117646" y="415.41795030888346" width="16.470588235294116" height="16.1525803231811" as="geometry"/>
                </mxCell>
                <mxCell id="AKQwnDpZvUHBcNmQF-iE-384" value="1" style="rounded=0;whiteSpace=wrap;html=1;fontSize=12;fontColor=none;strokeColor=#000000;strokeWidth=2;fillColor=none;gradientColor=none;fontStyle=1;rotation=90;horizontal=0;noLabel=1;" parent="1" vertex="1">
                    <mxGeometry x="727.3235294117646" y="431.57053063206456" width="16.470588235294116" height="16.1525803231811" as="geometry"/>
                </mxCell>
                <mxCell id="AKQwnDpZvUHBcNmQF-iE-385" value="2" style="rounded=0;whiteSpace=wrap;html=1;fontSize=12;fontColor=none;strokeColor=#000000;strokeWidth=2;fillColor=#7EA6E0;gradientColor=none;fontStyle=1;rotation=90;horizontal=0;noLabel=1;" parent="1" vertex="1">
                    <mxGeometry x="727.3235294117646" y="447.7231109552456" width="16.470588235294116" height="16.1525803231811" as="geometry"/>
                </mxCell>
                <mxCell id="AKQwnDpZvUHBcNmQF-iE-386" value="3" style="rounded=0;whiteSpace=wrap;html=1;fontSize=12;fontColor=none;strokeColor=#000000;strokeWidth=2;fillColor=#7EA6E0;gradientColor=none;fontStyle=1;rotation=90;horizontal=0;noLabel=1;" parent="1" vertex="1">
                    <mxGeometry x="727.3235294117646" y="463.87569127842676" width="16.470588235294116" height="16.1525803231811" as="geometry"/>
                </mxCell>
                <mxCell id="AKQwnDpZvUHBcNmQF-iE-397" value="+" style="ellipse;whiteSpace=wrap;html=1;aspect=fixed;strokeColor=#000000;fillColor=#FFFFFF;verticalAlign=middle;fontColor=#333333;strokeWidth=2;fontStyle=1;fontSize=12;" parent="1" vertex="1">
                    <mxGeometry x="760.2647058823529" y="394.3226804068089" width="9.737066911255587" height="9.737066911255587" as="geometry"/>
                </mxCell>
                <mxCell id="AKQwnDpZvUHBcNmQF-iE-398" style="rounded=0;orthogonalLoop=1;jettySize=auto;html=1;exitX=0;exitY=0;exitDx=0;exitDy=0;entryX=0;entryY=0;entryDx=0;entryDy=0;strokeWidth=2;fontSize=12;" parent="1" source="AKQwnDpZvUHBcNmQF-iE-381" target="AKQwnDpZvUHBcNmQF-iE-397" edge="1">
                    <mxGeometry relative="1" as="geometry"/>
                </mxCell>
                <mxCell id="AKQwnDpZvUHBcNmQF-iE-399" value="+" style="ellipse;whiteSpace=wrap;html=1;aspect=fixed;strokeColor=#000000;fillColor=#FFFFFF;verticalAlign=middle;fontColor=#333333;strokeWidth=2;fontStyle=1;fontSize=12;" parent="1" vertex="1">
                    <mxGeometry x="760.2647058823529" y="410.3702689578894" width="9.737066911255587" height="9.737066911255587" as="geometry"/>
                </mxCell>
                <mxCell id="AKQwnDpZvUHBcNmQF-iE-400" style="edgeStyle=none;rounded=0;orthogonalLoop=1;jettySize=auto;html=1;exitX=1;exitY=0;exitDx=0;exitDy=0;entryX=0;entryY=0;entryDx=0;entryDy=0;strokeWidth=2;fontSize=12;" parent="1" source="AKQwnDpZvUHBcNmQF-iE-381" target="AKQwnDpZvUHBcNmQF-iE-399" edge="1">
                    <mxGeometry relative="1" as="geometry"/>
                </mxCell>
                <mxCell id="AKQwnDpZvUHBcNmQF-iE-401" value="+" style="ellipse;whiteSpace=wrap;html=1;aspect=fixed;strokeColor=#000000;fillColor=#FFFFFF;verticalAlign=middle;fontColor=#333333;strokeWidth=2;fontStyle=1;fontSize=12;" parent="1" vertex="1">
                    <mxGeometry x="760.2647058823529" y="426.6278410531711" width="9.737066911255587" height="9.737066911255587" as="geometry"/>
                </mxCell>
                <mxCell id="AKQwnDpZvUHBcNmQF-iE-402" style="edgeStyle=none;rounded=0;orthogonalLoop=1;jettySize=auto;html=1;exitX=0;exitY=0;exitDx=0;exitDy=0;strokeWidth=2;fontSize=12;" parent="1" source="AKQwnDpZvUHBcNmQF-iE-383" target="AKQwnDpZvUHBcNmQF-iE-401" edge="1">
                    <mxGeometry relative="1" as="geometry"/>
                </mxCell>
                <mxCell id="AKQwnDpZvUHBcNmQF-iE-403" value="+" style="ellipse;whiteSpace=wrap;html=1;aspect=fixed;strokeColor=#000000;fillColor=#FFFFFF;verticalAlign=middle;fontColor=#333333;strokeWidth=2;fontStyle=1;fontSize=12;" parent="1" vertex="1">
                    <mxGeometry x="760.2647058823529" y="442.78042137635225" width="9.737066911255587" height="9.737066911255587" as="geometry"/>
                </mxCell>
                <mxCell id="AKQwnDpZvUHBcNmQF-iE-404" style="edgeStyle=none;rounded=0;orthogonalLoop=1;jettySize=auto;html=1;exitX=0;exitY=0;exitDx=0;exitDy=0;entryX=0;entryY=0;entryDx=0;entryDy=0;strokeWidth=2;fontSize=12;" parent="1" source="AKQwnDpZvUHBcNmQF-iE-384" target="AKQwnDpZvUHBcNmQF-iE-403" edge="1">
                    <mxGeometry relative="1" as="geometry"/>
                </mxCell>
                <mxCell id="AKQwnDpZvUHBcNmQF-iE-406" value="0" style="rounded=0;whiteSpace=wrap;html=1;fontSize=12;fontColor=none;strokeColor=#000000;strokeWidth=2;fillColor=#7EA6E0;gradientColor=none;fontStyle=1;rotation=90;horizontal=0;noLabel=1;" parent="1" vertex="1">
                    <mxGeometry x="788.2647058823529" y="391.1890798241118" width="16.470588235294116" height="16.1525803231811" as="geometry"/>
                </mxCell>
                <mxCell id="AKQwnDpZvUHBcNmQF-iE-407" style="edgeStyle=none;rounded=0;orthogonalLoop=1;jettySize=auto;html=1;entryX=0.5;entryY=1;entryDx=0;entryDy=0;strokeWidth=2;fontSize=12;" parent="1" source="AKQwnDpZvUHBcNmQF-iE-397" target="AKQwnDpZvUHBcNmQF-iE-406" edge="1">
                    <mxGeometry relative="1" as="geometry"/>
                </mxCell>
                <mxCell id="AKQwnDpZvUHBcNmQF-iE-408" value="1" style="rounded=0;whiteSpace=wrap;html=1;fontSize=12;fontColor=none;strokeColor=#000000;strokeWidth=2;fillColor=#7EA6E0;gradientColor=none;fontStyle=1;rotation=90;horizontal=0;noLabel=1;" parent="1" vertex="1">
                    <mxGeometry x="788.2647058823529" y="407.3416601472929" width="16.470588235294116" height="16.1525803231811" as="geometry"/>
                </mxCell>
                <mxCell id="AKQwnDpZvUHBcNmQF-iE-409" style="edgeStyle=none;rounded=0;orthogonalLoop=1;jettySize=auto;html=1;entryX=0.5;entryY=1;entryDx=0;entryDy=0;strokeWidth=2;fontSize=12;" parent="1" source="AKQwnDpZvUHBcNmQF-iE-399" target="AKQwnDpZvUHBcNmQF-iE-408" edge="1">
                    <mxGeometry relative="1" as="geometry"/>
                </mxCell>
                <mxCell id="AKQwnDpZvUHBcNmQF-iE-410" value="2" style="rounded=0;whiteSpace=wrap;html=1;fontSize=12;fontColor=none;strokeColor=#000000;strokeWidth=2;fillColor=#7EA6E0;gradientColor=none;fontStyle=1;rotation=90;horizontal=0;noLabel=1;" parent="1" vertex="1">
                    <mxGeometry x="788.2647058823529" y="423.494240470474" width="16.470588235294116" height="16.1525803231811" as="geometry"/>
                </mxCell>
                <mxCell id="AKQwnDpZvUHBcNmQF-iE-411" style="edgeStyle=none;rounded=0;orthogonalLoop=1;jettySize=auto;html=1;entryX=0.5;entryY=1;entryDx=0;entryDy=0;strokeWidth=2;fontSize=12;" parent="1" source="AKQwnDpZvUHBcNmQF-iE-401" target="AKQwnDpZvUHBcNmQF-iE-410" edge="1">
                    <mxGeometry relative="1" as="geometry"/>
                </mxCell>
                <mxCell id="AKQwnDpZvUHBcNmQF-iE-412" value="3" style="rounded=0;whiteSpace=wrap;html=1;fontSize=12;fontColor=none;strokeColor=#000000;strokeWidth=2;fillColor=#7EA6E0;gradientColor=none;fontStyle=1;rotation=90;horizontal=0;noLabel=1;" parent="1" vertex="1">
                    <mxGeometry x="788.2647058823529" y="439.6468207936551" width="16.470588235294116" height="16.1525803231811" as="geometry"/>
                </mxCell>
                <mxCell id="AKQwnDpZvUHBcNmQF-iE-413" style="edgeStyle=none;rounded=0;orthogonalLoop=1;jettySize=auto;html=1;entryX=0.5;entryY=1;entryDx=0;entryDy=0;strokeWidth=2;fontSize=12;" parent="1" source="AKQwnDpZvUHBcNmQF-iE-403" target="AKQwnDpZvUHBcNmQF-iE-412" edge="1">
                    <mxGeometry relative="1" as="geometry"/>
                </mxCell>
                <mxCell id="AKQwnDpZvUHBcNmQF-iE-414" value="0" style="rounded=0;whiteSpace=wrap;html=1;fontSize=12;fontColor=none;strokeColor=#000000;strokeWidth=2;fillColor=#7EA6E0;gradientColor=none;fontStyle=1;rotation=90;horizontal=0;noLabel=1;" parent="1" vertex="1">
                    <mxGeometry x="788.2647058823529" y="455.7994011168362" width="16.470588235294116" height="16.1525803231811" as="geometry"/>
                </mxCell>
                <mxCell id="AKQwnDpZvUHBcNmQF-iE-422" value="0" style="rounded=0;whiteSpace=wrap;html=1;fontSize=12;fontColor=none;strokeColor=#000000;strokeWidth=2;fillColor=#FF3399;gradientColor=none;fontStyle=1;rotation=90;horizontal=0;noLabel=1;" parent="1" vertex="1">
                    <mxGeometry x="818.3235294117646" y="350" width="16.470588235294116" height="16.1525803231811" as="geometry"/>
                </mxCell>
                <mxCell id="AKQwnDpZvUHBcNmQF-iE-423" value="1" style="rounded=0;whiteSpace=wrap;html=1;fontSize=12;fontColor=none;strokeColor=#000000;strokeWidth=2;fillColor=#FF3399;gradientColor=none;fontStyle=1;rotation=90;horizontal=0;noLabel=1;" parent="1" vertex="1">
                    <mxGeometry x="818.3235294117646" y="366.1525803231811" width="16.470588235294116" height="16.1525803231811" as="geometry"/>
                </mxCell>
                <mxCell id="AKQwnDpZvUHBcNmQF-iE-424" value="2" style="rounded=0;whiteSpace=wrap;html=1;fontSize=12;fontColor=none;strokeColor=#000000;strokeWidth=2;fillColor=#FF3399;gradientColor=none;fontStyle=1;rotation=90;horizontal=0;noLabel=1;" parent="1" vertex="1">
                    <mxGeometry x="818.3235294117646" y="382.3051606463622" width="16.470588235294116" height="16.1525803231811" as="geometry"/>
                </mxCell>
                <mxCell id="AKQwnDpZvUHBcNmQF-iE-425" value="3" style="rounded=0;whiteSpace=wrap;html=1;fontSize=12;fontColor=none;strokeColor=#000000;strokeWidth=2;fillColor=#FF3399;gradientColor=none;fontStyle=1;rotation=90;horizontal=0;noLabel=1;" parent="1" vertex="1">
                    <mxGeometry x="818.3235294117646" y="398.4577409695433" width="16.470588235294116" height="16.1525803231811" as="geometry"/>
                </mxCell>
                <mxCell id="AKQwnDpZvUHBcNmQF-iE-426" value="0" style="rounded=0;whiteSpace=wrap;html=1;fontSize=12;fontColor=none;strokeColor=#000000;strokeWidth=2;fillColor=none;gradientColor=none;fontStyle=1;rotation=90;horizontal=0;noLabel=1;" parent="1" vertex="1">
                    <mxGeometry x="818.3235294117646" y="414.6103212927244" width="16.470588235294116" height="16.1525803231811" as="geometry"/>
                </mxCell>
                <mxCell id="AKQwnDpZvUHBcNmQF-iE-427" value="1" style="rounded=0;whiteSpace=wrap;html=1;fontSize=12;fontColor=none;strokeColor=#000000;strokeWidth=2;fillColor=#FF3399;gradientColor=none;fontStyle=1;rotation=90;horizontal=0;noLabel=1;" parent="1" vertex="1">
                    <mxGeometry x="818.3235294117646" y="430.7629016159055" width="16.470588235294116" height="16.1525803231811" as="geometry"/>
                </mxCell>
                <mxCell id="AKQwnDpZvUHBcNmQF-iE-428" value="2" style="rounded=0;whiteSpace=wrap;html=1;fontSize=12;fontColor=none;strokeColor=#000000;strokeWidth=2;fillColor=#FF3399;gradientColor=none;fontStyle=1;rotation=90;horizontal=0;noLabel=1;" parent="1" vertex="1">
                    <mxGeometry x="818.3235294117646" y="446.9154819390866" width="16.470588235294116" height="16.1525803231811" as="geometry"/>
                </mxCell>
                <mxCell id="AKQwnDpZvUHBcNmQF-iE-429" value="3" style="rounded=0;whiteSpace=wrap;html=1;fontSize=12;fontColor=none;strokeColor=#000000;strokeWidth=2;fillColor=#FF3399;gradientColor=none;fontStyle=1;rotation=90;horizontal=0;noLabel=1;" parent="1" vertex="1">
                    <mxGeometry x="818.3235294117646" y="463.0680622622677" width="16.470588235294116" height="16.1525803231811" as="geometry"/>
                </mxCell>
                <mxCell id="AKQwnDpZvUHBcNmQF-iE-430" value="1" style="rounded=0;whiteSpace=wrap;html=1;fontSize=12;fontColor=none;strokeColor=#000000;strokeWidth=2;fillColor=#FF3399;gradientColor=none;fontStyle=1;rotation=90;horizontal=0;noLabel=1;" parent="1" vertex="1">
                    <mxGeometry x="834.7941176470588" y="366.1525803231811" width="16.470588235294116" height="16.1525803231811" as="geometry"/>
                </mxCell>
                <mxCell id="AKQwnDpZvUHBcNmQF-iE-431" value="2" style="rounded=0;whiteSpace=wrap;html=1;fontSize=12;fontColor=none;strokeColor=#000000;strokeWidth=2;fillColor=#FF3399;gradientColor=none;fontStyle=1;rotation=90;horizontal=0;noLabel=1;" parent="1" vertex="1">
                    <mxGeometry x="834.7941176470588" y="382.3051606463622" width="16.470588235294116" height="16.1525803231811" as="geometry"/>
                </mxCell>
                <mxCell id="AKQwnDpZvUHBcNmQF-iE-432" value="3" style="rounded=0;whiteSpace=wrap;html=1;fontSize=12;fontColor=none;strokeColor=#000000;strokeWidth=2;fillColor=#FF3399;gradientColor=none;fontStyle=1;rotation=90;horizontal=0;noLabel=1;" parent="1" vertex="1">
                    <mxGeometry x="834.7941176470588" y="398.4577409695433" width="16.470588235294116" height="16.1525803231811" as="geometry"/>
                </mxCell>
                <mxCell id="AKQwnDpZvUHBcNmQF-iE-433" value="0" style="rounded=0;whiteSpace=wrap;html=1;fontSize=12;fontColor=none;strokeColor=#000000;strokeWidth=2;fillColor=#FF3399;gradientColor=none;fontStyle=1;rotation=90;horizontal=0;noLabel=1;" parent="1" vertex="1">
                    <mxGeometry x="834.7941176470588" y="414.6103212927244" width="16.470588235294116" height="16.1525803231811" as="geometry"/>
                </mxCell>
                <mxCell id="AKQwnDpZvUHBcNmQF-iE-434" value="1" style="rounded=0;whiteSpace=wrap;html=1;fontSize=12;fontColor=none;strokeColor=#000000;strokeWidth=2;fillColor=none;gradientColor=none;fontStyle=1;rotation=90;horizontal=0;noLabel=1;" parent="1" vertex="1">
                    <mxGeometry x="834.7941176470588" y="430.7629016159055" width="16.470588235294116" height="16.1525803231811" as="geometry"/>
                </mxCell>
                <mxCell id="AKQwnDpZvUHBcNmQF-iE-435" value="2" style="rounded=0;whiteSpace=wrap;html=1;fontSize=12;fontColor=none;strokeColor=#000000;strokeWidth=2;fillColor=#FF3399;gradientColor=none;fontStyle=1;rotation=90;horizontal=0;noLabel=1;" parent="1" vertex="1">
                    <mxGeometry x="834.7941176470588" y="446.9154819390866" width="16.470588235294116" height="16.1525803231811" as="geometry"/>
                </mxCell>
                <mxCell id="AKQwnDpZvUHBcNmQF-iE-436" value="3" style="rounded=0;whiteSpace=wrap;html=1;fontSize=12;fontColor=none;strokeColor=#000000;strokeWidth=2;fillColor=#FF3399;gradientColor=none;fontStyle=1;rotation=90;horizontal=0;noLabel=1;" parent="1" vertex="1">
                    <mxGeometry x="834.7941176470588" y="463.0680622622677" width="16.470588235294116" height="16.1525803231811" as="geometry"/>
                </mxCell>
                <mxCell id="AKQwnDpZvUHBcNmQF-iE-447" value="+" style="ellipse;whiteSpace=wrap;html=1;aspect=fixed;strokeColor=#000000;fillColor=#FFFFFF;verticalAlign=middle;fontColor=#333333;strokeWidth=2;fontStyle=1;fontSize=12;" parent="1" vertex="1">
                    <mxGeometry x="867.7352941176471" y="393.5150513906499" width="9.737066911255587" height="9.737066911255587" as="geometry"/>
                </mxCell>
                <mxCell id="AKQwnDpZvUHBcNmQF-iE-448" style="rounded=0;orthogonalLoop=1;jettySize=auto;html=1;exitX=0;exitY=0;exitDx=0;exitDy=0;entryX=0;entryY=0;entryDx=0;entryDy=0;strokeWidth=2;fontSize=12;" parent="1" source="AKQwnDpZvUHBcNmQF-iE-431" target="AKQwnDpZvUHBcNmQF-iE-447" edge="1">
                    <mxGeometry relative="1" as="geometry"/>
                </mxCell>
                <mxCell id="AKQwnDpZvUHBcNmQF-iE-449" value="+" style="ellipse;whiteSpace=wrap;html=1;aspect=fixed;strokeColor=#000000;fillColor=#FFFFFF;verticalAlign=middle;fontColor=#333333;strokeWidth=2;fontStyle=1;fontSize=12;" parent="1" vertex="1">
                    <mxGeometry x="867.7352941176471" y="409.5626399417303" width="9.737066911255587" height="9.737066911255587" as="geometry"/>
                </mxCell>
                <mxCell id="AKQwnDpZvUHBcNmQF-iE-450" style="edgeStyle=none;rounded=0;orthogonalLoop=1;jettySize=auto;html=1;exitX=1;exitY=0;exitDx=0;exitDy=0;entryX=0;entryY=0;entryDx=0;entryDy=0;strokeWidth=2;fontSize=12;" parent="1" source="AKQwnDpZvUHBcNmQF-iE-431" target="AKQwnDpZvUHBcNmQF-iE-449" edge="1">
                    <mxGeometry relative="1" as="geometry"/>
                </mxCell>
                <mxCell id="AKQwnDpZvUHBcNmQF-iE-451" value="+" style="ellipse;whiteSpace=wrap;html=1;aspect=fixed;strokeColor=#000000;fillColor=#FFFFFF;verticalAlign=middle;fontColor=#333333;strokeWidth=2;fontStyle=1;fontSize=12;" parent="1" vertex="1">
                    <mxGeometry x="867.7352941176471" y="425.8202120370121" width="9.737066911255587" height="9.737066911255587" as="geometry"/>
                </mxCell>
                <mxCell id="AKQwnDpZvUHBcNmQF-iE-452" style="edgeStyle=none;rounded=0;orthogonalLoop=1;jettySize=auto;html=1;exitX=0;exitY=0;exitDx=0;exitDy=0;strokeWidth=2;fontSize=12;" parent="1" source="AKQwnDpZvUHBcNmQF-iE-433" target="AKQwnDpZvUHBcNmQF-iE-451" edge="1">
                    <mxGeometry relative="1" as="geometry"/>
                </mxCell>
                <mxCell id="AKQwnDpZvUHBcNmQF-iE-453" value="+" style="ellipse;whiteSpace=wrap;html=1;aspect=fixed;strokeColor=#000000;fillColor=#FFFFFF;verticalAlign=middle;fontColor=#333333;strokeWidth=2;fontStyle=1;fontSize=12;" parent="1" vertex="1">
                    <mxGeometry x="867.7352941176471" y="441.9727923601932" width="9.737066911255587" height="9.737066911255587" as="geometry"/>
                </mxCell>
                <mxCell id="AKQwnDpZvUHBcNmQF-iE-454" style="edgeStyle=none;rounded=0;orthogonalLoop=1;jettySize=auto;html=1;exitX=0;exitY=0;exitDx=0;exitDy=0;entryX=0;entryY=0;entryDx=0;entryDy=0;strokeWidth=2;fontSize=12;" parent="1" source="AKQwnDpZvUHBcNmQF-iE-434" target="AKQwnDpZvUHBcNmQF-iE-453" edge="1">
                    <mxGeometry relative="1" as="geometry"/>
                </mxCell>
                <mxCell id="AKQwnDpZvUHBcNmQF-iE-456" value="0" style="rounded=0;whiteSpace=wrap;html=1;fontSize=12;fontColor=none;strokeColor=#000000;strokeWidth=2;fillColor=#FF3399;gradientColor=none;fontStyle=1;rotation=90;horizontal=0;noLabel=1;" parent="1" vertex="1">
                    <mxGeometry x="895.7352941176471" y="390.3814508079527" width="16.470588235294116" height="16.1525803231811" as="geometry"/>
                </mxCell>
                <mxCell id="AKQwnDpZvUHBcNmQF-iE-457" style="edgeStyle=none;rounded=0;orthogonalLoop=1;jettySize=auto;html=1;entryX=0.5;entryY=1;entryDx=0;entryDy=0;strokeWidth=2;fontSize=12;" parent="1" source="AKQwnDpZvUHBcNmQF-iE-447" target="AKQwnDpZvUHBcNmQF-iE-456" edge="1">
                    <mxGeometry relative="1" as="geometry"/>
                </mxCell>
                <mxCell id="AKQwnDpZvUHBcNmQF-iE-458" value="1" style="rounded=0;whiteSpace=wrap;html=1;fontSize=12;fontColor=none;strokeColor=#000000;strokeWidth=2;fillColor=#FF3399;gradientColor=none;fontStyle=1;rotation=90;horizontal=0;noLabel=1;" parent="1" vertex="1">
                    <mxGeometry x="895.7352941176471" y="406.5340311311338" width="16.470588235294116" height="16.1525803231811" as="geometry"/>
                </mxCell>
                <mxCell id="AKQwnDpZvUHBcNmQF-iE-459" style="edgeStyle=none;rounded=0;orthogonalLoop=1;jettySize=auto;html=1;entryX=0.5;entryY=1;entryDx=0;entryDy=0;strokeWidth=2;fontSize=12;" parent="1" source="AKQwnDpZvUHBcNmQF-iE-449" target="AKQwnDpZvUHBcNmQF-iE-458" edge="1">
                    <mxGeometry relative="1" as="geometry"/>
                </mxCell>
                <mxCell id="AKQwnDpZvUHBcNmQF-iE-460" value="2" style="rounded=0;whiteSpace=wrap;html=1;fontSize=12;fontColor=none;strokeColor=#000000;strokeWidth=2;fillColor=#FF3399;gradientColor=none;fontStyle=1;rotation=90;horizontal=0;noLabel=1;" parent="1" vertex="1">
                    <mxGeometry x="895.7352941176471" y="422.6866114543149" width="16.470588235294116" height="16.1525803231811" as="geometry"/>
                </mxCell>
                <mxCell id="AKQwnDpZvUHBcNmQF-iE-461" style="edgeStyle=none;rounded=0;orthogonalLoop=1;jettySize=auto;html=1;entryX=0.5;entryY=1;entryDx=0;entryDy=0;strokeWidth=2;fontSize=12;" parent="1" source="AKQwnDpZvUHBcNmQF-iE-451" target="AKQwnDpZvUHBcNmQF-iE-460" edge="1">
                    <mxGeometry relative="1" as="geometry"/>
                </mxCell>
                <mxCell id="AKQwnDpZvUHBcNmQF-iE-462" value="3" style="rounded=0;whiteSpace=wrap;html=1;fontSize=12;fontColor=none;strokeColor=#000000;strokeWidth=2;fillColor=#FF3399;gradientColor=none;fontStyle=1;rotation=90;horizontal=0;noLabel=1;" parent="1" vertex="1">
                    <mxGeometry x="895.7352941176471" y="438.839191777496" width="16.470588235294116" height="16.1525803231811" as="geometry"/>
                </mxCell>
                <mxCell id="AKQwnDpZvUHBcNmQF-iE-463" style="edgeStyle=none;rounded=0;orthogonalLoop=1;jettySize=auto;html=1;entryX=0.5;entryY=1;entryDx=0;entryDy=0;strokeWidth=2;fontSize=12;" parent="1" source="AKQwnDpZvUHBcNmQF-iE-453" target="AKQwnDpZvUHBcNmQF-iE-462" edge="1">
                    <mxGeometry relative="1" as="geometry"/>
                </mxCell>
                <mxCell id="AKQwnDpZvUHBcNmQF-iE-464" value="0" style="rounded=0;whiteSpace=wrap;html=1;fontSize=12;fontColor=none;strokeColor=#000000;strokeWidth=2;fillColor=#FF3399;gradientColor=none;fontStyle=1;rotation=90;horizontal=0;noLabel=1;" parent="1" vertex="1">
                    <mxGeometry x="895.7352941176471" y="454.9917721006771" width="16.470588235294116" height="16.1525803231811" as="geometry"/>
                </mxCell>
                <mxCell id="AKQwnDpZvUHBcNmQF-iE-472" value="0" style="rounded=0;whiteSpace=wrap;html=1;fontSize=12;fontColor=none;strokeColor=#000000;strokeWidth=2;fillColor=#D5E8D4;gradientColor=none;fontStyle=1;rotation=90;horizontal=0;noLabel=1;" parent="1" vertex="1">
                    <mxGeometry x="926.6176470588234" y="351.0579940111683" width="16.470588235294116" height="16.1525803231811" as="geometry"/>
                </mxCell>
                <mxCell id="AKQwnDpZvUHBcNmQF-iE-473" value="1" style="rounded=0;whiteSpace=wrap;html=1;fontSize=12;fontColor=none;strokeColor=#000000;strokeWidth=2;fillColor=#D5E8D4;gradientColor=none;fontStyle=1;rotation=90;horizontal=0;noLabel=1;" parent="1" vertex="1">
                    <mxGeometry x="926.6176470588234" y="367.2105743343494" width="16.470588235294116" height="16.1525803231811" as="geometry"/>
                </mxCell>
                <mxCell id="AKQwnDpZvUHBcNmQF-iE-474" value="2" style="rounded=0;whiteSpace=wrap;html=1;fontSize=12;fontColor=none;strokeColor=#000000;strokeWidth=2;fillColor=#D5E8D4;gradientColor=none;fontStyle=1;rotation=90;horizontal=0;noLabel=1;" parent="1" vertex="1">
                    <mxGeometry x="926.6176470588234" y="383.3631546575305" width="16.470588235294116" height="16.1525803231811" as="geometry"/>
                </mxCell>
                <mxCell id="AKQwnDpZvUHBcNmQF-iE-475" value="3" style="rounded=0;whiteSpace=wrap;html=1;fontSize=12;fontColor=none;strokeColor=#000000;strokeWidth=2;fillColor=#D5E8D4;gradientColor=none;fontStyle=1;rotation=90;horizontal=0;noLabel=1;" parent="1" vertex="1">
                    <mxGeometry x="926.6176470588234" y="399.5157349807116" width="16.470588235294116" height="16.1525803231811" as="geometry"/>
                </mxCell>
                <mxCell id="AKQwnDpZvUHBcNmQF-iE-476" value="0" style="rounded=0;whiteSpace=wrap;html=1;fontSize=12;fontColor=none;strokeColor=#000000;strokeWidth=2;fillColor=none;gradientColor=none;fontStyle=1;rotation=90;horizontal=0;noLabel=1;" parent="1" vertex="1">
                    <mxGeometry x="926.6176470588234" y="415.6683153038927" width="16.470588235294116" height="16.1525803231811" as="geometry"/>
                </mxCell>
                <mxCell id="AKQwnDpZvUHBcNmQF-iE-477" value="1" style="rounded=0;whiteSpace=wrap;html=1;fontSize=12;fontColor=none;strokeColor=#000000;strokeWidth=2;fillColor=#D5E8D4;gradientColor=none;fontStyle=1;rotation=90;horizontal=0;noLabel=1;" parent="1" vertex="1">
                    <mxGeometry x="926.6176470588234" y="431.8208956270738" width="16.470588235294116" height="16.1525803231811" as="geometry"/>
                </mxCell>
                <mxCell id="AKQwnDpZvUHBcNmQF-iE-478" value="2" style="rounded=0;whiteSpace=wrap;html=1;fontSize=12;fontColor=none;strokeColor=#000000;strokeWidth=2;fillColor=#D5E8D4;gradientColor=none;fontStyle=1;rotation=90;horizontal=0;noLabel=1;" parent="1" vertex="1">
                    <mxGeometry x="926.6176470588234" y="447.9734759502549" width="16.470588235294116" height="16.1525803231811" as="geometry"/>
                </mxCell>
                <mxCell id="AKQwnDpZvUHBcNmQF-iE-479" value="3" style="rounded=0;whiteSpace=wrap;html=1;fontSize=12;fontColor=none;strokeColor=#000000;strokeWidth=2;fillColor=#D5E8D4;gradientColor=none;fontStyle=1;rotation=90;horizontal=0;noLabel=1;" parent="1" vertex="1">
                    <mxGeometry x="926.6176470588234" y="464.126056273436" width="16.470588235294116" height="16.1525803231811" as="geometry"/>
                </mxCell>
                <mxCell id="AKQwnDpZvUHBcNmQF-iE-480" value="1" style="rounded=0;whiteSpace=wrap;html=1;fontSize=12;fontColor=none;strokeColor=#000000;strokeWidth=2;fillColor=#D5E8D4;gradientColor=none;fontStyle=1;rotation=90;horizontal=0;noLabel=1;" parent="1" vertex="1">
                    <mxGeometry x="943.0882352941176" y="367.2105743343494" width="16.470588235294116" height="16.1525803231811" as="geometry"/>
                </mxCell>
                <mxCell id="AKQwnDpZvUHBcNmQF-iE-481" value="2" style="rounded=0;whiteSpace=wrap;html=1;fontSize=12;fontColor=none;strokeColor=#000000;strokeWidth=2;fillColor=#D5E8D4;gradientColor=none;fontStyle=1;rotation=90;horizontal=0;noLabel=1;" parent="1" vertex="1">
                    <mxGeometry x="943.0882352941176" y="383.3631546575305" width="16.470588235294116" height="16.1525803231811" as="geometry"/>
                </mxCell>
                <mxCell id="AKQwnDpZvUHBcNmQF-iE-482" value="3" style="rounded=0;whiteSpace=wrap;html=1;fontSize=12;fontColor=none;strokeColor=#000000;strokeWidth=2;fillColor=#D5E8D4;gradientColor=none;fontStyle=1;rotation=90;horizontal=0;noLabel=1;" parent="1" vertex="1">
                    <mxGeometry x="943.0882352941176" y="399.5157349807116" width="16.470588235294116" height="16.1525803231811" as="geometry"/>
                </mxCell>
                <mxCell id="AKQwnDpZvUHBcNmQF-iE-483" value="0" style="rounded=0;whiteSpace=wrap;html=1;fontSize=12;fontColor=none;strokeColor=#000000;strokeWidth=2;fillColor=#D5E8D4;gradientColor=none;fontStyle=1;rotation=90;horizontal=0;noLabel=1;" parent="1" vertex="1">
                    <mxGeometry x="943.0882352941176" y="415.6683153038927" width="16.470588235294116" height="16.1525803231811" as="geometry"/>
                </mxCell>
                <mxCell id="AKQwnDpZvUHBcNmQF-iE-484" value="1" style="rounded=0;whiteSpace=wrap;html=1;fontSize=12;fontColor=none;strokeColor=#000000;strokeWidth=2;fillColor=none;gradientColor=none;fontStyle=1;rotation=90;horizontal=0;noLabel=1;" parent="1" vertex="1">
                    <mxGeometry x="943.0882352941176" y="431.8208956270738" width="16.470588235294116" height="16.1525803231811" as="geometry"/>
                </mxCell>
                <mxCell id="AKQwnDpZvUHBcNmQF-iE-485" value="2" style="rounded=0;whiteSpace=wrap;html=1;fontSize=12;fontColor=none;strokeColor=#000000;strokeWidth=2;fillColor=#D5E8D4;gradientColor=none;fontStyle=1;rotation=90;horizontal=0;noLabel=1;" parent="1" vertex="1">
                    <mxGeometry x="943.0882352941176" y="447.9734759502549" width="16.470588235294116" height="16.1525803231811" as="geometry"/>
                </mxCell>
                <mxCell id="AKQwnDpZvUHBcNmQF-iE-486" value="3" style="rounded=0;whiteSpace=wrap;html=1;fontSize=12;fontColor=none;strokeColor=#000000;strokeWidth=2;fillColor=#D5E8D4;gradientColor=none;fontStyle=1;rotation=90;horizontal=0;noLabel=1;" parent="1" vertex="1">
                    <mxGeometry x="943.0882352941176" y="464.126056273436" width="16.470588235294116" height="16.1525803231811" as="geometry"/>
                </mxCell>
                <mxCell id="AKQwnDpZvUHBcNmQF-iE-497" value="+" style="ellipse;whiteSpace=wrap;html=1;aspect=fixed;strokeColor=#000000;fillColor=#FFFFFF;verticalAlign=middle;fontColor=#333333;strokeWidth=2;fontStyle=1;fontSize=12;" parent="1" vertex="1">
                    <mxGeometry x="976.0294117647059" y="394.5730454018182" width="9.737066911255587" height="9.737066911255587" as="geometry"/>
                </mxCell>
                <mxCell id="AKQwnDpZvUHBcNmQF-iE-498" style="rounded=0;orthogonalLoop=1;jettySize=auto;html=1;exitX=0;exitY=0;exitDx=0;exitDy=0;entryX=0;entryY=0;entryDx=0;entryDy=0;strokeWidth=2;fontSize=12;" parent="1" source="AKQwnDpZvUHBcNmQF-iE-481" target="AKQwnDpZvUHBcNmQF-iE-497" edge="1">
                    <mxGeometry relative="1" as="geometry"/>
                </mxCell>
                <mxCell id="AKQwnDpZvUHBcNmQF-iE-499" value="+" style="ellipse;whiteSpace=wrap;html=1;aspect=fixed;strokeColor=#000000;fillColor=#FFFFFF;verticalAlign=middle;fontColor=#333333;strokeWidth=2;fontStyle=1;fontSize=12;" parent="1" vertex="1">
                    <mxGeometry x="976.0294117647059" y="410.62063395289863" width="9.737066911255587" height="9.737066911255587" as="geometry"/>
                </mxCell>
                <mxCell id="AKQwnDpZvUHBcNmQF-iE-500" style="edgeStyle=none;rounded=0;orthogonalLoop=1;jettySize=auto;html=1;exitX=1;exitY=0;exitDx=0;exitDy=0;entryX=0;entryY=0;entryDx=0;entryDy=0;strokeWidth=2;fontSize=12;" parent="1" source="AKQwnDpZvUHBcNmQF-iE-481" target="AKQwnDpZvUHBcNmQF-iE-499" edge="1">
                    <mxGeometry relative="1" as="geometry"/>
                </mxCell>
                <mxCell id="AKQwnDpZvUHBcNmQF-iE-501" value="+" style="ellipse;whiteSpace=wrap;html=1;aspect=fixed;strokeColor=#000000;fillColor=#FFFFFF;verticalAlign=middle;fontColor=#333333;strokeWidth=2;fontStyle=1;fontSize=12;" parent="1" vertex="1">
                    <mxGeometry x="976.0294117647059" y="426.87820604818035" width="9.737066911255587" height="9.737066911255587" as="geometry"/>
                </mxCell>
                <mxCell id="AKQwnDpZvUHBcNmQF-iE-502" style="edgeStyle=none;rounded=0;orthogonalLoop=1;jettySize=auto;html=1;exitX=0;exitY=0;exitDx=0;exitDy=0;strokeWidth=2;fontSize=12;" parent="1" source="AKQwnDpZvUHBcNmQF-iE-483" target="AKQwnDpZvUHBcNmQF-iE-501" edge="1">
                    <mxGeometry relative="1" as="geometry"/>
                </mxCell>
                <mxCell id="AKQwnDpZvUHBcNmQF-iE-503" value="+" style="ellipse;whiteSpace=wrap;html=1;aspect=fixed;strokeColor=#000000;fillColor=#FFFFFF;verticalAlign=middle;fontColor=#333333;strokeWidth=2;fontStyle=1;fontSize=12;" parent="1" vertex="1">
                    <mxGeometry x="976.0294117647059" y="443.0307863713615" width="9.737066911255587" height="9.737066911255587" as="geometry"/>
                </mxCell>
                <mxCell id="AKQwnDpZvUHBcNmQF-iE-504" style="edgeStyle=none;rounded=0;orthogonalLoop=1;jettySize=auto;html=1;exitX=0;exitY=0;exitDx=0;exitDy=0;entryX=0;entryY=0;entryDx=0;entryDy=0;strokeWidth=2;fontSize=12;" parent="1" source="AKQwnDpZvUHBcNmQF-iE-484" target="AKQwnDpZvUHBcNmQF-iE-503" edge="1">
                    <mxGeometry relative="1" as="geometry"/>
                </mxCell>
                <mxCell id="AKQwnDpZvUHBcNmQF-iE-506" value="0" style="rounded=0;whiteSpace=wrap;html=1;fontSize=12;fontColor=none;strokeColor=#000000;strokeWidth=2;fillColor=#D5E8D4;gradientColor=none;fontStyle=1;rotation=90;horizontal=0;noLabel=1;" parent="1" vertex="1">
                    <mxGeometry x="1004.0294117647059" y="391.43944481912104" width="16.470588235294116" height="16.1525803231811" as="geometry"/>
                </mxCell>
                <mxCell id="AKQwnDpZvUHBcNmQF-iE-507" style="edgeStyle=none;rounded=0;orthogonalLoop=1;jettySize=auto;html=1;entryX=0.5;entryY=1;entryDx=0;entryDy=0;strokeWidth=2;fontSize=12;" parent="1" source="AKQwnDpZvUHBcNmQF-iE-497" target="AKQwnDpZvUHBcNmQF-iE-506" edge="1">
                    <mxGeometry relative="1" as="geometry"/>
                </mxCell>
                <mxCell id="AKQwnDpZvUHBcNmQF-iE-508" value="1" style="rounded=0;whiteSpace=wrap;html=1;fontSize=12;fontColor=none;strokeColor=#000000;strokeWidth=2;fillColor=#D5E8D4;gradientColor=none;fontStyle=1;rotation=90;horizontal=0;noLabel=1;" parent="1" vertex="1">
                    <mxGeometry x="1004.0294117647059" y="407.5920251423022" width="16.470588235294116" height="16.1525803231811" as="geometry"/>
                </mxCell>
                <mxCell id="AKQwnDpZvUHBcNmQF-iE-509" style="edgeStyle=none;rounded=0;orthogonalLoop=1;jettySize=auto;html=1;entryX=0.5;entryY=1;entryDx=0;entryDy=0;strokeWidth=2;fontSize=12;" parent="1" source="AKQwnDpZvUHBcNmQF-iE-499" target="AKQwnDpZvUHBcNmQF-iE-508" edge="1">
                    <mxGeometry relative="1" as="geometry"/>
                </mxCell>
                <mxCell id="AKQwnDpZvUHBcNmQF-iE-510" value="2" style="rounded=0;whiteSpace=wrap;html=1;fontSize=12;fontColor=none;strokeColor=#000000;strokeWidth=2;fillColor=#D5E8D4;gradientColor=none;fontStyle=1;rotation=90;horizontal=0;noLabel=1;" parent="1" vertex="1">
                    <mxGeometry x="1004.0294117647059" y="423.74460546548323" width="16.470588235294116" height="16.1525803231811" as="geometry"/>
                </mxCell>
                <mxCell id="AKQwnDpZvUHBcNmQF-iE-511" style="edgeStyle=none;rounded=0;orthogonalLoop=1;jettySize=auto;html=1;entryX=0.5;entryY=1;entryDx=0;entryDy=0;strokeWidth=2;fontSize=12;" parent="1" source="AKQwnDpZvUHBcNmQF-iE-501" target="AKQwnDpZvUHBcNmQF-iE-510" edge="1">
                    <mxGeometry relative="1" as="geometry"/>
                </mxCell>
                <mxCell id="AKQwnDpZvUHBcNmQF-iE-512" value="3" style="rounded=0;whiteSpace=wrap;html=1;fontSize=12;fontColor=none;strokeColor=#000000;strokeWidth=2;fillColor=#D5E8D4;gradientColor=none;fontStyle=1;rotation=90;horizontal=0;noLabel=1;" parent="1" vertex="1">
                    <mxGeometry x="1004.0294117647059" y="439.8971857886644" width="16.470588235294116" height="16.1525803231811" as="geometry"/>
                </mxCell>
                <mxCell id="AKQwnDpZvUHBcNmQF-iE-513" style="edgeStyle=none;rounded=0;orthogonalLoop=1;jettySize=auto;html=1;entryX=0.5;entryY=1;entryDx=0;entryDy=0;strokeWidth=2;fontSize=12;" parent="1" source="AKQwnDpZvUHBcNmQF-iE-503" target="AKQwnDpZvUHBcNmQF-iE-512" edge="1">
                    <mxGeometry relative="1" as="geometry"/>
                </mxCell>
                <mxCell id="AKQwnDpZvUHBcNmQF-iE-514" value="0" style="rounded=0;whiteSpace=wrap;html=1;fontSize=12;fontColor=none;strokeColor=#000000;strokeWidth=2;fillColor=#D5E8D4;gradientColor=none;fontStyle=1;rotation=90;horizontal=0;noLabel=1;" parent="1" vertex="1">
                    <mxGeometry x="1004.0294117647059" y="456.04976611184543" width="16.470588235294116" height="16.1525803231811" as="geometry"/>
                </mxCell>
                <mxCell id="AKQwnDpZvUHBcNmQF-iE-522" style="edgeStyle=none;rounded=0;orthogonalLoop=1;jettySize=auto;html=1;strokeWidth=2;fontSize=12;" parent="1" edge="1">
                    <mxGeometry relative="1" as="geometry">
                        <mxPoint x="880.5" y="282" as="targetPoint"/>
                        <mxPoint x="960" y="350" as="sourcePoint"/>
                    </mxGeometry>
                </mxCell>
                <mxCell id="AKQwnDpZvUHBcNmQF-iE-523" value="" style="shape=cube;whiteSpace=wrap;html=1;boundedLbl=1;backgroundOutline=1;darkOpacity=0.05;darkOpacity2=0.1;size=10;rotation=90;fillColor=#00FF00;strokeWidth=2;fontStyle=1;fontSize=12;" parent="1" vertex="1">
                    <mxGeometry x="240.5" y="270.69" width="30" height="25" as="geometry"/>
                </mxCell>
                <mxCell id="AKQwnDpZvUHBcNmQF-iE-524" value="24" style="shape=cube;whiteSpace=wrap;html=1;boundedLbl=1;backgroundOutline=1;darkOpacity=0.05;darkOpacity2=0.1;size=10;rotation=90;fillColor=#FF0000;strokeWidth=2;horizontal=0;fontSize=12;fontStyle=1" parent="1" vertex="1">
                    <mxGeometry x="230" y="281.25" width="30" height="25" as="geometry"/>
                </mxCell>
                <mxCell id="AKQwnDpZvUHBcNmQF-iE-525" value="" style="shape=cube;whiteSpace=wrap;html=1;boundedLbl=1;backgroundOutline=1;darkOpacity=0.05;darkOpacity2=0.1;size=10;rotation=90;fillColor=#00FF00;strokeWidth=2;fontStyle=1;fontSize=12;" parent="1" vertex="1">
                    <mxGeometry x="240" y="250.62" width="30" height="25" as="geometry"/>
                </mxCell>
                <mxCell id="AKQwnDpZvUHBcNmQF-iE-526" value="19" style="shape=cube;whiteSpace=wrap;html=1;boundedLbl=1;backgroundOutline=1;darkOpacity=0.05;darkOpacity2=0.1;size=10;rotation=90;fillColor=#FF0000;strokeWidth=2;horizontal=0;fontSize=12;fontStyle=1" parent="1" vertex="1">
                    <mxGeometry x="230" y="260.62" width="30" height="25" as="geometry"/>
                </mxCell>
                <mxCell id="AKQwnDpZvUHBcNmQF-iE-527" value="" style="shape=cube;whiteSpace=wrap;html=1;boundedLbl=1;backgroundOutline=1;darkOpacity=0.05;darkOpacity2=0.1;size=10;rotation=90;strokeWidth=2;fillColor=#00FF00;fontStyle=1;fontSize=12;" parent="1" vertex="1">
                    <mxGeometry x="240" y="230.62" width="30" height="25" as="geometry"/>
                </mxCell>
                <mxCell id="AKQwnDpZvUHBcNmQF-iE-528" value="" style="shape=cube;whiteSpace=wrap;html=1;boundedLbl=1;backgroundOutline=1;darkOpacity=0.05;darkOpacity2=0.1;size=10;rotation=90;fillColor=#00FF00;strokeWidth=2;fontStyle=1;fontSize=12;" parent="1" vertex="1">
                    <mxGeometry x="240" y="210.62" width="30" height="25" as="geometry"/>
                </mxCell>
                <mxCell id="AKQwnDpZvUHBcNmQF-iE-529" value="" style="shape=cube;whiteSpace=wrap;html=1;boundedLbl=1;backgroundOutline=1;darkOpacity=0.05;darkOpacity2=0.1;size=10;rotation=90;strokeWidth=2;fillColor=#00FF00;fontStyle=1;fontSize=12;" parent="1" vertex="1">
                    <mxGeometry x="240" y="190.62" width="30" height="25" as="geometry"/>
                </mxCell>
                <mxCell id="AKQwnDpZvUHBcNmQF-iE-530" value="14" style="shape=cube;whiteSpace=wrap;html=1;boundedLbl=1;backgroundOutline=1;darkOpacity=0.05;darkOpacity2=0.1;size=10;rotation=90;horizontal=0;strokeWidth=2;fontSize=12;fillColor=#FF0000;fontStyle=1" parent="1" vertex="1">
                    <mxGeometry x="230" y="240.62" width="30" height="25" as="geometry"/>
                </mxCell>
                <mxCell id="AKQwnDpZvUHBcNmQF-iE-531" value="9" style="shape=cube;whiteSpace=wrap;html=1;boundedLbl=1;backgroundOutline=1;darkOpacity=0.05;darkOpacity2=0.1;size=10;rotation=90;fillColor=#FF0000;strokeWidth=2;horizontal=0;fontSize=12;fontStyle=1" parent="1" vertex="1">
                    <mxGeometry x="230" y="220.62" width="30" height="25" as="geometry"/>
                </mxCell>
                <mxCell id="AKQwnDpZvUHBcNmQF-iE-532" value="4" style="shape=cube;whiteSpace=wrap;html=1;boundedLbl=1;backgroundOutline=1;darkOpacity=0.05;darkOpacity2=0.1;size=10;rotation=90;horizontal=0;strokeWidth=2;fontSize=12;fillColor=#FF0000;fontStyle=1" parent="1" vertex="1">
                    <mxGeometry x="230" y="200.62" width="30" height="25" as="geometry"/>
                </mxCell>
                <mxCell id="AKQwnDpZvUHBcNmQF-iE-533" value="20" style="rounded=0;whiteSpace=wrap;html=1;fontSize=12;fontColor=#000000;strokeColor=#000000;strokeWidth=2;fillColor=#FF0000;gradientColor=none;fontStyle=1" parent="1" vertex="1">
                    <mxGeometry x="157.99999999999997" y="693.75" width="20" height="20" as="geometry"/>
                </mxCell>
                <mxCell id="AKQwnDpZvUHBcNmQF-iE-534" value="21" style="rounded=0;whiteSpace=wrap;html=1;fontSize=12;fontColor=#000000;strokeColor=#000000;strokeWidth=2;fillColor=#FF0000;gradientColor=none;fontStyle=1" parent="1" vertex="1">
                    <mxGeometry x="177.99999999999997" y="693.75" width="20" height="20" as="geometry"/>
                </mxCell>
                <mxCell id="AKQwnDpZvUHBcNmQF-iE-535" value="20" style="rounded=0;whiteSpace=wrap;html=1;fontSize=12;fontColor=#000000;strokeColor=#000000;strokeWidth=2;fillColor=#00FF00;gradientColor=none;fontStyle=1" parent="1" vertex="1">
                    <mxGeometry x="197.99999999999997" y="693.75" width="20" height="20" as="geometry"/>
                </mxCell>
                <mxCell id="AKQwnDpZvUHBcNmQF-iE-536" value="21" style="rounded=0;whiteSpace=wrap;html=1;fontSize=12;fontColor=#000000;strokeColor=#000000;strokeWidth=2;fillColor=#00FF00;gradientColor=none;fontStyle=1" parent="1" vertex="1">
                    <mxGeometry x="217.99999999999997" y="693.75" width="20" height="20" as="geometry"/>
                </mxCell>
                <mxCell id="AKQwnDpZvUHBcNmQF-iE-537" value="20" style="rounded=0;whiteSpace=wrap;html=1;fontSize=12;fontColor=#000000;strokeColor=#000000;strokeWidth=2;fillColor=#0000FF;gradientColor=none;fontStyle=1" parent="1" vertex="1">
                    <mxGeometry x="237.99999999999997" y="693.75" width="20" height="20" as="geometry"/>
                </mxCell>
                <mxCell id="AKQwnDpZvUHBcNmQF-iE-538" value="21" style="rounded=0;whiteSpace=wrap;html=1;fontSize=12;fontColor=#000000;strokeColor=#000000;strokeWidth=2;fillColor=#0000FF;gradientColor=none;fontStyle=1" parent="1" vertex="1">
                    <mxGeometry x="258" y="693.75" width="20" height="20" as="geometry"/>
                </mxCell>
                <mxCell id="AKQwnDpZvUHBcNmQF-iE-597" value="1" style="rounded=0;whiteSpace=wrap;html=1;fontSize=12;fontColor=none;strokeColor=#000000;strokeWidth=2;fillColor=#FFFF66;gradientColor=none;fontStyle=1;rotation=90;horizontal=0;noLabel=1;" parent="1" vertex="1">
                    <mxGeometry x="752.5" y="681.8800000000001" width="20" height="20" as="geometry"/>
                </mxCell>
                <mxCell id="AKQwnDpZvUHBcNmQF-iE-598" value="0" style="rounded=0;whiteSpace=wrap;html=1;fontSize=12;fontColor=none;strokeColor=#000000;strokeWidth=2;fillColor=none;gradientColor=none;fontStyle=1;rotation=90;horizontal=0;noLabel=1;" parent="1" vertex="1">
                    <mxGeometry x="616.97" y="350" width="16.470588235294116" height="16.1525803231811" as="geometry"/>
                </mxCell>
                <mxCell id="AKQwnDpZvUHBcNmQF-iE-599" value="0" style="rounded=0;whiteSpace=wrap;html=1;fontSize=12;fontColor=none;strokeColor=#000000;strokeWidth=2;fillColor=none;gradientColor=none;fontStyle=1;rotation=90;horizontal=0;noLabel=1;" parent="1" vertex="1">
                    <mxGeometry x="727.3199999999999" y="350.81" width="16.470588235294116" height="16.1525803231811" as="geometry"/>
                </mxCell>
                <mxCell id="AKQwnDpZvUHBcNmQF-iE-600" value="0" style="rounded=0;whiteSpace=wrap;html=1;fontSize=12;fontColor=none;strokeColor=#000000;strokeWidth=2;fillColor=none;gradientColor=none;fontStyle=1;rotation=90;horizontal=0;noLabel=1;" parent="1" vertex="1">
                    <mxGeometry x="834.79" y="350" width="16.470588235294116" height="16.1525803231811" as="geometry"/>
                </mxCell>
                <mxCell id="AKQwnDpZvUHBcNmQF-iE-601" value="0" style="rounded=0;whiteSpace=wrap;html=1;fontSize=12;fontColor=none;strokeColor=#000000;strokeWidth=2;fillColor=none;gradientColor=none;fontStyle=1;rotation=90;horizontal=0;noLabel=1;" parent="1" vertex="1">
                    <mxGeometry x="943.0899999999999" y="351.25" width="16.470588235294116" height="16.1525803231811" as="geometry"/>
                </mxCell>
                <mxCell id="AKQwnDpZvUHBcNmQF-iE-603" value="Input Feature Maps" style="text;html=1;strokeColor=none;fillColor=none;align=center;verticalAlign=middle;whiteSpace=wrap;rounded=0;fontStyle=1;fontSize=12;" parent="1" vertex="1">
                    <mxGeometry x="200.5" y="118.75" width="60" height="30" as="geometry"/>
                </mxCell>
                <mxCell id="AKQwnDpZvUHBcNmQF-iE-604" value="" style="shape=curlyBracket;whiteSpace=wrap;html=1;rounded=1;flipH=1;strokeColor=#000000;strokeWidth=2;fillColor=#FFFFFF;rotation=90;fontSize=12;" parent="1" vertex="1">
                    <mxGeometry x="205" y="290" width="20" height="75" as="geometry"/>
                </mxCell>
                <mxCell id="AKQwnDpZvUHBcNmQF-iE-605" value="n" style="text;html=1;strokeColor=none;fillColor=none;align=center;verticalAlign=middle;whiteSpace=wrap;rounded=0;fontStyle=1;fontSize=12;" parent="1" vertex="1">
                    <mxGeometry x="185" y="328.75" width="60" height="30" as="geometry"/>
                </mxCell>
                <mxCell id="AKQwnDpZvUHBcNmQF-iE-606" value="" style="shape=curlyBracket;whiteSpace=wrap;html=1;rounded=1;flipH=1;strokeColor=#000000;strokeWidth=2;fillColor=#FFFFFF;rotation=-135;fontSize=12;" parent="1" vertex="1">
                    <mxGeometry x="165" y="158.75" width="20" height="43.75" as="geometry"/>
                </mxCell>
                <mxCell id="AKQwnDpZvUHBcNmQF-iE-607" value="C" style="text;html=1;strokeColor=none;fillColor=none;align=center;verticalAlign=middle;whiteSpace=wrap;rounded=0;fontStyle=1;fontSize=12;" parent="1" vertex="1">
                    <mxGeometry x="130" y="152.19" width="60" height="30" as="geometry"/>
                </mxCell>
                <mxCell id="AKQwnDpZvUHBcNmQF-iE-608" value="" style="shape=curlyBracket;whiteSpace=wrap;html=1;rounded=1;flipH=1;strokeColor=#000000;strokeWidth=2;fillColor=#FFFFFF;rotation=-180;fontSize=12;" parent="1" vertex="1">
                    <mxGeometry x="127.99999999999999" y="620.3199999999999" width="20" height="200.32" as="geometry"/>
                </mxCell>
                <mxCell id="AKQwnDpZvUHBcNmQF-iE-609" value="nm" style="text;html=1;strokeColor=none;fillColor=none;align=center;verticalAlign=middle;whiteSpace=wrap;rounded=0;fontStyle=1;fontSize=12;" parent="1" vertex="1">
                    <mxGeometry x="78" y="705.48" width="60" height="30" as="geometry"/>
                </mxCell>
                <mxCell id="AKQwnDpZvUHBcNmQF-iE-610" value="" style="shape=curlyBracket;whiteSpace=wrap;html=1;rounded=1;flipH=1;fontColor=none;strokeColor=#000000;strokeWidth=2;fillColor=#D5E8D4;rotation=-90;fontSize=12;" parent="1" vertex="1">
                    <mxGeometry x="212.96" y="535.22" width="12.5" height="122.98" as="geometry"/>
                </mxCell>
                <mxCell id="AKQwnDpZvUHBcNmQF-iE-611" value="KC" style="text;html=1;strokeColor=none;fillColor=none;align=center;verticalAlign=middle;whiteSpace=wrap;rounded=0;fontStyle=1;fontSize=12;" parent="1" vertex="1">
                    <mxGeometry x="207.49999999999997" y="563.1300000000001" width="25.5" height="30" as="geometry"/>
                </mxCell>
                <mxCell id="AKQwnDpZvUHBcNmQF-iE-612" value="" style="shape=curlyBracket;whiteSpace=wrap;html=1;rounded=1;flipH=1;fontColor=none;strokeColor=#000000;strokeWidth=2;fillColor=#D5E8D4;rotation=-180;fontSize=12;" parent="1" vertex="1">
                    <mxGeometry x="413" y="611.71" width="12.5" height="122.98" as="geometry"/>
                </mxCell>
                <mxCell id="AKQwnDpZvUHBcNmQF-iE-613" value="KC" style="text;html=1;strokeColor=none;fillColor=none;align=center;verticalAlign=middle;whiteSpace=wrap;rounded=0;fontStyle=1;fontSize=12;" parent="1" vertex="1">
                    <mxGeometry x="382.5" y="658.2" width="25.5" height="30" as="geometry"/>
                </mxCell>
                <mxCell id="AKQwnDpZvUHBcNmQF-iE-614" value="" style="shape=curlyBracket;whiteSpace=wrap;html=1;rounded=1;flipH=1;fontColor=none;strokeColor=#000000;strokeWidth=2;fillColor=#D5E8D4;rotation=90;fontSize=12;" parent="1" vertex="1">
                    <mxGeometry x="528" y="727.81" width="12.5" height="34.07" as="geometry"/>
                </mxCell>
                <mxCell id="AKQwnDpZvUHBcNmQF-iE-615" value="" style="shape=curlyBracket;whiteSpace=wrap;html=1;rounded=1;flipH=1;fontColor=none;strokeColor=#000000;strokeWidth=2;fillColor=#D5E8D4;rotation=90;fontSize=12;" parent="1" vertex="1">
                    <mxGeometry x="488.25" y="727.81" width="12.5" height="34.07" as="geometry"/>
                </mxCell>
                <mxCell id="AKQwnDpZvUHBcNmQF-iE-616" value="" style="shape=curlyBracket;whiteSpace=wrap;html=1;rounded=1;flipH=1;fontColor=none;strokeColor=#000000;strokeWidth=2;fillColor=#D5E8D4;rotation=90;fontSize=12;" parent="1" vertex="1">
                    <mxGeometry x="448" y="727.81" width="12.5" height="34.07" as="geometry"/>
                </mxCell>
                <mxCell id="AKQwnDpZvUHBcNmQF-iE-617" value="" style="shape=curlyBracket;whiteSpace=wrap;html=1;rounded=1;flipH=1;fontColor=none;strokeColor=#000000;strokeWidth=2;fillColor=#D5E8D4;rotation=-90;fontSize=12;" parent="1" vertex="1">
                    <mxGeometry x="507.1500000000001" y="520" width="12.5" height="160.79" as="geometry"/>
                </mxCell>
                <mxCell id="AKQwnDpZvUHBcNmQF-iE-618" value="KF" style="text;html=1;strokeColor=none;fillColor=none;align=center;verticalAlign=middle;whiteSpace=wrap;rounded=0;fontStyle=1;fontSize=12;" parent="1" vertex="1">
                    <mxGeometry x="501.5" y="563.1300000000001" width="25.5" height="30" as="geometry"/>
                </mxCell>
                <mxCell id="AKQwnDpZvUHBcNmQF-iE-619" value="" style="shape=curlyBracket;whiteSpace=wrap;html=1;rounded=1;flipH=1;strokeColor=#000000;strokeWidth=2;fillColor=#FFFFFF;rotation=-180;fontSize=12;" parent="1" vertex="1">
                    <mxGeometry x="701.79" y="600" width="20" height="214.37" as="geometry"/>
                </mxCell>
                <mxCell id="AKQwnDpZvUHBcNmQF-iE-620" value="nm" style="text;html=1;strokeColor=none;fillColor=none;align=center;verticalAlign=middle;whiteSpace=wrap;rounded=0;fontStyle=1;fontSize=12;" parent="1" vertex="1">
                    <mxGeometry x="657.6499999999999" y="687.03" width="60" height="30" as="geometry"/>
                </mxCell>
                <mxCell id="AKQwnDpZvUHBcNmQF-iE-621" value="" style="shape=curlyBracket;whiteSpace=wrap;html=1;rounded=1;flipH=1;fontColor=none;strokeColor=#000000;strokeWidth=2;fillColor=#D5E8D4;rotation=90;fontSize=12;" parent="1" vertex="1">
                    <mxGeometry x="802.26" y="753.75" width="12.5" height="160.79" as="geometry"/>
                </mxCell>
                <mxCell id="AKQwnDpZvUHBcNmQF-iE-622" value="KF" style="text;html=1;strokeColor=none;fillColor=none;align=center;verticalAlign=middle;whiteSpace=wrap;rounded=0;fontStyle=1;fontSize=12;" parent="1" vertex="1">
                    <mxGeometry x="795.76" y="839.1399999999999" width="25.5" height="30" as="geometry"/>
                </mxCell>
                <mxCell id="AKQwnDpZvUHBcNmQF-iE-623" value="" style="shape=curlyBracket;whiteSpace=wrap;html=1;rounded=1;flipH=1;strokeColor=#000000;strokeWidth=2;fillColor=#FFFFFF;rotation=-135;fontSize=12;" parent="1" vertex="1">
                    <mxGeometry x="397.25" y="75" width="20" height="43.75" as="geometry"/>
                </mxCell>
                <mxCell id="AKQwnDpZvUHBcNmQF-iE-624" value="C" style="text;html=1;strokeColor=none;fillColor=none;align=center;verticalAlign=middle;whiteSpace=wrap;rounded=0;fontStyle=1;fontSize=12;" parent="1" vertex="1">
                    <mxGeometry x="362.25" y="68.44" width="60" height="30" as="geometry"/>
                </mxCell>
                <mxCell id="AKQwnDpZvUHBcNmQF-iE-625" value="" style="shape=curlyBracket;whiteSpace=wrap;html=1;rounded=1;flipH=1;strokeColor=#000000;strokeWidth=2;fillColor=#FFFFFF;rotation=-180;fontSize=12;" parent="1" vertex="1">
                    <mxGeometry x="387.75" y="128.75" width="9.5" height="29.69" as="geometry"/>
                </mxCell>
                <mxCell id="AKQwnDpZvUHBcNmQF-iE-626" value="" style="shape=curlyBracket;whiteSpace=wrap;html=1;rounded=1;flipH=1;strokeColor=#000000;strokeWidth=2;fillColor=#FFFFFF;rotation=90;fontSize=12;" parent="1" vertex="1">
                    <mxGeometry x="415" y="154.69" width="9.5" height="29.69" as="geometry"/>
                </mxCell>
                <mxCell id="AKQwnDpZvUHBcNmQF-iE-627" value="K" style="text;html=1;strokeColor=none;fillColor=none;align=center;verticalAlign=middle;whiteSpace=wrap;rounded=0;fontStyle=1;fontSize=12;" parent="1" vertex="1">
                    <mxGeometry x="359.5" y="128.44" width="30.5" height="30" as="geometry"/>
                </mxCell>
                <mxCell id="AKQwnDpZvUHBcNmQF-iE-628" value="K" style="text;html=1;strokeColor=none;fillColor=none;align=center;verticalAlign=middle;whiteSpace=wrap;rounded=0;fontStyle=1;fontSize=12;" parent="1" vertex="1">
                    <mxGeometry x="390" y="175" width="60" height="15.62" as="geometry"/>
                </mxCell>
                <mxCell id="AKQwnDpZvUHBcNmQF-iE-629" value="" style="shape=cube;whiteSpace=wrap;html=1;boundedLbl=1;backgroundOutline=1;darkOpacity=0.05;darkOpacity2=0.1;size=10;rotation=90;strokeWidth=2;fillColor=#d5e8d4;strokeColor=#33001A;fontSize=12;" parent="1" vertex="1">
                    <mxGeometry x="865.51" y="163.75" width="30" height="25" as="geometry"/>
                </mxCell>
                <mxCell id="AKQwnDpZvUHBcNmQF-iE-630" value="" style="shape=cube;whiteSpace=wrap;html=1;boundedLbl=1;backgroundOutline=1;darkOpacity=0.05;darkOpacity2=0.1;size=10;rotation=90;strokeWidth=2;fillColor=#d5e8d4;strokeColor=#33001A;fontSize=12;" parent="1" vertex="1">
                    <mxGeometry x="865.51" y="143.75" width="30" height="25" as="geometry"/>
                </mxCell>
                <mxCell id="AKQwnDpZvUHBcNmQF-iE-631" value="" style="shape=cube;whiteSpace=wrap;html=1;boundedLbl=1;backgroundOutline=1;darkOpacity=0.05;darkOpacity2=0.1;size=10;rotation=90;strokeWidth=2;fillColor=#d5e8d4;strokeColor=#33001A;fontSize=12;" parent="1" vertex="1">
                    <mxGeometry x="865.51" y="123.75" width="30" height="25" as="geometry"/>
                </mxCell>
                <mxCell id="AKQwnDpZvUHBcNmQF-iE-632" value="" style="shape=cube;whiteSpace=wrap;html=1;boundedLbl=1;backgroundOutline=1;darkOpacity=0.05;darkOpacity2=0.1;size=10;rotation=90;strokeWidth=2;fillColor=#d5e8d4;strokeColor=#33001A;fontSize=12;" parent="1" vertex="1">
                    <mxGeometry x="820.51" y="103.75" width="30" height="25" as="geometry"/>
                </mxCell>
                <mxCell id="AKQwnDpZvUHBcNmQF-iE-633" value="" style="shape=cube;whiteSpace=wrap;html=1;boundedLbl=1;backgroundOutline=1;darkOpacity=0.05;darkOpacity2=0.1;size=10;rotation=90;fillColor=#d5e8d4;strokeWidth=2;strokeColor=#33001A;fontSize=12;" parent="1" vertex="1">
                    <mxGeometry x="835.51" y="103.75" width="30" height="25" as="geometry"/>
                </mxCell>
                <mxCell id="AKQwnDpZvUHBcNmQF-iE-634" value="" style="shape=cube;whiteSpace=wrap;html=1;boundedLbl=1;backgroundOutline=1;darkOpacity=0.05;darkOpacity2=0.1;size=10;rotation=90;fillColor=#d5e8d4;strokeWidth=2;strokeColor=#33001A;fontSize=12;" parent="1" vertex="1">
                    <mxGeometry x="850.51" y="103.75" width="30" height="25" as="geometry"/>
                </mxCell>
                <mxCell id="AKQwnDpZvUHBcNmQF-iE-635" value="" style="shape=cube;whiteSpace=wrap;html=1;boundedLbl=1;backgroundOutline=1;darkOpacity=0.05;darkOpacity2=0.1;size=10;rotation=90;strokeWidth=2;fillColor=#d5e8d4;strokeColor=#33001A;fontSize=12;" parent="1" vertex="1">
                    <mxGeometry x="865.51" y="103.75" width="30" height="25" as="geometry"/>
                </mxCell>
                <mxCell id="AKQwnDpZvUHBcNmQF-iE-636" value="" style="shape=cube;whiteSpace=wrap;html=1;boundedLbl=1;backgroundOutline=1;darkOpacity=0.05;darkOpacity2=0.1;size=10;rotation=90;strokeWidth=2;fillColor=#FF3399;fontSize=12;" parent="1" vertex="1">
                    <mxGeometry x="855.51" y="173.75" width="30" height="25" as="geometry"/>
                </mxCell>
                <mxCell id="AKQwnDpZvUHBcNmQF-iE-637" value="" style="shape=cube;whiteSpace=wrap;html=1;boundedLbl=1;backgroundOutline=1;darkOpacity=0.05;darkOpacity2=0.1;size=10;rotation=90;strokeWidth=2;fillColor=#FF3399;fontSize=12;" parent="1" vertex="1">
                    <mxGeometry x="855.51" y="153.75" width="30" height="25" as="geometry"/>
                </mxCell>
                <mxCell id="AKQwnDpZvUHBcNmQF-iE-638" value="" style="shape=cube;whiteSpace=wrap;html=1;boundedLbl=1;backgroundOutline=1;darkOpacity=0.05;darkOpacity2=0.1;size=10;rotation=90;strokeWidth=2;fillColor=#FF3399;fontSize=12;" parent="1" vertex="1">
                    <mxGeometry x="855.51" y="133.75" width="30" height="25" as="geometry"/>
                </mxCell>
                <mxCell id="AKQwnDpZvUHBcNmQF-iE-639" value="" style="shape=cube;whiteSpace=wrap;html=1;boundedLbl=1;backgroundOutline=1;darkOpacity=0.05;darkOpacity2=0.1;size=10;rotation=90;horizontal=0;strokeWidth=2;fontSize=12;fillColor=#FFFF66;fontStyle=1" parent="1" vertex="1">
                    <mxGeometry x="790.51" y="193.75" width="30" height="25" as="geometry"/>
                </mxCell>
                <mxCell id="AKQwnDpZvUHBcNmQF-iE-640" value="" style="shape=cube;whiteSpace=wrap;html=1;boundedLbl=1;backgroundOutline=1;darkOpacity=0.05;darkOpacity2=0.1;size=10;rotation=90;horizontal=0;strokeWidth=2;fontSize=12;fillColor=#FFFF66;fontStyle=1" parent="1" vertex="1">
                    <mxGeometry x="805.51" y="193.75" width="30" height="25" as="geometry"/>
                </mxCell>
                <mxCell id="AKQwnDpZvUHBcNmQF-iE-641" value="" style="shape=cube;whiteSpace=wrap;html=1;boundedLbl=1;backgroundOutline=1;darkOpacity=0.05;darkOpacity2=0.1;size=10;rotation=90;strokeWidth=2;fillColor=#FF3399;fontSize=12;" parent="1" vertex="1">
                    <mxGeometry x="810.51" y="113.75" width="30" height="25" as="geometry"/>
                </mxCell>
                <mxCell id="AKQwnDpZvUHBcNmQF-iE-642" value="" style="shape=cube;whiteSpace=wrap;html=1;boundedLbl=1;backgroundOutline=1;darkOpacity=0.05;darkOpacity2=0.1;size=10;rotation=90;fillColor=#FF3399;strokeWidth=2;fontSize=12;" parent="1" vertex="1">
                    <mxGeometry x="825.51" y="113.75" width="30" height="25" as="geometry"/>
                </mxCell>
                <mxCell id="AKQwnDpZvUHBcNmQF-iE-643" value="" style="shape=cube;whiteSpace=wrap;html=1;boundedLbl=1;backgroundOutline=1;darkOpacity=0.05;darkOpacity2=0.1;size=10;rotation=90;fillColor=#FF3399;strokeWidth=2;fontSize=12;" parent="1" vertex="1">
                    <mxGeometry x="840.51" y="113.75" width="30" height="25" as="geometry"/>
                </mxCell>
                <mxCell id="AKQwnDpZvUHBcNmQF-iE-644" value="" style="shape=cube;whiteSpace=wrap;html=1;boundedLbl=1;backgroundOutline=1;darkOpacity=0.05;darkOpacity2=0.1;size=10;rotation=90;strokeWidth=2;fillColor=#7EA6E0;fontStyle=1;fontSize=12;" parent="1" vertex="1">
                    <mxGeometry x="800.51" y="123.75" width="30" height="25" as="geometry"/>
                </mxCell>
                <mxCell id="AKQwnDpZvUHBcNmQF-iE-645" value="" style="shape=cube;whiteSpace=wrap;html=1;boundedLbl=1;backgroundOutline=1;darkOpacity=0.05;darkOpacity2=0.1;size=10;rotation=90;strokeWidth=2;fillColor=#7EA6E0;fontStyle=1;fontSize=12;" parent="1" vertex="1">
                    <mxGeometry x="815.51" y="123.75" width="30" height="25" as="geometry"/>
                </mxCell>
                <mxCell id="AKQwnDpZvUHBcNmQF-iE-646" value="" style="shape=cube;whiteSpace=wrap;html=1;boundedLbl=1;backgroundOutline=1;darkOpacity=0.05;darkOpacity2=0.1;size=10;rotation=90;strokeWidth=2;fillColor=#7EA6E0;fontStyle=1;fontSize=12;" parent="1" vertex="1">
                    <mxGeometry x="830.51" y="123.75" width="30" height="25" as="geometry"/>
                </mxCell>
                <mxCell id="AKQwnDpZvUHBcNmQF-iE-647" value="" style="shape=cube;whiteSpace=wrap;html=1;boundedLbl=1;backgroundOutline=1;darkOpacity=0.05;darkOpacity2=0.1;size=10;rotation=90;horizontal=0;strokeWidth=2;fontSize=12;fillColor=#FFFF66;fontStyle=1" parent="1" vertex="1">
                    <mxGeometry x="790.51" y="173.75" width="30" height="25" as="geometry"/>
                </mxCell>
                <mxCell id="AKQwnDpZvUHBcNmQF-iE-648" value="" style="shape=cube;whiteSpace=wrap;html=1;boundedLbl=1;backgroundOutline=1;darkOpacity=0.05;darkOpacity2=0.1;size=10;rotation=90;fillColor=#FFFF66;strokeWidth=2;horizontal=0;fontStyle=1;fontSize=12;" parent="1" vertex="1">
                    <mxGeometry x="805.51" y="173.75" width="30" height="25" as="geometry"/>
                </mxCell>
                <mxCell id="AKQwnDpZvUHBcNmQF-iE-649" value="" style="shape=cube;whiteSpace=wrap;html=1;boundedLbl=1;backgroundOutline=1;darkOpacity=0.05;darkOpacity2=0.1;size=10;rotation=90;horizontal=0;strokeWidth=2;fontSize=12;fillColor=#FFFF66;fontStyle=1" parent="1" vertex="1">
                    <mxGeometry x="790.51" y="153.75" width="30" height="25" as="geometry"/>
                </mxCell>
                <mxCell id="AKQwnDpZvUHBcNmQF-iE-650" value="" style="shape=cube;whiteSpace=wrap;html=1;boundedLbl=1;backgroundOutline=1;darkOpacity=0.05;darkOpacity2=0.1;size=10;rotation=90;horizontal=0;strokeWidth=2;fontSize=12;fillColor=#FFFF66;fontStyle=1" parent="1" vertex="1">
                    <mxGeometry x="805.51" y="153.75" width="30" height="25" as="geometry"/>
                </mxCell>
                <mxCell id="AKQwnDpZvUHBcNmQF-iE-651" value="" style="shape=cube;whiteSpace=wrap;html=1;boundedLbl=1;backgroundOutline=1;darkOpacity=0.05;darkOpacity2=0.1;size=10;rotation=90;fillColor=#FFFF66;strokeWidth=2;horizontal=0;fontSize=12;fontStyle=1" parent="1" vertex="1">
                    <mxGeometry x="790.51" y="133.75" width="30" height="25" as="geometry"/>
                </mxCell>
                <mxCell id="AKQwnDpZvUHBcNmQF-iE-652" value="" style="shape=cube;whiteSpace=wrap;html=1;boundedLbl=1;backgroundOutline=1;darkOpacity=0.05;darkOpacity2=0.1;size=10;rotation=90;horizontal=0;strokeWidth=2;fontSize=12;fillColor=#FFFF66;fontStyle=1" parent="1" vertex="1">
                    <mxGeometry x="805.51" y="133.75" width="30" height="25" as="geometry"/>
                </mxCell>
                <mxCell id="AKQwnDpZvUHBcNmQF-iE-653" value="" style="shape=cube;whiteSpace=wrap;html=1;boundedLbl=1;backgroundOutline=1;darkOpacity=0.05;darkOpacity2=0.1;size=10;rotation=90;horizontal=0;strokeWidth=2;fontSize=12;fillColor=#FFFF66;fontStyle=1" parent="1" vertex="1">
                    <mxGeometry x="820.51" y="193.75" width="30" height="25" as="geometry"/>
                </mxCell>
                <mxCell id="AKQwnDpZvUHBcNmQF-iE-654" value="" style="shape=cube;whiteSpace=wrap;html=1;boundedLbl=1;backgroundOutline=1;darkOpacity=0.05;darkOpacity2=0.1;size=10;rotation=90;horizontal=0;strokeWidth=2;fontSize=12;fillColor=#FFFF66;fontStyle=1" parent="1" vertex="1">
                    <mxGeometry x="820.51" y="173.75" width="30" height="25" as="geometry"/>
                </mxCell>
                <mxCell id="AKQwnDpZvUHBcNmQF-iE-655" value="" style="shape=cube;whiteSpace=wrap;html=1;boundedLbl=1;backgroundOutline=1;darkOpacity=0.05;darkOpacity2=0.1;size=10;rotation=90;horizontal=0;strokeWidth=2;fontSize=12;fillColor=#FFFF66;fontStyle=1" parent="1" vertex="1">
                    <mxGeometry x="820.51" y="153.75" width="30" height="25" as="geometry"/>
                </mxCell>
                <mxCell id="AKQwnDpZvUHBcNmQF-iE-656" value="" style="shape=cube;whiteSpace=wrap;html=1;boundedLbl=1;backgroundOutline=1;darkOpacity=0.05;darkOpacity2=0.1;size=10;rotation=90;fillColor=#FFFF66;strokeWidth=2;horizontal=0;fontSize=12;fontStyle=1" parent="1" vertex="1">
                    <mxGeometry x="820.51" y="133.75" width="30" height="25" as="geometry"/>
                </mxCell>
                <mxCell id="AKQwnDpZvUHBcNmQF-iE-657" value="" style="shape=cube;whiteSpace=wrap;html=1;boundedLbl=1;backgroundOutline=1;darkOpacity=0.05;darkOpacity2=0.1;size=10;rotation=90;strokeWidth=2;fillColor=#FF3399;fontSize=12;" parent="1" vertex="1">
                    <mxGeometry x="855.51" y="113.75" width="30" height="25" as="geometry"/>
                </mxCell>
                <mxCell id="AKQwnDpZvUHBcNmQF-iE-658" value="" style="shape=cube;whiteSpace=wrap;html=1;boundedLbl=1;backgroundOutline=1;darkOpacity=0.05;darkOpacity2=0.1;size=10;rotation=90;strokeWidth=2;fillColor=#7EA6E0;fontStyle=1;fontSize=12;" parent="1" vertex="1">
                    <mxGeometry x="845.51" y="183.75" width="30" height="25" as="geometry"/>
                </mxCell>
                <mxCell id="AKQwnDpZvUHBcNmQF-iE-659" value="" style="shape=cube;whiteSpace=wrap;html=1;boundedLbl=1;backgroundOutline=1;darkOpacity=0.05;darkOpacity2=0.1;size=10;rotation=90;strokeWidth=2;fillColor=#7EA6E0;fontStyle=1;fontSize=12;" parent="1" vertex="1">
                    <mxGeometry x="845.51" y="164.75" width="30" height="25" as="geometry"/>
                </mxCell>
                <mxCell id="AKQwnDpZvUHBcNmQF-iE-660" value="" style="shape=cube;whiteSpace=wrap;html=1;boundedLbl=1;backgroundOutline=1;darkOpacity=0.05;darkOpacity2=0.1;size=10;rotation=90;strokeWidth=2;fillColor=#7EA6E0;fontStyle=1;fontSize=12;" parent="1" vertex="1">
                    <mxGeometry x="845.51" y="143.75" width="30" height="25" as="geometry"/>
                </mxCell>
                <mxCell id="AKQwnDpZvUHBcNmQF-iE-661" value="" style="shape=cube;whiteSpace=wrap;html=1;boundedLbl=1;backgroundOutline=1;darkOpacity=0.05;darkOpacity2=0.1;size=10;rotation=90;strokeWidth=2;fillColor=#7EA6E0;fontStyle=1;fontSize=12;" parent="1" vertex="1">
                    <mxGeometry x="845.51" y="123.75" width="30" height="25" as="geometry"/>
                </mxCell>
                <mxCell id="AKQwnDpZvUHBcNmQF-iE-662" value="" style="shape=cube;whiteSpace=wrap;html=1;boundedLbl=1;backgroundOutline=1;darkOpacity=0.05;darkOpacity2=0.1;size=10;rotation=90;horizontal=0;strokeWidth=2;fontSize=12;fillColor=#FFFF66;fontStyle=1" parent="1" vertex="1">
                    <mxGeometry x="835.51" y="193.75" width="30" height="25" as="geometry"/>
                </mxCell>
                <mxCell id="AKQwnDpZvUHBcNmQF-iE-663" value="" style="shape=cube;whiteSpace=wrap;html=1;boundedLbl=1;backgroundOutline=1;darkOpacity=0.05;darkOpacity2=0.1;size=10;rotation=90;horizontal=0;strokeWidth=2;fontSize=12;fillColor=#FFFF66;fontStyle=1" parent="1" vertex="1">
                    <mxGeometry x="835.51" y="173.75" width="30" height="25" as="geometry"/>
                </mxCell>
                <mxCell id="AKQwnDpZvUHBcNmQF-iE-664" value="" style="shape=cube;whiteSpace=wrap;html=1;boundedLbl=1;backgroundOutline=1;darkOpacity=0.05;darkOpacity2=0.1;size=10;rotation=90;horizontal=0;strokeWidth=2;fontSize=12;fillColor=#FFFF66;fontStyle=1" parent="1" vertex="1">
                    <mxGeometry x="835.51" y="153.75" width="30" height="25" as="geometry"/>
                </mxCell>
                <mxCell id="AKQwnDpZvUHBcNmQF-iE-665" value="" style="shape=cube;whiteSpace=wrap;html=1;boundedLbl=1;backgroundOutline=1;darkOpacity=0.05;darkOpacity2=0.1;size=10;rotation=90;horizontal=0;strokeWidth=2;fontSize=12;fillColor=#FFFF66;fontStyle=1" parent="1" vertex="1">
                    <mxGeometry x="835.51" y="133.75" width="30" height="25" as="geometry"/>
                </mxCell>
                <mxCell id="AKQwnDpZvUHBcNmQF-iE-666" value="" style="shape=curlyBracket;whiteSpace=wrap;html=1;rounded=1;flipH=1;strokeColor=#000000;strokeWidth=2;fillColor=#FFFFFF;fontSize=12;" parent="1" vertex="1">
                    <mxGeometry x="911.01" y="101.88" width="20" height="76.25" as="geometry"/>
                </mxCell>
                <mxCell id="AKQwnDpZvUHBcNmQF-iE-667" value="Output Feature Map" style="text;html=1;strokeColor=none;fillColor=none;align=center;verticalAlign=middle;whiteSpace=wrap;rounded=0;fontStyle=1;fontSize=12;" parent="1" vertex="1">
                    <mxGeometry x="958.5000000000002" y="123.12" width="60" height="30" as="geometry"/>
                </mxCell>
                <mxCell id="AKQwnDpZvUHBcNmQF-iE-668" value="" style="shape=curlyBracket;whiteSpace=wrap;html=1;rounded=1;flipH=1;strokeColor=#000000;strokeWidth=2;fillColor=#FFFFFF;rotation=-180;fontSize=12;" parent="1" vertex="1">
                    <mxGeometry x="774.5" y="143.75" width="9.5" height="77.19" as="geometry"/>
                </mxCell>
                <mxCell id="AKQwnDpZvUHBcNmQF-iE-669" value="" style="shape=curlyBracket;whiteSpace=wrap;html=1;rounded=1;flipH=1;strokeColor=#000000;strokeWidth=2;fillColor=#FFFFFF;rotation=90;fontSize=12;" parent="1" vertex="1">
                    <mxGeometry x="817.81" y="202.81" width="9.5" height="55.31" as="geometry"/>
                </mxCell>
                <mxCell id="AKQwnDpZvUHBcNmQF-iE-670" value="K" style="text;html=1;strokeColor=none;fillColor=none;align=center;verticalAlign=middle;whiteSpace=wrap;rounded=0;fontStyle=1;fontSize=12;" parent="1" vertex="1">
                    <mxGeometry x="750.8499999999999" y="167.35" width="30.5" height="30" as="geometry"/>
                </mxCell>
                <mxCell id="AKQwnDpZvUHBcNmQF-iE-671" value="K" style="text;html=1;strokeColor=none;fillColor=none;align=center;verticalAlign=middle;whiteSpace=wrap;rounded=0;fontStyle=1;fontSize=12;" parent="1" vertex="1">
                    <mxGeometry x="792.56" y="237.19" width="60" height="15.62" as="geometry"/>
                </mxCell>
                <mxCell id="AKQwnDpZvUHBcNmQF-iE-672" value="" style="shape=curlyBracket;whiteSpace=wrap;html=1;rounded=1;flipH=1;strokeColor=#000000;strokeWidth=2;fillColor=#FFFFFF;rotation=-135;fontSize=12;" parent="1" vertex="1">
                    <mxGeometry x="791.76" y="76.86" width="20" height="65" as="geometry"/>
                </mxCell>
                <mxCell id="AKQwnDpZvUHBcNmQF-iE-673" value="F" style="text;html=1;strokeColor=none;fillColor=none;align=center;verticalAlign=middle;whiteSpace=wrap;rounded=0;fontStyle=1;fontSize=12;" parent="1" vertex="1">
                    <mxGeometry x="757.81" y="81.88" width="60" height="30" as="geometry"/>
                </mxCell>
                <mxCell id="110" value="" style="endArrow=none;dashed=1;html=1;dashPattern=1 3;strokeWidth=2;rounded=1;fontSize=12;" edge="1" parent="1">
                    <mxGeometry width="50" height="50" relative="1" as="geometry">
                        <mxPoint x="177.99999999999997" y="809.69" as="sourcePoint"/>
                        <mxPoint x="178.22000000000006" y="761.8799999999999" as="targetPoint"/>
                    </mxGeometry>
                </mxCell>
                <mxCell id="215" value="" style="endArrow=none;dashed=1;html=1;dashPattern=1 3;strokeWidth=2;rounded=1;fontSize=12;" edge="1" parent="1">
                    <mxGeometry width="50" height="50" relative="1" as="geometry">
                        <mxPoint x="218.65999999999997" y="809.69" as="sourcePoint"/>
                        <mxPoint x="218.88" y="761.8799999999999" as="targetPoint"/>
                    </mxGeometry>
                </mxCell>
                <mxCell id="216" value="" style="endArrow=none;dashed=1;html=1;dashPattern=1 3;strokeWidth=2;rounded=1;fontSize=12;" edge="1" parent="1">
                    <mxGeometry width="50" height="50" relative="1" as="geometry">
                        <mxPoint x="257.5200000000001" y="809.69" as="sourcePoint"/>
                        <mxPoint x="257.7400000000001" y="761.8799999999999" as="targetPoint"/>
                    </mxGeometry>
                </mxCell>
                <mxCell id="217" value="" style="endArrow=none;dashed=1;html=1;dashPattern=1 3;strokeWidth=2;rounded=1;fontSize=12;" edge="1" parent="1">
                    <mxGeometry width="50" height="50" relative="1" as="geometry">
                        <mxPoint x="766.3199999999999" y="510.62" as="sourcePoint"/>
                        <mxPoint x="765.8199999999999" y="460.62" as="targetPoint"/>
                    </mxGeometry>
                </mxCell>
                <mxCell id="218" value="" style="endArrow=none;dashed=1;html=1;dashPattern=1 3;strokeWidth=2;rounded=1;fontSize=12;" edge="1" parent="1">
                    <mxGeometry width="50" height="50" relative="1" as="geometry">
                        <mxPoint x="727.3199999999999" y="510.62" as="sourcePoint"/>
                        <mxPoint x="727.8088235294119" y="479.8391043729264" as="targetPoint"/>
                    </mxGeometry>
                </mxCell>
                <mxCell id="219" value="" style="endArrow=none;dashed=1;html=1;dashPattern=1 3;strokeWidth=2;rounded=1;fontSize=12;" edge="1" parent="1">
                    <mxGeometry width="50" height="50" relative="1" as="geometry">
                        <mxPoint x="873.5" y="510.6200000000001" as="sourcePoint"/>
                        <mxPoint x="873" y="460.62" as="targetPoint"/>
                    </mxGeometry>
                </mxCell>
                <mxCell id="220" value="" style="endArrow=none;dashed=1;html=1;dashPattern=1 3;strokeWidth=2;rounded=1;fontSize=12;" edge="1" parent="1">
                    <mxGeometry width="50" height="50" relative="1" as="geometry">
                        <mxPoint x="834.5" y="510.6200000000001" as="sourcePoint"/>
                        <mxPoint x="834.988823529412" y="479.8391043729264" as="targetPoint"/>
                    </mxGeometry>
                </mxCell>
                <mxCell id="221" value="" style="endArrow=none;dashed=1;html=1;dashPattern=1 3;strokeWidth=2;rounded=1;fontSize=12;" edge="1" parent="1">
                    <mxGeometry width="50" height="50" relative="1" as="geometry">
                        <mxPoint x="982.09" y="510.6200000000001" as="sourcePoint"/>
                        <mxPoint x="981.59" y="460.62" as="targetPoint"/>
                    </mxGeometry>
                </mxCell>
                <mxCell id="222" value="" style="endArrow=none;dashed=1;html=1;dashPattern=1 3;strokeWidth=2;rounded=1;fontSize=12;" edge="1" parent="1">
                    <mxGeometry width="50" height="50" relative="1" as="geometry">
                        <mxPoint x="943.09" y="510.6200000000001" as="sourcePoint"/>
                        <mxPoint x="943.578823529412" y="479.8391043729264" as="targetPoint"/>
                    </mxGeometry>
                </mxCell>
                <mxCell id="223" value="" style="endArrow=none;dashed=1;html=1;dashPattern=1 3;strokeWidth=2;rounded=1;fontSize=12;" edge="1" parent="1">
                    <mxGeometry width="50" height="50" relative="1" as="geometry">
                        <mxPoint x="752.5" y="803.53" as="sourcePoint"/>
                        <mxPoint x="752.9888235294118" y="772.7491043729262" as="targetPoint"/>
                    </mxGeometry>
                </mxCell>
                <mxCell id="224" value="" style="endArrow=none;dashed=1;html=1;dashPattern=1 3;strokeWidth=2;rounded=1;fontSize=12;" edge="1" parent="1">
                    <mxGeometry width="50" height="50" relative="1" as="geometry">
                        <mxPoint x="791.93" y="803.53" as="sourcePoint"/>
                        <mxPoint x="792.4188235294117" y="772.7491043729262" as="targetPoint"/>
                    </mxGeometry>
                </mxCell>
                <mxCell id="225" value="" style="endArrow=none;dashed=1;html=1;dashPattern=1 3;strokeWidth=2;rounded=1;fontSize=12;" edge="1" parent="1">
                    <mxGeometry width="50" height="50" relative="1" as="geometry">
                        <mxPoint x="832.5" y="803.53" as="sourcePoint"/>
                        <mxPoint x="832.9888235294118" y="772.7491043729262" as="targetPoint"/>
                    </mxGeometry>
                </mxCell>
                <mxCell id="226" value="" style="endArrow=none;dashed=1;html=1;dashPattern=1 3;strokeWidth=2;rounded=1;fontSize=12;" edge="1" parent="1">
                    <mxGeometry width="50" height="50" relative="1" as="geometry">
                        <mxPoint x="871.9299999999998" y="803.53" as="sourcePoint"/>
                        <mxPoint x="872.4188235294118" y="772.7491043729262" as="targetPoint"/>
                    </mxGeometry>
                </mxCell>
            </root>
        </mxGraphModel>
    </diagram>
</mxfile>